<?xml version="1.0" encoding="UTF-8" standalone="no"?>
<!-- Generator: Adobe Illustrator 17.1.0, SVG Export Plug-In . SVG Version: 6.00 Build 0)  -->

<svg
   xmlns:dc="http://purl.org/dc/elements/1.1/"
   xmlns:cc="http://creativecommons.org/ns#"
   xmlns:rdf="http://www.w3.org/1999/02/22-rdf-syntax-ns#"
   xmlns:svg="http://www.w3.org/2000/svg"
   xmlns="http://www.w3.org/2000/svg"
   xmlns:sodipodi="http://sodipodi.sourceforge.net/DTD/sodipodi-0.dtd"
   xmlns:inkscape="http://www.inkscape.org/namespaces/inkscape"
   version="1.1"
   x="0px"
   y="0px"
   width="512"
   height="512"
   viewBox="0 0 512 512"
   xml:space="preserve"
   id="svg2"
   inkscape:version="0.48.2 r9819"
   sodipodi:docname="rows.svg"><metadata
   id="metadata13"><rdf:RDF><cc:Work
       rdf:about=""><dc:format>image/svg+xml</dc:format><dc:type
         rdf:resource="http://purl.org/dc/dcmitype/StillImage" /><dc:title /></cc:Work></rdf:RDF></metadata><defs
   id="defs11">
	
</defs><sodipodi:namedview
   pagecolor="#ffffff"
   bordercolor="#666666"
   borderopacity="1"
   objecttolerance="10"
   gridtolerance="10"
   guidetolerance="10"
   inkscape:pageopacity="0"
   inkscape:pageshadow="2"
   inkscape:window-width="1920"
   inkscape:window-height="1017"
   id="namedview9"
   showgrid="false"
   inkscape:zoom="0.54"
   inkscape:cx="23.997418"
   inkscape:cy="173.2827"
   inkscape:window-x="1912"
   inkscape:window-y="-8"
   inkscape:window-maximized="1"
   inkscape:current-layer="svg2" />
<g
   id="list"
   transform="matrix(0,33.904964,-33.904964,0,985.67102,-403.26786)">
		<path
   inkscape:connector-curvature="0"
   id="path6"
   d="m 26.997197,28.5 c 0,0.275 -0.225,0.5 -0.5,0.5 L 17.5,29 C 17.225,29 17,28.775 17,28.5 l 0,-2 C 17,26.225 17.225,26 17.5,26 l 8.997197,0 c 0.275,0 0.5,0.225 0.5,0.5 z M 15,26.5 C 15,26.225 14.775,26 14.5,26 l -2,0 C 12.225,26 12,26.225 12,26.5 l 0,2 c 0,0.275 0.225,0.5 0.5,0.5 l 2,0 c 0.275,0 0.5,-0.225 0.5,-0.5 z m 11.997197,-6 c 0,-0.275 -0.225,-0.5 -0.5,-0.5 L 17.5,20 C 17.225,20 17,20.225 17,20.5 l 0,2 c 0,0.275 0.225,0.5 0.5,0.5 l 8.997197,0 c 0.275,0 0.5,-0.225 0.5,-0.5 z M 15,20.5 C 15,20.225 14.775,20 14.5,20 l -2,0 C 12.225,20 12,20.225 12,20.5 l 0,2 c 0,0.275 0.225,0.5 0.5,0.5 l 2,0 c 0.275,0 0.5,-0.225 0.5,-0.5 z m 11.997197,-6 c 0,-0.275 -0.225,-0.5 -0.5,-0.5 L 17.5,14 C 17.225,14 17,14.225 17,14.5 l 0,2 c 0,0.275 0.225,0.5 0.5,0.5 l 8.997197,0 c 0.275,0 0.5,-0.225 0.5,-0.5 z M 15,14.5 C 15,14.225 14.775,14 14.5,14 l -2,0 C 12.225,14 12,14.225 12,14.5 l 0,2 c 0,0.275 0.225,0.5 0.5,0.5 l 2,0 c 0.275,0 0.5,-0.225 0.5,-0.5 z"
   style="fill-rule:evenodd"
   sodipodi:nodetypes="ssssssssssssssssssssssssssssssssssssssssssssssssssssss" />
	</g>
<g
   id="Layer_2"
   transform="translate(0,464)">
</g>
</svg>