<?xml version="1.0" encoding="UTF-8"?>
<svg xmlns="http://www.w3.org/2000/svg" xmlns:xlink="http://www.w3.org/1999/xlink" width="410pt" height="410pt" viewBox="0 0 410 410" version="1.1">
<g id="surface1">
<path style=" stroke:none;fill-rule:nonzero;fill:rgb(0%,20%,40%);fill-opacity:1;" d="M 164.464844 117.558594 L 183.992188 123.75 C 180.996094 134.636719 176.019531 142.722656 169.054688 148.003906 C 162.09375 153.289062 153.257812 155.933594 142.554688 155.933594 C 129.308594 155.933594 118.421875 151.40625 109.894531 142.359375 C 101.367188 133.308594 97.105469 120.9375 97.105469 105.242188 C 97.105469 88.640625 101.390625 75.746094 109.964844 66.5625 C 118.535156 57.378906 129.808594 52.785156 143.78125 52.785156 C 155.980469 52.785156 165.890625 56.390625 173.511719 63.601562 C 178.046875 67.867188 181.449219 73.992188 183.71875 81.972656 L 163.78125 86.734375 C 162.605469 81.566406 160.144531 77.484375 156.402344 74.488281 C 152.660156 71.496094 148.109375 70 142.757812 70 C 135.363281 70 129.367188 72.652344 124.761719 77.960938 C 120.160156 83.265625 117.855469 91.863281 117.855469 103.746094 C 117.855469 116.355469 120.125 125.335938 124.660156 130.691406 C 129.195312 136.042969 135.09375 138.71875 142.351562 138.71875 C 147.703125 138.71875 152.308594 137.019531 156.164062 133.617188 C 160.019531 130.214844 162.785156 124.859375 164.464844 117.558594 Z M 164.464844 117.558594 "/>
<path style=" stroke:none;fill-rule:nonzero;fill:rgb(0%,20%,40%);fill-opacity:1;" d="M 196.238281 121.777344 L 215.832031 119.871094 C 217.011719 126.449219 219.40625 131.28125 223.011719 134.363281 C 226.617188 137.449219 231.480469 138.992188 237.605469 138.992188 C 244.09375 138.992188 248.980469 137.617188 252.269531 134.875 C 255.558594 132.128906 257.199219 128.921875 257.199219 125.246094 C 257.199219 122.886719 256.507812 120.878906 255.125 119.226562 C 253.742188 117.570312 251.328125 116.128906 247.878906 114.90625 C 245.519531 114.089844 240.144531 112.636719 231.753906 110.550781 C 220.957031 107.871094 213.382812 104.585938 209.027344 100.683594 C 202.90625 95.195312 199.84375 88.503906 199.84375 80.613281 C 199.84375 75.53125 201.285156 70.78125 204.164062 66.359375 C 207.042969 61.9375 211.195312 58.566406 216.617188 56.253906 C 222.035156 53.941406 228.578125 52.785156 236.246094 52.785156 C 248.765625 52.785156 258.1875 55.53125 264.515625 61.015625 C 270.84375 66.507812 274.164062 73.832031 274.484375 82.996094 L 254.34375 83.878906 C 253.480469 78.753906 251.632812 75.066406 248.796875 72.820312 C 245.964844 70.578125 241.710938 69.453125 236.039062 69.453125 C 230.1875 69.453125 225.609375 70.65625 222.296875 73.058594 C 220.164062 74.601562 219.097656 76.664062 219.097656 79.25 C 219.097656 81.609375 220.097656 83.628906 222.09375 85.308594 C 224.632812 87.441406 230.800781 89.660156 240.597656 91.976562 C 250.398438 94.285156 257.644531 96.679688 262.339844 99.152344 C 267.03125 101.625 270.707031 105.003906 273.359375 109.289062 C 276.015625 113.578125 277.339844 118.871094 277.339844 125.179688 C 277.339844 130.894531 275.753906 136.246094 272.578125 141.234375 C 269.402344 146.226562 264.910156 149.933594 259.105469 152.359375 C 253.300781 154.785156 246.066406 156 237.402344 156 C 224.792969 156 215.105469 153.085938 208.347656 147.257812 C 201.589844 141.429688 197.554688 132.933594 196.238281 121.777344 Z M 196.238281 121.777344 "/>
<path style=" stroke:none;fill-rule:nonzero;fill:rgb(0%,20%,40%);fill-opacity:1;" d="M 319.863281 154.230469 L 284.210938 54.484375 L 306.054688 54.484375 L 331.296875 128.308594 L 355.722656 54.484375 L 377.085938 54.484375 L 341.367188 154.230469 Z M 319.863281 154.230469 "/>
<path style=" stroke:none;fill-rule:nonzero;fill:rgb(0%,20%,40%);fill-opacity:1;" d="M 117.179688 0 C 83.246094 0 56.054688 27.191406 56.054688 61.125 L 56.054688 147.34375 C 56.054688 181.277344 83.246094 208.46875 117.179688 208.46875 L 348.605469 208.46875 C 382.542969 208.46875 410 181.277344 410 147.34375 L 410 61.125 C 410 27.191406 382.542969 0 348.605469 0 Z M 124.65625 10.945312 L 341.398438 10.945312 C 373.203125 10.945312 398.789062 35.328125 398.789062 65.664062 L 398.789062 142.804688 C 398.789062 173.144531 373.203125 197.527344 341.398438 197.527344 L 124.65625 197.527344 C 92.851562 197.527344 67.265625 173.144531 67.265625 142.804688 L 67.265625 65.664062 C 67.265625 35.328125 92.851562 10.945312 124.65625 10.945312 Z M 124.65625 10.945312 "/>
<path style=" stroke:none;fill-rule:nonzero;fill:rgb(0%,20%,40%);fill-opacity:1;" d="M 223.578125 219.125 L 307.03125 219.125 L 307.03125 302.578125 L 223.578125 302.578125 Z M 223.578125 219.125 "/>
<path style=" stroke:none;fill-rule:nonzero;fill:rgb(0%,20%,40%);fill-opacity:1;" d="M 111.789062 219.125 L 195.242188 219.125 L 195.242188 302.578125 L 111.789062 302.578125 Z M 111.789062 219.125 "/>
<path style=" stroke:none;fill-rule:nonzero;fill:rgb(0%,20%,40%);fill-opacity:1;" d="M 0 219.125 L 83.453125 219.125 L 83.453125 302.578125 L 0 302.578125 Z M 0 219.125 "/>
<path style=" stroke:none;fill-rule:nonzero;fill:rgb(0%,20%,40%);fill-opacity:1;" d="M 0 111.605469 L 0 195.152344 L 78.210938 195.152344 C 64.605469 183.9375 56.054688 166.726562 56.054688 147.640625 L 56.054688 111.605469 Z M 0 111.605469 "/>
<path style=" stroke:none;fill-rule:nonzero;fill:rgb(0%,20%,40%);fill-opacity:1;" d="M 0 4.300781 L 0 87.847656 L 56.054688 87.847656 L 56.054688 61.421875 C 56.054688 39.996094 66.980469 21.378906 83.546875 10.441406 L 83.546875 4.300781 Z M 0 4.300781 "/>
<path style=" stroke:none;fill-rule:nonzero;fill:rgb(0%,20%,40%);fill-opacity:1;" d="M 223.578125 326.546875 L 307.03125 326.546875 L 307.03125 410 L 223.578125 410 Z M 223.578125 326.546875 "/>
<path style=" stroke:none;fill-rule:nonzero;fill:rgb(0%,20%,40%);fill-opacity:1;" d="M 111.789062 326.546875 L 195.242188 326.546875 L 195.242188 410 L 111.789062 410 Z M 111.789062 326.546875 "/>
<path style=" stroke:none;fill-rule:nonzero;fill:rgb(0%,20%,40%);fill-opacity:1;" d="M 0 326.546875 L 83.453125 326.546875 L 83.453125 410 L 0 410 Z M 0 326.546875 "/>
</g>
</svg>
