<?xml version="1.0" encoding="UTF-8"?>
<svg xmlns="http://www.w3.org/2000/svg" xmlns:xlink="http://www.w3.org/1999/xlink" width="410pt" height="410pt" viewBox="0 0 410 410" version="1.1">
<g id="surface1">
<path style=" stroke:none;fill-rule:nonzero;fill:rgb(0%,20%,40%);fill-opacity:1;" d="M 100.941406 153.8125 L 135 102.035156 L 104.136719 54.589844 L 127.65625 54.589844 L 147.644531 86.46875 L 167.222656 54.589844 L 190.539062 54.589844 L 159.539062 102.78125 L 193.597656 153.8125 L 169.328125 153.8125 L 147.234375 119.496094 L 125.074219 153.8125 Z M 100.941406 153.8125 "/>
<path style=" stroke:none;fill-rule:nonzero;fill:rgb(0%,20%,40%);fill-opacity:1;" d="M 204.609375 153.8125 L 204.609375 55.402344 L 224.734375 55.402344 L 224.734375 137.09375 L 274.769531 137.09375 L 274.769531 153.8125 Z M 204.609375 153.8125 "/>
<path style=" stroke:none;fill-rule:nonzero;fill:rgb(0%,20%,40%);fill-opacity:1;" d="M 284.082031 121.527344 L 303.660156 119.632812 C 304.839844 126.175781 307.230469 130.980469 310.832031 134.050781 C 314.433594 137.117188 319.296875 138.652344 325.414062 138.652344 C 331.894531 138.652344 336.777344 137.289062 340.0625 134.558594 C 343.347656 131.828125 344.992188 128.636719 344.992188 124.980469 C 344.992188 122.632812 344.300781 120.636719 342.917969 118.988281 C 341.535156 117.34375 339.121094 115.910156 335.679688 114.691406 C 333.320312 113.878906 327.953125 112.433594 319.566406 110.359375 C 308.78125 107.695312 301.210938 104.425781 296.863281 100.546875 C 290.742188 95.085938 287.683594 88.429688 287.683594 80.578125 C 287.683594 75.527344 289.121094 70.800781 292 66.398438 C 294.878906 62 299.027344 58.648438 304.441406 56.347656 C 309.855469 54.046875 316.394531 52.898438 324.054688 52.894531 C 336.5625 52.898438 345.976562 55.625 352.300781 61.085938 C 358.621094 66.546875 361.941406 73.832031 362.257812 82.949219 L 342.136719 83.828125 C 341.277344 78.726562 339.429688 75.0625 336.597656 72.828125 C 333.765625 70.59375 329.515625 69.476562 323.851562 69.476562 C 318.003906 69.476562 313.425781 70.675781 310.117188 73.066406 C 307.988281 74.597656 306.921875 76.652344 306.921875 79.222656 C 306.921875 81.574219 307.917969 83.578125 309.914062 85.25 C 312.453125 87.367188 318.617188 89.582031 328.40625 91.882812 C 338.195312 94.183594 345.433594 96.5625 350.125 99.023438 C 354.816406 101.480469 358.484375 104.84375 361.136719 109.105469 C 363.789062 113.371094 365.113281 118.640625 365.113281 124.910156 C 365.113281 130.597656 363.527344 135.921875 360.355469 140.882812 C 357.183594 145.847656 352.695312 149.539062 346.894531 151.953125 C 341.09375 154.367188 333.867188 155.574219 325.210938 155.574219 C 312.609375 155.574219 302.933594 152.671875 296.179688 146.875 C 289.429688 141.078125 285.394531 132.628906 284.082031 121.527344 Z M 284.082031 121.527344 "/>
<path style=" stroke:none;fill-rule:nonzero;fill:rgb(0%,20%,40%);fill-opacity:1;" d="M 117.179688 0 C 83.246094 0 56.054688 27.191406 56.054688 61.125 L 56.054688 147.34375 C 56.054688 181.277344 83.246094 208.46875 117.179688 208.46875 L 348.605469 208.46875 C 382.542969 208.46875 410 181.277344 410 147.34375 L 410 61.125 C 410 27.191406 382.542969 0 348.605469 0 Z M 124.65625 10.945312 L 341.398438 10.945312 C 373.203125 10.945312 398.789062 35.328125 398.789062 65.664062 L 398.789062 142.804688 C 398.789062 173.144531 373.203125 197.527344 341.398438 197.527344 L 124.65625 197.527344 C 92.851562 197.527344 67.265625 173.144531 67.265625 142.804688 L 67.265625 65.664062 C 67.265625 35.328125 92.851562 10.945312 124.65625 10.945312 Z M 124.65625 10.945312 "/>
<path style=" stroke:none;fill-rule:nonzero;fill:rgb(0%,20%,40%);fill-opacity:1;" d="M 223.578125 219.125 L 307.03125 219.125 L 307.03125 302.578125 L 223.578125 302.578125 Z M 223.578125 219.125 "/>
<path style=" stroke:none;fill-rule:nonzero;fill:rgb(0%,20%,40%);fill-opacity:1;" d="M 111.789062 219.125 L 195.242188 219.125 L 195.242188 302.578125 L 111.789062 302.578125 Z M 111.789062 219.125 "/>
<path style=" stroke:none;fill-rule:nonzero;fill:rgb(0%,20%,40%);fill-opacity:1;" d="M 0 219.125 L 83.453125 219.125 L 83.453125 302.578125 L 0 302.578125 Z M 0 219.125 "/>
<path style=" stroke:none;fill-rule:nonzero;fill:rgb(0%,20%,40%);fill-opacity:1;" d="M 0 111.605469 L 0 195.152344 L 78.210938 195.152344 C 64.605469 183.9375 56.054688 166.726562 56.054688 147.640625 L 56.054688 111.605469 Z M 0 111.605469 "/>
<path style=" stroke:none;fill-rule:nonzero;fill:rgb(0%,20%,40%);fill-opacity:1;" d="M 0 4.300781 L 0 87.847656 L 56.054688 87.847656 L 56.054688 61.421875 C 56.054688 39.996094 66.980469 21.378906 83.546875 10.441406 L 83.546875 4.300781 Z M 0 4.300781 "/>
<path style=" stroke:none;fill-rule:nonzero;fill:rgb(0%,20%,40%);fill-opacity:1;" d="M 223.578125 326.546875 L 307.03125 326.546875 L 307.03125 410 L 223.578125 410 Z M 223.578125 326.546875 "/>
<path style=" stroke:none;fill-rule:nonzero;fill:rgb(0%,20%,40%);fill-opacity:1;" d="M 111.789062 326.546875 L 195.242188 326.546875 L 195.242188 410 L 111.789062 410 Z M 111.789062 326.546875 "/>
<path style=" stroke:none;fill-rule:nonzero;fill:rgb(0%,20%,40%);fill-opacity:1;" d="M 0 326.546875 L 83.453125 326.546875 L 83.453125 410 L 0 410 Z M 0 326.546875 "/>
</g>
</svg>
