<?xml version="1.0" encoding="UTF-8"?>
<svg xmlns="http://www.w3.org/2000/svg" xmlns:xlink="http://www.w3.org/1999/xlink" width="410pt" height="410pt" viewBox="0 0 410 410" version="1.1">
<g id="surface1">
<path style=" stroke:none;fill-rule:nonzero;fill:rgb(0%,20%,40%);fill-opacity:1;" d="M 33.898438 0.265625 C 15.222656 0.265625 0.265625 15.222656 0.265625 33.898438 L 0.265625 376.101562 C 0.265625 394.777344 15.222656 409.734375 33.898438 409.734375 L 376.101562 409.734375 C 394.777344 409.734375 409.734375 394.777344 409.734375 376.101562 L 409.734375 33.898438 C 409.734375 15.222656 394.777344 0.265625 376.101562 0.265625 Z M 72.335938 36.300781 L 169.230469 36.300781 C 204.609375 36.300781 205.265625 36.398438 205.265625 72.070312 C 205.265625 40.980469 205.378906 36.847656 229.289062 36.300781 C 232.707031 36.222656 236.578125 36.300781 241.035156 36.300781 L 337.929688 36.300781 C 357.765625 36.300781 373.699219 52.214844 373.699219 72.070312 L 373.699219 169.230469 C 373.699219 200.1875 373.589844 204.441406 349.675781 205 C 373.242188 205.546875 373.699219 209.707031 373.699219 240.769531 L 373.699219 337.929688 C 373.699219 357.765625 357.515625 373.699219 337.664062 373.699219 L 240.769531 373.699219 C 205.390625 373.699219 204.734375 373.601562 204.734375 337.929688 C 204.734375 369.019531 204.621094 373.152344 180.710938 373.699219 C 177.292969 373.777344 173.421875 373.699219 168.964844 373.699219 L 72.070312 373.699219 C 52.234375 373.699219 36.300781 357.785156 36.300781 337.929688 L 36.300781 240.769531 C 36.300781 209.8125 36.410156 205.558594 60.324219 205 C 36.730469 204.460938 36.300781 200.289062 36.300781 169.230469 L 36.300781 72.070312 C 36.300781 52.234375 52.484375 36.300781 72.335938 36.300781 Z M 232.761719 41.105469 C 210.285156 41.621094 210.339844 45.429688 210.339844 74.738281 L 210.339844 166.296875 C 210.339844 200.082031 210.371094 200.195312 243.972656 200.195312 L 334.992188 200.195312 C 368.523438 200.195312 368.625 199.644531 368.625 166.296875 L 368.625 74.738281 C 368.625 56.023438 353.636719 41.105469 334.992188 41.105469 L 243.972656 41.105469 C 239.785156 41.105469 235.972656 41.035156 232.761719 41.105469 Z M 205.265625 180.976562 C 204.738281 204.929688 200.59375 205 169.230469 205 C 200.230469 205 204.242188 205.105469 204.734375 229.023438 C 205.261719 205.070312 209.40625 205 240.769531 205 C 209.796875 205 205.757812 204.886719 205.265625 180.976562 Z M 64.0625 209.804688 C 41.582031 210.367188 41.375 214.523438 41.375 243.703125 L 41.375 335.261719 C 41.375 353.976562 56.363281 368.894531 75.007812 368.894531 L 166.027344 368.894531 C 170.214844 368.894531 174.027344 368.964844 177.238281 368.894531 C 199.714844 368.378906 199.660156 364.570312 199.660156 335.261719 L 199.660156 243.703125 C 199.660156 209.917969 199.628906 209.804688 166.027344 209.804688 L 75.007812 209.804688 C 70.816406 209.804688 67.273438 209.722656 64.0625 209.804688 Z M 64.0625 209.804688 "/>
</g>
</svg>
