<?xml version="1.0" encoding="UTF-8"?>
<svg xmlns="http://www.w3.org/2000/svg" xmlns:xlink="http://www.w3.org/1999/xlink" width="410pt" height="410pt" viewBox="0 0 410 410" version="1.1">
<g id="surface1">
<path style=" stroke:none;fill-rule:nonzero;fill:rgb(0%,20%,40%);fill-opacity:1;" d="M 34.699219 1.066406 C 16.101562 1.066406 1.066406 16.101562 1.066406 34.699219 L 1.066406 375.300781 C 1.066406 393.898438 16.101562 408.933594 34.699219 408.933594 L 375.300781 408.933594 C 393.898438 408.933594 408.933594 393.898438 408.933594 375.300781 L 408.933594 34.699219 C 408.933594 16.101562 393.898438 1.066406 375.300781 1.066406 Z M 205 54.1875 L 311.503906 54.1875 C 317.347656 54.1875 322.179688 62.628906 322.179688 73.136719 L 322.179688 161.492188 C 322.179688 172 317.347656 180.441406 311.503906 180.441406 L 205 180.441406 C 199.15625 180.441406 194.324219 172 194.324219 161.492188 L 194.324219 73.136719 C 194.324219 62.628906 199.15625 54.1875 205 54.1875 Z M 105.4375 102.234375 C 148.25 102.234375 162.195312 118.453125 166.5625 146.277344 C 166.640625 135.601562 171.34375 127.058594 177.238281 127.058594 L 190.851562 127.058594 L 190.851562 163.09375 C 190.851562 174.164062 195.910156 183.113281 202.0625 183.113281 L 314.171875 183.113281 C 320.328125 183.113281 325.382812 174.164062 325.382812 163.09375 L 325.382812 127.058594 L 360.351562 127.058594 C 366.296875 127.058594 371.027344 135.746094 371.027344 146.542969 L 371.027344 196.726562 C 371.027344 207.523438 366.296875 216.210938 360.351562 216.210938 L 331.789062 216.210938 C 331.792969 216.210938 331.789062 216.476562 331.789062 216.476562 L 331.789062 353.679688 C 331.789062 360.929688 329.179688 366.757812 325.917969 366.757812 L 275.46875 366.757812 C 272.207031 366.757812 269.597656 360.929688 269.597656 353.679688 L 269.597656 262.65625 L 262.65625 262.65625 L 262.65625 353.679688 C 262.65625 360.929688 259.238281 366.757812 255.183594 366.757812 L 192.453125 366.757812 C 188.398438 366.757812 185.246094 360.929688 185.246094 353.679688 L 185.246094 216.476562 C 185.246094 216.476562 185.246094 216.210938 185.246094 216.210938 L 177.238281 216.210938 C 173.402344 216.210938 170.042969 212.601562 168.164062 207.136719 C 168.136719 210.1875 168.164062 213.054688 168.164062 216.210938 C 168.289062 225.800781 163.539062 233.828125 158.019531 233.828125 L 118.78125 233.828125 L 118.78125 307.765625 C 137.386719 311.078125 151.613281 320.988281 151.613281 332.589844 C 151.613281 346.917969 130.789062 357.949219 105.4375 357.949219 C 80.082031 357.949219 60.058594 346.917969 60.058594 332.589844 C 60.058594 320.890625 73.78125 310.984375 92.625 307.765625 L 92.625 233.828125 L 53.652344 233.828125 C 48.132812 233.828125 43.242188 225.804688 43.242188 216.210938 C 43.242188 147.515625 34.03125 102.234375 105.4375 102.234375 Z M 105.4375 314.171875 C 87.683594 314.171875 73.40625 322.558594 73.40625 332.589844 C 73.40625 342.621094 87.683594 350.742188 105.4375 350.742188 C 123.191406 350.742188 138 342.621094 138 332.589844 C 138 322.5625 123.191406 314.171875 105.4375 314.171875 Z M 105.4375 314.171875 "/>
</g>
</svg>
