<?xml version="1.0" encoding="UTF-8" standalone="no"?>
<svg
   xmlns:dc="http://purl.org/dc/elements/1.1/"
   xmlns:cc="http://creativecommons.org/ns#"
   xmlns:rdf="http://www.w3.org/1999/02/22-rdf-syntax-ns#"
   xmlns:svg="http://www.w3.org/2000/svg"
   xmlns="http://www.w3.org/2000/svg"
   xmlns:sodipodi="http://sodipodi.sourceforge.net/DTD/sodipodi-0.dtd"
   xmlns:inkscape="http://www.inkscape.org/namespaces/inkscape"
   width="410pt"
   height="410pt"
   viewBox="0 0 410 410"
   version="1.1"
   id="svg2"
   inkscape:version="0.48.2 r9819"
   sodipodi:docname="diigo.svg">
  <metadata
     id="metadata65">
    <rdf:RDF>
      <cc:Work
         rdf:about="">
        <dc:format>image/svg+xml</dc:format>
        <dc:type
           rdf:resource="http://purl.org/dc/dcmitype/StillImage" />
      </cc:Work>
    </rdf:RDF>
  </metadata>
  <defs
     id="defs63" />
  <sodipodi:namedview
     pagecolor="#ffffff"
     bordercolor="#666666"
     borderopacity="1"
     objecttolerance="10"
     gridtolerance="10"
     guidetolerance="10"
     inkscape:pageopacity="0"
     inkscape:pageshadow="2"
     inkscape:window-width="640"
     inkscape:window-height="480"
     id="namedview61"
     showgrid="false"
     inkscape:zoom="0.4604878"
     inkscape:cx="256.25"
     inkscape:cy="256.25"
     inkscape:window-x="0"
     inkscape:window-y="0"
     inkscape:window-maximized="0"
     inkscape:current-layer="svg2" />
  <path
     style="fill:#003366;fill-opacity:1;fill-rule:nonzero;stroke:none"
     d="M 42.3125 0 C 18.938476 0 6.7075974e-017 18.938476 0 42.3125 L 0 471.625 C 0 494.99903 18.938476 513.9375 42.3125 513.9375 L 471.625 513.9375 C 494.99903 513.9375 513.9375 494.99902 513.9375 471.625 L 513.9375 42.3125 C 513.9375 18.938476 494.99903 -5.5511151e-017 471.625 0 L 42.3125 0 z M 342.09375 32.8125 C 362.17188 32.8125 378.4375 49.083008 378.4375 69.15625 C 378.4375 89.234375 362.17188 105.5 342.09375 105.5 C 322.02051 105.5 305.75 89.234375 305.75 69.15625 C 305.75 49.083008 322.02051 32.8125 342.09375 32.8125 z M 171.84375 34 C 191.92188 34 208.1875 50.265625 208.1875 70.34375 C 208.1875 90.416993 191.92187 106.6875 171.84375 106.6875 C 151.77051 106.6875 135.5 90.416993 135.5 70.34375 C 135.5 50.265625 151.77051 34 171.84375 34 z M 134.9375 146.09375 C 189.64452 177.67578 212.98438 199.53614 256.96875 199.53125 C 300.95312 199.53125 321.64161 179.20899 379 146.09375 L 379 481.15625 L 317.09375 481.15625 C 317.09375 469.70117 318.96875 258.52734 318.96875 239.875 C 304.76952 248.07324 285.31934 251.72949 258.46875 251.96875 C 231.62305 252.29101 205.45215 242.7002 198.875 240.9375 C 198.875 266.79199 197.96875 444.96485 197.96875 481.15625 L 134.9375 481.15625 L 134.9375 146.09375 z "
     transform="scale(0.8,0.8)"
     id="path53" />
</svg>
