<?xml version="1.0" encoding="UTF-8"?>
<svg xmlns="http://www.w3.org/2000/svg" xmlns:xlink="http://www.w3.org/1999/xlink" width="410pt" height="410pt" viewBox="0 0 410 410" version="1.1">
<g id="surface1">
<path style=" stroke:none;fill-rule:nonzero;fill:rgb(0%,20%,40%);fill-opacity:1;" d="M 204.664062 74.230469 C 192.171875 74.230469 182.089844 87.078125 182.089844 103.0625 L 182.089844 250.574219 L 132.023438 191.125 C 124.878906 182.609375 111.421875 182.199219 101.851562 190.230469 L 101.40625 190.675781 C 91.835938 198.707031 89.789062 211.886719 96.933594 220.402344 L 188.125 329.027344 C 192.074219 333.730469 197.914062 336.039062 203.996094 335.730469 C 204.210938 335.738281 204.445312 335.730469 204.664062 335.730469 L 205.335938 335.730469 C 205.488281 335.730469 205.632812 335.734375 205.78125 335.730469 C 211.941406 336.101562 217.878906 333.785156 221.875 329.027344 L 313.066406 220.402344 C 320.210938 211.886719 318.164062 198.707031 308.59375 190.675781 L 308.148438 190.230469 C 298.578125 182.199219 285.121094 182.609375 277.976562 191.125 L 227.910156 250.578125 L 227.910156 103.0625 C 227.910156 87.078125 217.828125 74.230469 205.335938 74.230469 Z M 204.664062 74.230469 "/>
<path style=" stroke:none;fill-rule:nonzero;fill:rgb(0%,20%,40%);fill-opacity:1;" d="M 205 1.066406 C 92.308594 1.066406 1.066406 92.308594 1.066406 205 C 1.066406 317.691406 92.308594 408.933594 205 408.933594 C 317.691406 408.933594 408.933594 317.691406 408.933594 205 C 408.933594 92.308594 317.691406 1.066406 205 1.066406 Z M 205 50.984375 C 290.105469 50.984375 359.015625 119.894531 359.015625 205 C 359.015625 290.105469 290.105469 359.015625 205 359.015625 C 119.894531 359.015625 50.984375 290.105469 50.984375 205 C 50.984375 119.894531 119.894531 50.984375 205 50.984375 Z M 205 50.984375 "/>
</g>
</svg>
