<?xml version="1.0" encoding="UTF-8"?>
<svg xmlns="http://www.w3.org/2000/svg" xmlns:xlink="http://www.w3.org/1999/xlink" width="410pt" height="410pt" viewBox="0 0 410 410" version="1.1">
<g id="surface1">
<path style=" stroke:none;fill-rule:evenodd;fill:rgb(0%,20%,40%);fill-opacity:1;" d="M 204.734375 0 C 91.59375 0 0 91.59375 0 204.734375 C 0 317.871094 91.59375 409.734375 204.734375 409.734375 C 317.871094 409.734375 409.734375 317.871094 409.734375 204.734375 C 409.734375 91.59375 317.871094 0 204.734375 0 Z M 204.464844 48.582031 L 205.265625 48.582031 C 220.183594 48.582031 232.226562 63.925781 232.226562 83.015625 L 232.226562 259.1875 L 292.019531 188.183594 C 300.550781 178.015625 316.625 177.527344 328.054688 187.117188 L 328.585938 187.648438 C 340.015625 197.238281 342.457031 212.980469 333.925781 223.152344 L 225.019531 352.878906 C 220.25 358.5625 213.152344 361.328125 205.800781 360.886719 C 205.621094 360.890625 205.449219 360.886719 205.265625 360.886719 L 204.464844 360.886719 C 204.207031 360.886719 203.925781 360.894531 203.664062 360.886719 C 196.402344 361.25 189.429688 358.496094 184.714844 352.878906 L 75.808594 223.152344 C 67.273438 212.980469 69.71875 197.238281 81.144531 187.648438 L 81.679688 187.117188 C 93.109375 177.527344 109.183594 178.015625 117.714844 188.183594 L 177.507812 259.1875 L 177.507812 83.015625 C 177.507812 63.925781 189.546875 48.582031 204.464844 48.582031 Z M 204.464844 48.582031 "/>
</g>
</svg>
