<?xml version="1.0" encoding="UTF-8"?>
<svg xmlns="http://www.w3.org/2000/svg" xmlns:xlink="http://www.w3.org/1999/xlink" width="410pt" height="410pt" viewBox="0 0 410 410" version="1.1">
<g id="surface1">
<path style=" stroke:none;fill-rule:nonzero;fill:rgb(0%,20%,40%);fill-opacity:1;" d="M 34.167969 0.667969 C 15.515625 0.667969 0.535156 15.648438 0.535156 34.300781 L 0.535156 160.824219 C 3.027344 129.777344 18.964844 109.492188 35.234375 97.027344 C 52.984375 83.433594 70.734375 78.875 70.734375 78.875 L 71.535156 79.144531 L 206.601562 80.746094 C 195.660156 94.226562 174.074219 94.394531 160.15625 96.492188 C 160.15625 96.492188 193.21875 113.949219 192.453125 165.894531 C 191.609375 223.339844 144.714844 234.578125 142.273438 252.914062 C 139.828125 271.246094 207.066406 283.285156 203.398438 363.953125 C 202.046875 393.71875 195.878906 404.980469 191.386719 409.332031 L 375.832031 409.332031 C 394.484375 409.332031 409.464844 394.351562 409.464844 375.699219 L 409.464844 34.300781 C 409.464844 15.648438 394.484375 0.667969 375.832031 0.667969 Z M 296.289062 78.34375 L 319.246094 78.34375 L 319.246094 146.140625 L 387.042969 146.140625 L 387.042969 169.097656 L 319.246094 169.097656 L 319.246094 236.898438 L 296.289062 236.898438 L 296.289062 169.097656 L 228.488281 169.097656 L 228.488281 146.140625 L 296.289062 146.140625 Z M 86.21875 102.101562 C 84.90625 102.101562 83.53125 102.109375 82.214844 102.367188 C 61.136719 105.1875 47.914062 135.808594 52.585938 170.699219 C 57.253906 205.585938 77.953125 231.710938 99.03125 228.890625 C 120.109375 226.066406 133.59375 195.445312 128.925781 160.554688 C 124.550781 127.847656 105.902344 102.765625 86.21875 102.101562 Z M 0.535156 182.179688 L 0.535156 319.914062 C 0.535156 319.914062 15.074219 303.980469 30.964844 299.09375 C 46.851562 294.203125 101.964844 290.550781 101.964844 290.550781 C 101.964844 290.550781 88.015625 286.347656 86.21875 271.0625 C 84.417969 255.78125 86.21875 252.378906 86.21875 252.378906 C 73.996094 256.332031 50.125 251.53125 37.902344 249.175781 C 37.902344 249.175781 4.835938 242.464844 0.535156 182.179688 Z M 85.417969 317.242188 C 50.078125 319.28125 22.152344 340.113281 21.886719 365.824219 C 21.667969 387.179688 30.824219 403.253906 60.59375 409.332031 L 124.121094 409.332031 C 152.53125 403.511719 161.8125 388.8125 162.023438 367.960938 C 162.304688 340.535156 131.28125 317.78125 92.625 317.242188 C 90.207031 317.207031 87.773438 317.105469 85.417969 317.242188 Z M 0.535156 372.230469 L 0.535156 375.699219 C 0.535156 376.917969 0.941406 377.988281 1.066406 379.171875 C 0.761719 376.390625 0.550781 373.992188 0.535156 372.230469 Z M 1.066406 379.171875 C 1.28125 381.199219 1.582031 383.140625 2.136719 385.042969 C 1.722656 383.070312 1.265625 380.972656 1.066406 379.171875 Z M 1.066406 379.171875 "/>
</g>
</svg>
