<?xml version="1.0" encoding="UTF-8"?>
<svg xmlns="http://www.w3.org/2000/svg" xmlns:xlink="http://www.w3.org/1999/xlink" width="410pt" height="410pt" viewBox="0 0 410 410" version="1.1">
<g id="surface1">
<path style=" stroke:none;fill-rule:nonzero;fill:rgb(0%,20%,40%);fill-opacity:1;" d="M 205 1.066406 C 203.015625 1.066406 201.097656 1.277344 199.128906 1.335938 C 89.296875 4.480469 1.066406 94.414062 1.066406 205 C 1.066406 315.585938 89.296875 405.519531 199.128906 408.664062 C 201.09375 408.839844 203.007812 408.933594 205 408.933594 C 206.992188 408.933594 208.90625 408.839844 210.871094 408.664062 C 320.703125 405.519531 408.933594 315.585938 408.933594 205 C 408.933594 94.414062 320.703125 4.480469 210.871094 1.335938 C 208.90625 1.160156 206.992188 1.066406 205 1.066406 Z M 192.1875 26.425781 L 192.1875 109.972656 L 126.523438 109.972656 C 140.679688 65.476562 164.453125 33.949219 192.1875 26.425781 Z M 217.8125 26.425781 C 245.546875 33.949219 269.320312 65.476562 283.476562 109.972656 L 217.8125 109.972656 Z M 142.804688 33.367188 C 126.042969 52.363281 112.371094 78.714844 103.035156 109.972656 L 49.382812 109.972656 C 70.839844 74.921875 103.609375 47.578125 142.804688 33.367188 Z M 267.195312 33.367188 C 306.390625 47.578125 339.160156 74.921875 360.617188 109.972656 L 306.964844 109.972656 C 297.628906 78.714844 283.957031 52.363281 267.195312 33.367188 Z M 36.300781 135.597656 L 96.628906 135.597656 C 92.929688 153.621094 90.628906 172.746094 89.953125 192.722656 L 22.957031 192.722656 C 24.296875 172.597656 28.957031 153.417969 36.300781 135.597656 Z M 119.582031 135.597656 L 192.1875 135.597656 L 192.1875 192.722656 L 112.910156 192.722656 C 113.605469 172.621094 115.789062 153.363281 119.582031 135.597656 Z M 217.8125 135.597656 L 290.417969 135.597656 C 294.210938 153.363281 296.394531 172.621094 297.089844 192.722656 L 217.8125 192.722656 Z M 313.371094 135.597656 L 373.699219 135.597656 C 381.042969 153.417969 385.703125 172.597656 387.042969 192.722656 L 320.046875 192.722656 C 319.371094 172.746094 317.070312 153.621094 313.371094 135.597656 Z M 22.957031 218.347656 L 89.953125 218.347656 C 90.675781 237.9375 92.996094 256.699219 96.628906 274.402344 L 36.300781 274.402344 C 29.085938 256.894531 24.386719 238.089844 22.957031 218.347656 Z M 112.910156 218.347656 L 192.1875 218.347656 L 192.1875 274.402344 L 119.582031 274.402344 C 115.855469 256.949219 113.652344 238.0625 112.910156 218.347656 Z M 217.8125 218.347656 L 297.089844 218.347656 C 296.347656 238.0625 294.144531 256.949219 290.417969 274.402344 L 217.8125 274.402344 Z M 320.046875 218.347656 L 387.042969 218.347656 C 385.613281 238.089844 380.914062 256.894531 373.699219 274.402344 L 313.371094 274.402344 C 317.003906 256.699219 319.324219 237.9375 320.046875 218.347656 Z M 49.382812 300.027344 L 103.035156 300.027344 C 112.371094 331.285156 126.042969 357.636719 142.804688 376.632812 C 103.609375 362.421875 70.839844 335.078125 49.382812 300.027344 Z M 126.523438 300.027344 L 192.1875 300.027344 L 192.1875 383.574219 C 164.453125 376.050781 140.679688 344.523438 126.523438 300.027344 Z M 217.8125 300.027344 L 283.476562 300.027344 C 269.320312 344.523438 245.546875 376.050781 217.8125 383.574219 Z M 306.964844 300.027344 L 360.617188 300.027344 C 339.160156 335.078125 306.390625 362.421875 267.195312 376.632812 C 283.957031 357.636719 297.628906 331.285156 306.964844 300.027344 Z M 306.964844 300.027344 "/>
</g>
</svg>
