<?xml version="1.0" encoding="UTF-8"?>
<svg xmlns="http://www.w3.org/2000/svg" xmlns:xlink="http://www.w3.org/1999/xlink" width="410pt" height="410pt" viewBox="0 0 410 410" version="1.1">
<g id="surface1">
<path style=" stroke:none;fill-rule:evenodd;fill:rgb(0%,20%,40%);fill-opacity:1;" d="M 151.613281 75.273438 L 151.613281 338.730469 L 140.402344 338.730469 L 140.402344 208.203125 L 86.75 208.203125 L 86.75 338.730469 L 75.808594 338.730469 L 75.808594 282.410156 L 22.15625 282.410156 L 22.15625 338.730469 L 0 338.730469 L 0 365.691406 L 290.417969 365.691406 L 290.417969 338.730469 L 270.398438 338.730469 L 270.398438 189.785156 L 216.746094 189.785156 L 216.746094 338.730469 L 205.265625 338.730469 L 205.265625 189.519531 C 183.457031 188.277344 166.296875 170.273438 166.296875 148.144531 L 166.296875 89.953125 C 166.296875 84.726562 167.210938 79.871094 168.964844 75.273438 Z M 151.613281 75.273438 "/>
<path style=" stroke:none;fill-rule:nonzero;fill:rgb(0%,20%,40%);fill-opacity:1;" d="M 204.074219 44.417969 C 180.210938 44.417969 161.085938 63.542969 161.085938 87.40625 L 161.085938 148.039062 C 161.085938 171.902344 180.210938 191.027344 204.074219 191.027344 L 366.824219 191.027344 C 390.691406 191.027344 410 171.902344 410 148.039062 L 410 87.40625 C 410 63.542969 390.691406 44.417969 366.824219 44.417969 Z M 209.332031 52.117188 L 361.757812 52.117188 C 384.125 52.117188 402.117188 69.261719 402.117188 90.597656 L 402.117188 144.847656 C 402.117188 166.183594 384.125 183.332031 361.757812 183.332031 L 209.332031 183.332031 C 186.964844 183.332031 168.972656 166.183594 168.972656 144.847656 L 168.972656 90.597656 C 168.972656 69.261719 186.964844 52.117188 209.332031 52.117188 Z M 209.332031 52.117188 "/>
<path style=" stroke:none;fill-rule:nonzero;fill:rgb(0%,20%,40%);fill-opacity:1;" d="M 184.085938 153.410156 L 184.085938 82.039062 L 207.210938 82.039062 C 215.972656 82.039062 221.6875 82.394531 224.347656 83.109375 C 228.4375 84.179688 231.859375 86.507812 234.621094 90.09375 C 237.378906 93.679688 238.757812 98.3125 238.757812 103.992188 C 238.757812 108.375 237.960938 112.058594 236.371094 115.046875 C 234.78125 118.03125 232.761719 120.375 230.3125 122.082031 C 227.859375 123.785156 225.371094 124.910156 222.839844 125.464844 C 219.398438 126.144531 214.414062 126.484375 207.890625 126.484375 L 198.496094 126.484375 L 198.496094 153.410156 Z M 198.496094 94.109375 L 198.496094 114.363281 L 206.382812 114.363281 C 212.0625 114.363281 215.859375 113.992188 217.773438 113.242188 C 219.691406 112.496094 221.191406 111.328125 222.277344 109.738281 C 223.367188 108.148438 223.910156 106.296875 223.910156 104.1875 C 223.910156 101.59375 223.148438 99.449219 221.621094 97.761719 C 220.09375 96.074219 218.164062 95.019531 215.828125 94.597656 C 214.109375 94.273438 210.652344 94.109375 205.457031 94.109375 Z M 198.496094 94.109375 "/>
<path style=" stroke:none;fill-rule:nonzero;fill:rgb(0%,20%,40%);fill-opacity:1;" d="M 250.832031 153.410156 L 250.832031 82.039062 L 264.851562 82.039062 L 294.0625 129.699219 L 294.0625 82.039062 L 307.453125 82.039062 L 307.453125 153.410156 L 292.992188 153.410156 L 264.21875 106.867188 L 264.21875 153.410156 Z M 250.832031 153.410156 "/>
<path style=" stroke:none;fill-rule:nonzero;fill:rgb(0%,20%,40%);fill-opacity:1;" d="M 355.941406 127.167969 L 355.941406 115.144531 L 387 115.144531 L 387 143.574219 C 383.984375 146.496094 379.609375 149.066406 373.882812 151.289062 C 368.152344 153.515625 362.351562 154.625 356.476562 154.625 C 349.011719 154.625 342.503906 153.058594 336.953125 149.925781 C 331.402344 146.796875 327.234375 142.316406 324.441406 136.492188 C 321.652344 130.664062 320.253906 124.328125 320.253906 117.480469 C 320.253906 110.046875 321.8125 103.441406 324.929688 97.664062 C 328.042969 91.886719 332.605469 87.457031 338.609375 84.375 C 343.1875 82.003906 348.882812 80.820312 355.699219 80.820312 C 364.558594 80.820312 371.480469 82.679688 376.460938 86.394531 C 381.441406 90.109375 384.648438 95.246094 386.078125 101.804688 L 371.761719 104.480469 C 370.757812 100.976562 368.867188 98.207031 366.089844 96.179688 C 363.316406 94.152344 359.851562 93.136719 355.699219 93.136719 C 349.402344 93.136719 344.394531 95.132812 340.679688 99.125 C 336.960938 103.117188 335.105469 109.039062 335.105469 116.894531 C 335.105469 125.367188 336.988281 131.71875 340.75 135.957031 C 344.515625 140.191406 349.449219 142.308594 355.550781 142.308594 C 358.570312 142.308594 361.597656 141.714844 364.632812 140.53125 C 367.664062 139.347656 370.269531 137.910156 372.445312 136.222656 L 372.445312 127.167969 Z M 355.941406 127.167969 "/>
</g>
</svg>
