<?xml version="1.0" encoding="UTF-8"?>
<svg xmlns="http://www.w3.org/2000/svg" xmlns:xlink="http://www.w3.org/1999/xlink" width="410pt" height="410pt" viewBox="0 0 410 410" version="1.1">
<g id="surface1">
<path style=" stroke:none;fill-rule:evenodd;fill:rgb(0%,20%,40%);fill-opacity:1;" d="M 151.613281 75.273438 L 151.613281 338.730469 L 140.402344 338.730469 L 140.402344 208.203125 L 86.75 208.203125 L 86.75 338.730469 L 75.808594 338.730469 L 75.808594 282.410156 L 22.15625 282.410156 L 22.15625 338.730469 L 0 338.730469 L 0 365.691406 L 290.417969 365.691406 L 290.417969 338.730469 L 270.398438 338.730469 L 270.398438 189.785156 L 216.746094 189.785156 L 216.746094 338.730469 L 205.265625 338.730469 L 205.265625 189.519531 C 183.457031 188.277344 166.296875 170.273438 166.296875 148.144531 L 166.296875 89.953125 C 166.296875 84.726562 167.210938 79.871094 168.964844 75.273438 Z M 151.613281 75.273438 "/>
<path style=" stroke:none;fill-rule:nonzero;fill:rgb(0%,20%,40%);fill-opacity:1;" d="M 204.074219 44.417969 C 180.210938 44.417969 161.085938 63.542969 161.085938 87.40625 L 161.085938 148.039062 C 161.085938 171.902344 180.210938 191.027344 204.074219 191.027344 L 366.824219 191.027344 C 390.691406 191.027344 410 171.902344 410 148.039062 L 410 87.40625 C 410 63.542969 390.691406 44.417969 366.824219 44.417969 Z M 209.332031 52.117188 L 361.757812 52.117188 C 384.125 52.117188 402.117188 69.261719 402.117188 90.597656 L 402.117188 144.847656 C 402.117188 166.183594 384.125 183.332031 361.757812 183.332031 L 209.332031 183.332031 C 186.964844 183.332031 168.972656 166.183594 168.972656 144.847656 L 168.972656 90.597656 C 168.972656 69.261719 186.964844 52.117188 209.332031 52.117188 Z M 209.332031 52.117188 "/>
<path style=" stroke:none;fill-rule:nonzero;fill:rgb(0%,20%,40%);fill-opacity:1;" d="M 191.703125 153.410156 L 191.703125 82.039062 L 214.828125 82.039062 C 223.59375 82.039062 229.304688 82.394531 231.964844 83.109375 C 236.054688 84.179688 239.480469 86.507812 242.238281 90.09375 C 244.996094 93.679688 246.378906 98.3125 246.378906 103.992188 C 246.378906 108.375 245.582031 112.058594 243.992188 115.046875 C 242.402344 118.03125 240.378906 120.375 237.929688 122.082031 C 235.480469 123.785156 232.988281 124.910156 230.457031 125.464844 C 227.015625 126.144531 222.035156 126.484375 215.511719 126.484375 L 206.113281 126.484375 L 206.113281 153.410156 Z M 206.113281 94.109375 L 206.113281 114.363281 L 214.003906 114.363281 C 219.683594 114.363281 223.480469 113.992188 225.394531 113.242188 C 227.308594 112.496094 228.808594 111.328125 229.898438 109.738281 C 230.984375 108.148438 231.527344 106.296875 231.527344 104.1875 C 231.527344 101.59375 230.765625 99.449219 229.238281 97.761719 C 227.714844 96.074219 225.785156 95.019531 223.445312 94.597656 C 221.726562 94.273438 218.269531 94.109375 213.078125 94.109375 Z M 206.113281 94.109375 "/>
<path style=" stroke:none;fill-rule:nonzero;fill:rgb(0%,20%,40%);fill-opacity:1;" d="M 258.257812 82.039062 L 284.59375 82.039062 C 290.535156 82.039062 295.0625 82.492188 298.175781 83.402344 C 302.363281 84.632812 305.949219 86.824219 308.9375 89.972656 C 311.921875 93.121094 314.195312 96.976562 315.753906 101.535156 C 317.308594 106.09375 318.089844 111.71875 318.089844 118.40625 C 318.089844 124.277344 317.359375 129.34375 315.898438 133.59375 C 314.113281 138.785156 311.566406 142.988281 308.253906 146.203125 C 305.753906 148.636719 302.378906 150.535156 298.128906 151.898438 C 294.949219 152.90625 290.695312 153.410156 285.375 153.410156 L 258.257812 153.410156 Z M 272.667969 94.109375 L 272.667969 141.382812 L 283.425781 141.382812 C 287.449219 141.382812 290.355469 141.15625 292.140625 140.703125 C 294.476562 140.117188 296.417969 139.128906 297.957031 137.730469 C 299.5 136.335938 300.757812 134.039062 301.730469 130.84375 C 302.703125 127.644531 303.191406 123.289062 303.191406 117.773438 C 303.191406 112.253906 302.703125 108.019531 301.730469 105.066406 C 300.757812 102.113281 299.394531 99.808594 297.640625 98.152344 C 295.890625 96.496094 293.664062 95.375 290.972656 94.792969 C 288.960938 94.339844 285.015625 94.109375 279.140625 94.109375 Z M 272.667969 94.109375 "/>
<path style=" stroke:none;fill-rule:nonzero;fill:rgb(0%,20%,40%);fill-opacity:1;" d="M 330.453125 153.410156 L 330.453125 82.039062 L 379.382812 82.039062 L 379.382812 94.109375 L 344.867188 94.109375 L 344.867188 111.003906 L 374.660156 111.003906 L 374.660156 123.078125 L 344.867188 123.078125 L 344.867188 153.410156 Z M 330.453125 153.410156 "/>
</g>
</svg>
