<?xml version="1.0" encoding="UTF-8"?>
<svg xmlns="http://www.w3.org/2000/svg" xmlns:xlink="http://www.w3.org/1999/xlink" width="410pt" height="410pt" viewBox="0 0 410 410" version="1.1">
<g id="surface1">
<path style=" stroke:none;fill-rule:nonzero;fill:rgb(0%,20%,40%);fill-opacity:1;" d="M 148.125 116.316406 L 148.125 102.21875 L 184.542969 102.21875 L 184.542969 135.554688 C 181.003906 138.976562 175.875 141.996094 169.160156 144.601562 C 162.441406 147.207031 155.640625 148.511719 148.75 148.511719 C 140 148.511719 132.371094 146.675781 125.863281 143.003906 C 119.355469 139.332031 114.464844 134.078125 111.191406 127.25 C 107.917969 120.417969 106.285156 112.988281 106.285156 104.957031 C 106.285156 96.242188 108.109375 88.5 111.761719 81.726562 C 115.417969 74.953125 120.761719 69.757812 127.804688 66.140625 C 133.167969 63.363281 139.847656 61.976562 147.839844 61.976562 C 158.226562 61.976562 166.34375 64.152344 172.183594 68.511719 C 178.023438 72.867188 181.78125 78.890625 183.457031 86.578125 L 166.675781 89.71875 C 165.496094 85.605469 163.277344 82.363281 160.027344 79.984375 C 156.773438 77.605469 152.710938 76.417969 147.839844 76.417969 C 140.457031 76.417969 134.585938 78.757812 130.230469 83.4375 C 125.871094 88.117188 123.691406 95.0625 123.691406 104.273438 C 123.691406 114.203125 125.902344 121.652344 130.3125 126.621094 C 134.730469 131.585938 140.511719 134.070312 147.667969 134.070312 C 151.207031 134.070312 154.753906 133.375 158.3125 131.984375 C 161.871094 130.59375 164.925781 128.914062 167.472656 126.933594 L 167.472656 116.316406 Z M 148.125 116.316406 "/>
<path style=" stroke:none;fill-rule:nonzero;fill:rgb(0%,20%,40%);fill-opacity:1;" d="M 221.417969 147.085938 L 191.507812 63.402344 L 209.828125 63.402344 L 231.007812 125.335938 L 251.5 63.402344 L 269.421875 63.402344 L 239.453125 147.085938 Z M 221.417969 147.085938 "/>
<path style=" stroke:none;fill-rule:nonzero;fill:rgb(0%,20%,40%);fill-opacity:1;" d="M 277.640625 147.085938 L 277.640625 63.402344 L 294.539062 63.402344 L 294.539062 147.085938 Z M 277.640625 147.085938 "/>
<path style=" stroke:none;fill-rule:nonzero;fill:rgb(0%,20%,40%);fill-opacity:1;" d="M 303.328125 147.085938 L 303.328125 131.84375 L 347.28125 77.558594 L 308.292969 77.558594 L 308.292969 63.402344 L 369.542969 63.402344 L 369.542969 76.53125 L 323.707031 132.984375 L 371.3125 132.984375 L 371.3125 147.085938 Z M 303.328125 147.085938 "/>
<path style=" stroke:none;fill-rule:nonzero;fill:rgb(0%,20%,40%);fill-opacity:1;" d="M 117.179688 0 C 83.246094 0 56.054688 27.191406 56.054688 61.125 L 56.054688 147.34375 C 56.054688 181.277344 83.246094 208.46875 117.179688 208.46875 L 348.605469 208.46875 C 382.542969 208.46875 410 181.277344 410 147.34375 L 410 61.125 C 410 27.191406 382.542969 0 348.605469 0 Z M 124.65625 10.945312 L 341.398438 10.945312 C 373.203125 10.945312 398.789062 35.328125 398.789062 65.664062 L 398.789062 142.804688 C 398.789062 173.144531 373.203125 197.527344 341.398438 197.527344 L 124.65625 197.527344 C 92.851562 197.527344 67.265625 173.144531 67.265625 142.804688 L 67.265625 65.664062 C 67.265625 35.328125 92.851562 10.945312 124.65625 10.945312 Z M 124.65625 10.945312 "/>
<path style=" stroke:none;fill-rule:nonzero;fill:rgb(0%,20%,40%);fill-opacity:1;" d="M 223.578125 219.125 L 307.03125 219.125 L 307.03125 302.578125 L 223.578125 302.578125 Z M 223.578125 219.125 "/>
<path style=" stroke:none;fill-rule:nonzero;fill:rgb(0%,20%,40%);fill-opacity:1;" d="M 111.789062 219.125 L 195.242188 219.125 L 195.242188 302.578125 L 111.789062 302.578125 Z M 111.789062 219.125 "/>
<path style=" stroke:none;fill-rule:nonzero;fill:rgb(0%,20%,40%);fill-opacity:1;" d="M 0 219.125 L 83.453125 219.125 L 83.453125 302.578125 L 0 302.578125 Z M 0 219.125 "/>
<path style=" stroke:none;fill-rule:nonzero;fill:rgb(0%,20%,40%);fill-opacity:1;" d="M 0 111.605469 L 0 195.152344 L 78.210938 195.152344 C 64.605469 183.9375 56.054688 166.726562 56.054688 147.640625 L 56.054688 111.605469 Z M 0 111.605469 "/>
<path style=" stroke:none;fill-rule:nonzero;fill:rgb(0%,20%,40%);fill-opacity:1;" d="M 0 4.300781 L 0 87.847656 L 56.054688 87.847656 L 56.054688 61.421875 C 56.054688 39.996094 66.980469 21.378906 83.546875 10.441406 L 83.546875 4.300781 Z M 0 4.300781 "/>
<path style=" stroke:none;fill-rule:nonzero;fill:rgb(0%,20%,40%);fill-opacity:1;" d="M 223.578125 326.546875 L 307.03125 326.546875 L 307.03125 410 L 223.578125 410 Z M 223.578125 326.546875 "/>
<path style=" stroke:none;fill-rule:nonzero;fill:rgb(0%,20%,40%);fill-opacity:1;" d="M 111.789062 326.546875 L 195.242188 326.546875 L 195.242188 410 L 111.789062 410 Z M 111.789062 326.546875 "/>
<path style=" stroke:none;fill-rule:nonzero;fill:rgb(0%,20%,40%);fill-opacity:1;" d="M 0 326.546875 L 83.453125 326.546875 L 83.453125 410 L 0 410 Z M 0 326.546875 "/>
</g>
</svg>
