<?xml version="1.0" encoding="UTF-8"?>
<svg xmlns="http://www.w3.org/2000/svg" xmlns:xlink="http://www.w3.org/1999/xlink" width="410pt" height="410pt" viewBox="0 0 410 410" version="1.1">
<g id="surface1">
<path style=" stroke:none;fill-rule:evenodd;fill:rgb(0%,20%,40%);fill-opacity:1;" d="M 205.132812 -0.667969 C 91.515625 -0.667969 -0.667969 91.515625 -0.667969 205.132812 C -0.667969 318.75 91.515625 410.667969 205.132812 410.667969 C 318.75 410.667969 410.667969 318.75 410.667969 205.132812 C 410.667969 91.515625 318.75 -0.667969 205.132812 -0.667969 Z M 203.796875 69.800781 C 212.988281 70.003906 220.207031 73.015625 225.6875 78.875 C 231.164062 84.742188 234.097656 92.222656 234.226562 101.296875 C 234.023438 110.867188 231.101562 118.488281 225.417969 124.253906 C 219.738281 130.019531 212.515625 132.914062 203.796875 133.0625 C 195.257812 132.914062 188.089844 130.019531 182.445312 124.253906 C 176.800781 118.488281 173.847656 110.867188 173.636719 101.296875 C 173.847656 91.90625 176.800781 84.335938 182.445312 78.609375 C 188.089844 72.882812 195.257812 69.960938 203.796875 69.800781 Z M 226.488281 151.214844 L 232.894531 154.417969 L 232.894531 295.355469 C 232.585938 308.160156 233.730469 316.472656 236.363281 320.179688 C 238.996094 323.882812 244.957031 325.664062 254.246094 325.25 L 254.246094 340.464844 L 156.019531 340.464844 L 156.019531 325.25 C 166.332031 325.671875 172.75 323.921875 175.503906 320.179688 C 178.257812 316.4375 179.613281 308.066406 179.242188 295.085938 L 179.242188 212.074219 C 179.632812 199.15625 178.457031 191.101562 175.773438 187.78125 C 173.085938 184.464844 166.492188 183.03125 156.019531 183.511719 L 156.019531 169.097656 C 178.113281 167.710938 201.496094 161.65625 226.488281 151.214844 Z M 226.488281 151.214844 "/>
</g>
</svg>
