<?xml version="1.0" encoding="UTF-8"?>
<svg xmlns="http://www.w3.org/2000/svg" xmlns:xlink="http://www.w3.org/1999/xlink" width="410pt" height="410pt" viewBox="0 0 410 410" version="1.1">
<g id="surface1">
<path style=" stroke:none;fill-rule:nonzero;fill:rgb(0%,20%,40%);fill-opacity:1;" d="M 122.472656 63.476562 L 139.089844 63.476562 L 139.089844 115.757812 C 139.089844 122.59375 138.488281 127.851562 137.289062 131.535156 C 135.671875 136.339844 132.746094 140.199219 128.5 143.109375 C 124.257812 146.019531 118.660156 147.476562 111.710938 147.476562 C 103.5625 147.476562 97.289062 145.195312 92.894531 140.632812 C 88.5 136.066406 86.285156 129.375 86.246094 120.546875 L 101.964844 118.746094 C 102.140625 123.476562 102.847656 126.820312 104.050781 128.773438 C 105.855469 131.742188 108.59375 133.222656 112.273438 133.222656 C 115.992188 133.222656 118.621094 132.164062 120.164062 130.042969 C 121.703125 127.917969 122.472656 123.515625 122.472656 116.832031 Z M 122.472656 63.476562 "/>
<path style=" stroke:none;fill-rule:nonzero;fill:rgb(0%,20%,40%);fill-opacity:1;" d="M 152.667969 119.195312 L 168.894531 117.617188 C 169.871094 123.0625 171.851562 127.0625 174.835938 129.617188 C 177.824219 132.171875 181.851562 133.449219 186.921875 133.449219 C 192.292969 133.449219 196.339844 132.308594 199.0625 130.039062 C 201.785156 127.769531 203.148438 125.109375 203.148438 122.066406 C 203.148438 120.113281 202.574219 118.453125 201.425781 117.082031 C 200.28125 115.710938 198.28125 114.519531 195.425781 113.503906 C 193.472656 112.828125 189.023438 111.625 182.074219 109.898438 C 173.136719 107.683594 166.863281 104.960938 163.257812 101.730469 C 158.1875 97.183594 155.652344 91.644531 155.652344 85.109375 C 155.652344 80.902344 156.847656 76.96875 159.230469 73.308594 C 161.617188 69.644531 165.050781 66.855469 169.539062 64.941406 C 174.027344 63.027344 179.445312 62.066406 185.792969 62.066406 C 196.160156 62.066406 203.960938 64.339844 209.203125 68.882812 C 214.441406 73.429688 217.191406 79.496094 217.457031 87.082031 L 200.78125 87.8125 C 200.066406 83.570312 198.535156 80.515625 196.1875 78.660156 C 193.839844 76.796875 190.320312 75.871094 185.625 75.871094 C 180.78125 75.871094 176.988281 76.867188 174.246094 78.855469 C 172.476562 80.132812 171.597656 81.839844 171.597656 83.980469 C 171.597656 85.9375 172.421875 87.605469 174.078125 88.996094 C 176.179688 90.761719 181.289062 92.601562 189.402344 94.515625 C 197.511719 96.433594 203.511719 98.414062 207.402344 100.460938 C 211.289062 102.507812 214.332031 105.304688 216.527344 108.855469 C 218.726562 112.402344 219.824219 116.789062 219.824219 122.007812 C 219.824219 126.742188 218.507812 131.171875 215.878906 135.304688 C 213.25 139.4375 209.53125 142.507812 204.722656 144.515625 C 199.917969 146.527344 193.925781 147.53125 186.753906 147.53125 C 176.3125 147.53125 168.292969 145.117188 162.695312 140.292969 C 157.101562 135.464844 153.757812 128.433594 152.667969 119.191406 Z M 152.667969 119.195312 "/>
<path style=" stroke:none;fill-rule:nonzero;fill:rgb(0%,20%,40%);fill-opacity:1;" d="M 230.582031 105.28125 C 230.582031 96.867188 231.839844 89.804688 234.359375 84.097656 C 236.234375 79.890625 238.796875 76.117188 242.046875 72.773438 C 245.296875 69.429688 248.855469 66.953125 252.722656 65.335938 C 257.867188 63.160156 263.804688 62.070312 270.527344 62.070312 C 282.695312 62.070312 292.433594 65.84375 299.738281 73.394531 C 307.042969 80.941406 310.695312 91.441406 310.695312 104.886719 C 310.695312 118.21875 307.070312 128.652344 299.820312 136.179688 C 292.574219 143.710938 282.882812 147.476562 270.75 147.476562 C 258.46875 147.476562 248.703125 143.730469 241.457031 136.238281 C 234.207031 128.746094 230.582031 118.425781 230.582031 105.28125 Z M 247.765625 104.714844 C 247.765625 114.066406 249.925781 121.15625 254.246094 125.984375 C 258.5625 130.808594 264.046875 133.222656 270.695312 133.222656 C 277.34375 133.222656 282.796875 130.828125 287.0625 126.039062 C 291.324219 121.25 293.457031 114.066406 293.457031 104.492188 C 293.457031 95.027344 291.378906 87.964844 287.230469 83.308594 C 283.078125 78.648438 277.566406 76.320312 270.695312 76.320312 C 263.820312 76.320312 258.28125 78.679688 254.074219 83.390625 C 249.867188 88.105469 247.765625 95.214844 247.765625 104.714844 Z M 247.765625 104.714844 "/>
<path style=" stroke:none;fill-rule:nonzero;fill:rgb(0%,20%,40%);fill-opacity:1;" d="M 323.820312 146.066406 L 323.820312 63.476562 L 340.046875 63.476562 L 373.847656 118.632812 L 373.847656 63.476562 L 389.339844 63.476562 L 389.339844 146.066406 L 372.609375 146.066406 L 339.3125 92.210938 L 339.3125 146.066406 Z M 323.820312 146.066406 "/>
<path style=" stroke:none;fill-rule:nonzero;fill:rgb(0%,20%,40%);fill-opacity:1;" d="M 117.179688 0 C 83.246094 0 56.054688 27.191406 56.054688 61.125 L 56.054688 147.34375 C 56.054688 181.277344 83.246094 208.46875 117.179688 208.46875 L 348.605469 208.46875 C 382.542969 208.46875 410 181.277344 410 147.34375 L 410 61.125 C 410 27.191406 382.542969 0 348.605469 0 Z M 124.65625 10.945312 L 341.398438 10.945312 C 373.203125 10.945312 398.789062 35.328125 398.789062 65.664062 L 398.789062 142.804688 C 398.789062 173.144531 373.203125 197.527344 341.398438 197.527344 L 124.65625 197.527344 C 92.851562 197.527344 67.265625 173.144531 67.265625 142.804688 L 67.265625 65.664062 C 67.265625 35.328125 92.851562 10.945312 124.65625 10.945312 Z M 124.65625 10.945312 "/>
<path style=" stroke:none;fill-rule:nonzero;fill:rgb(0%,20%,40%);fill-opacity:1;" d="M 223.578125 219.125 L 307.03125 219.125 L 307.03125 302.578125 L 223.578125 302.578125 Z M 223.578125 219.125 "/>
<path style=" stroke:none;fill-rule:nonzero;fill:rgb(0%,20%,40%);fill-opacity:1;" d="M 111.789062 219.125 L 195.242188 219.125 L 195.242188 302.578125 L 111.789062 302.578125 Z M 111.789062 219.125 "/>
<path style=" stroke:none;fill-rule:nonzero;fill:rgb(0%,20%,40%);fill-opacity:1;" d="M 0 219.125 L 83.453125 219.125 L 83.453125 302.578125 L 0 302.578125 Z M 0 219.125 "/>
<path style=" stroke:none;fill-rule:nonzero;fill:rgb(0%,20%,40%);fill-opacity:1;" d="M 0 111.605469 L 0 195.152344 L 78.210938 195.152344 C 64.605469 183.9375 56.054688 166.726562 56.054688 147.640625 L 56.054688 111.605469 Z M 0 111.605469 "/>
<path style=" stroke:none;fill-rule:nonzero;fill:rgb(0%,20%,40%);fill-opacity:1;" d="M 0 4.300781 L 0 87.847656 L 56.054688 87.847656 L 56.054688 61.421875 C 56.054688 39.996094 66.980469 21.378906 83.546875 10.441406 L 83.546875 4.300781 Z M 0 4.300781 "/>
<path style=" stroke:none;fill-rule:nonzero;fill:rgb(0%,20%,40%);fill-opacity:1;" d="M 223.578125 326.546875 L 307.03125 326.546875 L 307.03125 410 L 223.578125 410 Z M 223.578125 326.546875 "/>
<path style=" stroke:none;fill-rule:nonzero;fill:rgb(0%,20%,40%);fill-opacity:1;" d="M 111.789062 326.546875 L 195.242188 326.546875 L 195.242188 410 L 111.789062 410 Z M 111.789062 326.546875 "/>
<path style=" stroke:none;fill-rule:nonzero;fill:rgb(0%,20%,40%);fill-opacity:1;" d="M 0 326.546875 L 83.453125 326.546875 L 83.453125 410 L 0 410 Z M 0 326.546875 "/>
</g>
</svg>
