<?xml version="1.0" encoding="UTF-8"?>
<svg xmlns="http://www.w3.org/2000/svg" xmlns:xlink="http://www.w3.org/1999/xlink" width="410pt" height="410pt" viewBox="0 0 410 410" version="1.1">
<g id="surface1">
<path style=" stroke:none;fill-rule:nonzero;fill:rgb(0%,20%,40%);fill-opacity:1;" d="M 1.066406 3.738281 L 1.066406 410 L 306.164062 410 L 306.164062 203.933594 L 120.917969 203.933594 C 105.992188 203.933594 92.386719 198.515625 81.945312 189.519531 L 65.929688 189.519531 L 65.929688 171.902344 L 68.066406 171.902344 C 63.84375 163.757812 61.394531 154.519531 61.394531 144.675781 L 61.394531 61.125 C 61.394531 33.550781 80.042969 10.484375 105.4375 3.738281 Z M 26.960938 171.902344 L 42.707031 171.902344 L 42.707031 189.519531 L 26.960938 189.519531 Z M 26.960938 208.738281 L 42.707031 208.738281 L 42.707031 226.355469 L 26.960938 226.355469 Z M 65.929688 208.738281 L 280.273438 208.738281 L 280.273438 226.355469 L 65.929688 226.355469 Z M 26.960938 245.839844 L 42.707031 245.839844 L 42.707031 263.191406 L 26.960938 263.191406 Z M 65.929688 245.839844 L 280.273438 245.839844 L 280.273438 263.191406 L 65.929688 263.191406 Z M 26.960938 282.675781 L 42.707031 282.675781 L 42.707031 300.027344 L 26.960938 300.027344 Z M 65.929688 282.675781 L 280.273438 282.675781 L 280.273438 300.027344 L 65.929688 300.027344 Z M 26.960938 319.511719 L 42.707031 319.511719 L 42.707031 337.128906 L 26.960938 337.128906 Z M 65.929688 319.511719 L 280.273438 319.511719 L 280.273438 337.128906 L 65.929688 337.128906 Z M 26.960938 356.347656 L 42.707031 356.347656 L 42.707031 373.964844 L 26.960938 373.964844 Z M 65.929688 356.347656 L 280.273438 356.347656 L 280.273438 373.964844 L 65.929688 373.964844 Z M 65.929688 356.347656 "/>
<path style=" stroke:none;fill-rule:nonzero;fill:rgb(0%,20%,40%);fill-opacity:1;" d="M 117.414062 65.640625 L 134.402344 65.640625 L 134.402344 119.085938 C 134.402344 126.074219 133.789062 131.449219 132.558594 135.210938 C 130.90625 140.125 127.914062 144.070312 123.574219 147.042969 C 119.238281 150.019531 113.515625 151.507812 106.414062 151.507812 C 98.082031 151.507812 91.671875 149.175781 87.179688 144.511719 C 82.6875 139.847656 80.421875 133.003906 80.382812 123.980469 L 96.449219 122.136719 C 96.640625 126.976562 97.351562 130.390625 98.582031 132.386719 C 100.425781 135.421875 103.226562 136.9375 106.988281 136.9375 C 110.789062 136.9375 113.476562 135.851562 115.050781 133.683594 C 116.625 131.515625 117.414062 127.011719 117.414062 120.179688 Z M 117.414062 65.640625 "/>
<path style=" stroke:none;fill-rule:nonzero;fill:rgb(0%,20%,40%);fill-opacity:1;" d="M 148.28125 122.597656 L 164.867188 120.984375 C 165.867188 126.550781 167.890625 130.640625 170.941406 133.25 C 173.996094 135.859375 178.113281 137.167969 183.296875 137.167969 C 188.785156 137.167969 192.921875 136.007812 195.707031 133.683594 C 198.488281 131.359375 199.882812 128.644531 199.882812 125.535156 C 199.882812 123.539062 199.296875 121.839844 198.125 120.4375 C 196.953125 119.035156 194.910156 117.816406 191.992188 116.78125 C 189.996094 116.089844 185.445312 114.859375 178.34375 113.09375 C 169.207031 110.828125 162.792969 108.046875 159.109375 104.742188 C 153.925781 100.097656 151.332031 94.433594 151.332031 87.753906 C 151.332031 83.457031 152.550781 79.433594 154.988281 75.691406 C 157.429688 71.945312 160.941406 69.097656 165.527344 67.136719 C 170.117188 65.179688 175.65625 64.203125 182.144531 64.203125 C 192.738281 64.203125 200.714844 66.523438 206.070312 71.171875 C 211.429688 75.816406 214.242188 82.015625 214.507812 89.773438 L 197.460938 90.519531 C 196.734375 86.183594 195.167969 83.0625 192.769531 81.164062 C 190.371094 79.261719 186.769531 78.3125 181.972656 78.3125 C 177.019531 78.3125 173.140625 79.328125 170.335938 81.363281 C 168.535156 82.667969 167.632812 84.417969 167.632812 86.605469 C 167.632812 88.601562 168.476562 90.308594 170.164062 91.730469 C 172.316406 93.535156 177.535156 95.417969 185.828125 97.375 C 194.121094 99.332031 200.253906 101.355469 204.230469 103.449219 C 208.203125 105.542969 211.3125 108.402344 213.558594 112.03125 C 215.804688 115.660156 216.929688 120.140625 216.929688 125.476562 C 216.929688 130.316406 215.585938 134.847656 212.898438 139.070312 C 210.207031 143.292969 206.40625 146.429688 201.492188 148.484375 C 196.578125 150.539062 190.457031 151.566406 183.121094 151.566406 C 172.449219 151.566406 164.253906 149.101562 158.53125 144.164062 C 152.8125 139.230469 149.394531 132.042969 148.28125 122.597656 Z M 148.28125 122.597656 "/>
<path style=" stroke:none;fill-rule:nonzero;fill:rgb(0%,20%,40%);fill-opacity:1;" d="M 227.925781 108.375 C 227.925781 99.773438 229.214844 92.554688 231.785156 86.71875 C 233.707031 82.417969 236.324219 78.5625 239.648438 75.144531 C 242.96875 71.726562 246.605469 69.191406 250.558594 67.542969 C 255.820312 65.3125 261.886719 64.203125 268.757812 64.203125 C 281.199219 64.203125 291.152344 68.058594 298.617188 75.777344 C 306.085938 83.496094 309.820312 94.226562 309.820312 107.96875 C 309.820312 121.601562 306.113281 132.261719 298.707031 139.960938 C 291.296875 147.660156 281.390625 151.507812 268.988281 151.507812 C 256.433594 151.507812 246.453125 147.679688 239.042969 140.019531 C 231.632812 132.359375 227.925781 121.8125 227.925781 108.375 Z M 245.492188 107.796875 C 245.492188 117.355469 247.699219 124.605469 252.117188 129.535156 C 256.53125 134.46875 262.136719 136.9375 268.929688 136.9375 C 275.726562 136.9375 281.304688 134.488281 285.660156 129.59375 C 290.019531 124.699219 292.199219 117.355469 292.199219 107.566406 C 292.199219 97.890625 290.078125 90.675781 285.832031 85.914062 C 281.589844 81.152344 275.957031 78.773438 268.929688 78.773438 C 261.90625 78.773438 256.242188 81.183594 251.941406 86 C 247.640625 90.816406 245.492188 98.082031 245.492188 107.796875 Z M 245.492188 107.796875 "/>
<path style=" stroke:none;fill-rule:nonzero;fill:rgb(0%,20%,40%);fill-opacity:1;" d="M 323.238281 150.066406 L 323.238281 65.640625 L 339.824219 65.640625 L 374.378906 122.023438 L 374.378906 65.640625 L 390.214844 65.640625 L 390.214844 150.066406 L 373.109375 150.066406 L 339.074219 95.011719 L 339.074219 150.066406 Z M 323.238281 150.066406 "/>
<path style=" stroke:none;fill-rule:nonzero;fill:rgb(0%,20%,40%);fill-opacity:1;" d="M 120.941406 0 C 87.441406 0 60.597656 28.144531 60.597656 63.265625 L 60.597656 152.503906 C 60.597656 187.625 87.441406 215.769531 120.941406 215.769531 L 349.394531 215.769531 C 382.894531 215.769531 410 187.625 410 152.503906 L 410 63.265625 C 410 28.144531 382.894531 0 349.394531 0 Z M 128.316406 11.328125 L 342.28125 11.328125 C 373.675781 11.328125 398.933594 36.5625 398.933594 67.964844 L 398.933594 147.804688 C 398.933594 179.203125 373.675781 204.441406 342.28125 204.441406 L 128.316406 204.441406 C 96.921875 204.441406 71.664062 179.203125 71.664062 147.804688 L 71.664062 67.964844 C 71.664062 36.5625 96.921875 11.328125 128.316406 11.328125 Z M 128.316406 11.328125 "/>
</g>
</svg>
