<?xml version="1.0" encoding="UTF-8"?>
<svg xmlns="http://www.w3.org/2000/svg" xmlns:xlink="http://www.w3.org/1999/xlink" width="410pt" height="410pt" viewBox="0 0 410 410" version="1.1">
<g id="surface1">
<path style=" stroke:none;fill-rule:nonzero;fill:rgb(0%,20%,40%);fill-opacity:1;" d="M 192.515625 42.902344 C 167.3125 42.902344 147.117188 63.097656 147.117188 88.300781 L 147.117188 152.335938 C 147.117188 177.539062 167.3125 197.734375 192.515625 197.734375 L 364.402344 197.734375 C 389.605469 197.734375 410 177.539062 410 152.335938 L 410 88.300781 C 410 63.097656 389.605469 42.902344 364.402344 42.902344 Z M 198.070312 51.027344 L 359.050781 51.027344 C 382.671875 51.027344 401.671875 69.140625 401.671875 91.671875 L 401.671875 148.964844 C 401.671875 171.496094 382.671875 189.609375 359.050781 189.609375 L 198.070312 189.609375 C 174.445312 189.609375 155.445312 171.496094 155.445312 148.964844 L 155.445312 91.671875 C 155.445312 69.140625 174.445312 51.027344 198.070312 51.027344 Z M 198.070312 51.027344 "/>
<path style=" stroke:none;fill-rule:nonzero;fill:rgb(0%,20%,40%);fill-opacity:1;" d="M 153.484375 60.398438 C 68.757812 60.398438 0 128.890625 0 213.617188 C 0 298.34375 68.757812 367.097656 153.484375 367.097656 C 238.207031 367.097656 306.964844 298.34375 306.964844 213.617188 C 306.964844 207.761719 306.535156 201.949219 305.898438 196.265625 L 296.023438 196.265625 C 295.621094 200.070312 294.914062 204.019531 293.886719 208.011719 C 285.28125 241.347656 243.632812 230.5 237.832031 222.957031 C 233.320312 217.09375 233.9375 202.472656 229.023438 196.265625 L 217.8125 196.265625 C 212.398438 203.359375 213.171875 221.019531 207.136719 220.554688 C 199.59375 219.984375 183.839844 202.582031 178.039062 203.738281 C 172.238281 204.902344 168.410156 213.6875 175.371094 219.488281 C 182.332031 225.289062 184.332031 222.066406 192.453125 223.226562 C 200.574219 224.386719 206.179688 242.167969 198.058594 245.648438 C 189.621094 260.457031 188.371094 279.726562 178.839844 292.625 C 175.679688 298.5625 167.730469 310.375 165.226562 312.378906 C 159.425781 317.019531 147.609375 322.523438 147.609375 322.523438 C 147.609375 322.523438 137.707031 327.359375 131.328125 316.917969 C 124.945312 306.476562 137.902344 268.945312 129.191406 257.925781 C 120.488281 246.902344 109.878906 236.433594 84.617188 232.300781 C 85.296875 223.910156 78.214844 219.195312 79.011719 211.746094 C 80.304688 205.941406 86.605469 190.476562 89.6875 189.859375 C 101.289062 187.539062 130.644531 176.039062 135.867188 185.320312 C 141.085938 194.601562 162.375 207.589844 164.695312 199.46875 C 165.75 195.765625 168.140625 189.980469 169.765625 184.519531 C 164.574219 179.714844 160.660156 173.742188 158.289062 166.902344 C 147.773438 161.90625 133.847656 154.507812 129.992188 158.363281 C 124.769531 163.582031 122.003906 175.6875 106.238281 175.710938 C 93.78125 175.734375 89.769531 171.914062 92.089844 162.632812 C 94.410156 153.351562 88.179688 146.617188 100.363281 146.617188 C 112.546875 146.617188 121.71875 146.425781 121.71875 138.875 L 129.460938 121.792969 C 136.03125 122.273438 135.648438 110.257812 154.816406 107.378906 C 154.40625 106.539062 154.765625 106.082031 155.886719 106.042969 L 155.886719 91.097656 C 155.886719 79.332031 160.394531 68.78125 167.898438 60.933594 C 163.164062 60.492188 158.332031 60.398438 153.484375 60.398438 Z M 121.183594 106.042969 C 123.796875 104.925781 124.082031 109.242188 122.785156 112.183594 L 122.785156 118.589844 C 123.3125 120.367188 121.667969 120.5625 117.714844 120.191406 C 113.398438 111.3125 117.316406 107.6875 121.183594 106.042969 Z M 66.199219 202.9375 C 68.832031 202.515625 72.023438 203.03125 73.671875 204.808594 C 73.125 207.738281 71.109375 206.222656 68.601562 208.542969 C 61.210938 204.378906 62.597656 205.769531 63.796875 203.738281 C 64.421875 203.4375 65.320312 203.078125 66.199219 202.9375 Z M 193.253906 285.417969 C 193.78125 285.128906 194.222656 285.167969 194.324219 285.417969 C 195.59375 285.628906 193.210938 293.097656 191.121094 291.824219 C 189.242188 289.210938 191.679688 286.292969 193.253906 285.417969 Z M 193.253906 285.417969 "/>
<path style=" stroke:none;fill-rule:nonzero;fill:rgb(0%,20%,40%);fill-opacity:1;" d="M 169.886719 158.035156 L 169.886719 82.601562 L 185.117188 82.601562 L 185.117188 116.097656 L 215.886719 82.601562 L 236.367188 82.601562 L 207.964844 111.984375 L 237.910156 158.035156 L 218.203125 158.035156 L 197.46875 122.632812 L 185.117188 135.242188 L 185.117188 158.035156 Z M 169.886719 158.035156 "/>
<path style=" stroke:none;fill-rule:nonzero;fill:rgb(0%,20%,40%);fill-opacity:1;" d="M 245.628906 158.035156 L 245.628906 82.601562 L 268.421875 82.601562 L 282.109375 134.058594 L 295.640625 82.601562 L 318.488281 82.601562 L 318.488281 158.035156 L 304.335938 158.035156 L 304.335938 98.65625 L 289.363281 158.035156 L 274.699219 158.035156 L 259.777344 98.65625 L 259.777344 158.035156 Z M 245.628906 158.035156 "/>
<path style=" stroke:none;fill-rule:nonzero;fill:rgb(0%,20%,40%);fill-opacity:1;" d="M 334.128906 158.035156 L 334.128906 83.21875 L 349.359375 83.21875 L 349.359375 145.324219 L 387.230469 145.324219 L 387.230469 158.035156 Z M 334.128906 158.035156 "/>
</g>
</svg>
