<?xml version="1.0" encoding="UTF-8"?>
<svg xmlns="http://www.w3.org/2000/svg" xmlns:xlink="http://www.w3.org/1999/xlink" width="410pt" height="410pt" viewBox="0 0 410 410" version="1.1">
<g id="surface1">
<path style=" stroke:none;fill-rule:nonzero;fill:rgb(0%,0%,0%);fill-opacity:1;" d="M 370.195312 95.667969 C 391.925781 95.667969 409.523438 78.097656 409.523438 56.339844 C 409.523438 34.585938 391.917969 17.007812 370.195312 17.007812 C 348.472656 17.007812 330.871094 34.585938 330.871094 56.339844 C 330.871094 65.976562 334.457031 74.6875 340.214844 81.53125 L 287.972656 160.71875 C 284.136719 159.464844 280.082031 158.609375 275.820312 158.609375 C 254.089844 158.609375 236.492188 176.1875 236.492188 197.945312 C 236.492188 199.59375 236.773438 201.164062 236.980469 202.777344 L 163.761719 235.136719 C 156.550781 226.875 146.0625 221.535156 134.222656 221.535156 C 112.503906 221.535156 94.890625 239.125 94.890625 260.878906 C 94.890625 268.320312 97.074219 275.203125 100.671875 281.125 L 31.945312 360.5 L 31.46875 0 L 0 0 L 0.46875 410 L 410 410 L 410 378.53125 L 47.542969 378.53125 L 118.292969 296.761719 C 123.171875 298.941406 128.542969 300.179688 134.199219 300.179688 C 155.917969 300.179688 173.53125 282.59375 173.53125 260.84375 C 173.53125 259.460938 173.25 258.136719 173.121094 256.753906 L 246.734375 224.210938 C 253.917969 232.171875 264.21875 237.246094 275.800781 237.246094 C 297.523438 237.246094 315.128906 219.667969 315.128906 197.910156 C 315.128906 189.050781 312.113281 180.988281 307.183594 174.421875 L 360.117188 94.179688 C 363.335938 95.050781 366.695312 95.667969 370.195312 95.667969 "/>
</g>
</svg>
