<?xml version="1.0" encoding="UTF-8"?>
<svg xmlns="http://www.w3.org/2000/svg" xmlns:xlink="http://www.w3.org/1999/xlink" width="410pt" height="410pt" viewBox="0 0 410 410" version="1.1">
<g id="surface1">
<path style=" stroke:none;fill-rule:nonzero;fill:rgb(0%,20%,40%);fill-opacity:1;" d="M 0 90.222656 L 0 383.574219 L 293.351562 383.574219 L 293.351562 200.460938 L 227.957031 200.460938 L 227.957031 320.847656 L 196.457031 320.847656 L 196.457031 200.460938 L 193.523438 200.460938 L 163.09375 320.847656 L 130.261719 320.847656 L 97.160156 188.71875 L 97.160156 320.847656 L 65.664062 320.847656 L 65.664062 152.949219 L 115.578125 152.949219 C 115.382812 151.074219 115.3125 149.269531 115.3125 147.34375 L 115.3125 90.222656 Z M 121.71875 172.703125 L 146.808594 267.460938 L 164.425781 200.195312 C 145.890625 199.140625 130.082031 188.433594 121.71875 172.703125 Z M 121.71875 172.703125 "/>
<path style=" stroke:none;fill-rule:nonzero;fill:rgb(0%,20%,40%);fill-opacity:1;" d="M 161.835938 77.898438 L 176.265625 77.898438 L 176.265625 123.292969 C 176.265625 129.226562 175.742188 133.792969 174.699219 136.988281 C 173.296875 141.164062 170.753906 144.511719 167.070312 147.042969 C 163.382812 149.566406 158.523438 150.832031 152.492188 150.832031 C 145.414062 150.832031 139.96875 148.851562 136.15625 144.886719 C 132.339844 140.925781 130.414062 135.113281 130.382812 127.449219 L 144.03125 125.886719 C 144.183594 129.996094 144.796875 132.898438 145.839844 134.59375 C 147.402344 137.167969 149.785156 138.457031 152.980469 138.457031 C 156.210938 138.457031 158.492188 137.535156 159.828125 135.695312 C 161.167969 133.851562 161.835938 130.027344 161.835938 124.222656 Z M 161.835938 77.898438 "/>
<path style=" stroke:none;fill-rule:nonzero;fill:rgb(0%,20%,40%);fill-opacity:1;" d="M 188.054688 126.277344 L 202.144531 124.90625 C 202.988281 129.632812 204.710938 133.109375 207.304688 135.324219 C 209.894531 137.542969 213.394531 138.652344 217.796875 138.652344 C 222.457031 138.652344 225.972656 137.664062 228.335938 135.691406 C 230.699219 133.71875 231.882812 131.410156 231.882812 128.769531 C 231.882812 127.074219 231.386719 125.632812 230.390625 124.441406 C 229.394531 123.253906 227.660156 122.214844 225.179688 121.335938 C 223.484375 120.75 219.621094 119.703125 213.589844 118.203125 C 205.828125 116.28125 200.378906 113.917969 197.25 111.113281 C 192.847656 107.167969 190.648438 102.355469 190.648438 96.683594 C 190.648438 93.03125 191.683594 89.613281 193.753906 86.433594 C 195.820312 83.253906 198.808594 80.832031 202.703125 79.171875 C 206.601562 77.507812 211.304688 76.675781 216.816406 76.675781 C 225.816406 76.675781 232.589844 78.648438 237.140625 82.59375 C 241.691406 86.539062 244.078125 91.804688 244.304688 98.394531 L 229.828125 99.027344 C 229.207031 95.34375 227.878906 92.695312 225.839844 91.078125 C 223.800781 89.464844 220.746094 88.660156 216.667969 88.660156 C 212.460938 88.660156 209.167969 89.523438 206.789062 91.25 C 205.253906 92.359375 204.488281 93.84375 204.488281 95.703125 C 204.488281 97.398438 205.207031 98.847656 206.644531 100.054688 C 208.46875 101.589844 212.90625 103.1875 219.949219 104.847656 C 226.992188 106.511719 232.203125 108.234375 235.578125 110.011719 C 238.953125 111.789062 241.59375 114.214844 243.5 117.296875 C 245.410156 120.378906 246.363281 124.1875 246.363281 128.71875 C 246.363281 132.828125 245.222656 136.675781 242.9375 140.265625 C 240.65625 143.851562 237.425781 146.515625 233.253906 148.261719 C 229.078125 150.007812 223.878906 150.878906 217.648438 150.878906 C 208.582031 150.878906 201.621094 148.785156 196.761719 144.59375 C 191.902344 140.402344 189 134.296875 188.054688 126.273438 Z M 188.054688 126.277344 "/>
<path style=" stroke:none;fill-rule:nonzero;fill:rgb(0%,20%,40%);fill-opacity:1;" d="M 255.703125 114.195312 C 255.703125 106.890625 256.796875 100.757812 258.984375 95.800781 C 260.613281 92.148438 262.839844 88.871094 265.660156 85.96875 C 268.480469 83.066406 271.570312 80.914062 274.929688 79.511719 C 279.394531 77.621094 284.546875 76.675781 290.386719 76.675781 C 300.953125 76.675781 309.40625 79.953125 315.75 86.507812 C 322.089844 93.0625 325.261719 102.175781 325.261719 113.851562 C 325.261719 125.429688 322.117188 134.484375 315.820312 141.023438 C 309.527344 147.5625 301.113281 150.832031 290.582031 150.832031 C 279.917969 150.832031 271.4375 147.578125 265.144531 141.074219 C 258.851562 134.566406 255.703125 125.609375 255.703125 114.195312 Z M 270.625 113.703125 C 270.625 121.824219 272.5 127.980469 276.25 132.171875 C 280 136.359375 284.761719 138.457031 290.53125 138.457031 C 296.304688 138.457031 301.042969 136.375 304.742188 132.21875 C 308.445312 128.0625 310.292969 121.824219 310.292969 113.507812 C 310.292969 105.289062 308.492188 99.160156 304.890625 95.117188 C 301.285156 91.074219 296.5 89.050781 290.53125 89.050781 C 284.566406 89.050781 279.753906 91.097656 276.101562 95.191406 C 272.449219 99.28125 270.625 105.453125 270.625 113.703125 Z M 270.625 113.703125 "/>
<path style=" stroke:none;fill-rule:nonzero;fill:rgb(0%,20%,40%);fill-opacity:1;" d="M 336.660156 149.609375 L 336.660156 77.898438 L 350.746094 77.898438 L 380.097656 125.789062 L 380.097656 77.898438 L 393.546875 77.898438 L 393.546875 149.609375 L 379.019531 149.609375 L 350.113281 102.847656 L 350.113281 149.609375 Z M 336.660156 149.609375 "/>
<path style=" stroke:none;fill-rule:nonzero;fill:rgb(0%,20%,40%);fill-opacity:1;" d="M 165.496094 27.519531 C 137.160156 27.519531 114.453125 50.226562 114.453125 78.5625 L 114.453125 150.554688 C 114.453125 178.890625 137.160156 201.59375 165.496094 201.59375 L 358.738281 201.59375 C 387.070312 201.59375 410 178.890625 410 150.554688 L 410 78.5625 C 410 50.226562 387.070312 27.519531 358.738281 27.519531 Z M 171.734375 36.660156 L 352.71875 36.660156 C 379.277344 36.660156 400.640625 57.019531 400.640625 82.351562 L 400.640625 146.765625 C 400.640625 172.097656 379.277344 192.457031 352.71875 192.457031 L 171.734375 192.457031 C 145.179688 192.457031 123.816406 172.097656 123.816406 146.765625 L 123.816406 82.351562 C 123.816406 57.019531 145.179688 36.660156 171.734375 36.660156 Z M 171.734375 36.660156 "/>
</g>
</svg>
