<?xml version="1.0" encoding="UTF-8"?>
<svg xmlns="http://www.w3.org/2000/svg" xmlns:xlink="http://www.w3.org/1999/xlink" width="410pt" height="410pt" viewBox="0 0 410 410" version="1.1">
<g id="surface1">
<path style=" stroke:none;fill-rule:nonzero;fill:rgb(0%,20%,40%);fill-opacity:1;" d="M 142.34375 155.046875 L 171.753906 111.167969 L 145.105469 70.960938 L 165.414062 70.960938 L 182.675781 97.976562 L 199.582031 70.960938 L 219.714844 70.960938 L 192.949219 111.800781 L 222.355469 155.046875 L 201.402344 155.046875 L 182.320312 125.96875 L 163.183594 155.046875 Z M 142.34375 155.046875 "/>
<path style=" stroke:none;fill-rule:nonzero;fill:rgb(0%,20%,40%);fill-opacity:1;" d="M 231.164062 155.046875 L 231.164062 70.960938 L 257.167969 70.960938 L 272.78125 128.320312 L 288.222656 70.960938 L 314.285156 70.960938 L 314.285156 155.046875 L 298.140625 155.046875 L 298.140625 88.855469 L 281.058594 155.046875 L 264.328125 155.046875 L 247.304688 88.855469 L 247.304688 155.046875 Z M 231.164062 155.046875 "/>
<path style=" stroke:none;fill-rule:nonzero;fill:rgb(0%,20%,40%);fill-opacity:1;" d="M 332.132812 155.046875 L 332.132812 71.648438 L 349.507812 71.648438 L 349.507812 140.878906 L 392.710938 140.878906 L 392.710938 155.046875 Z M 332.132812 155.046875 "/>
<path style=" stroke:none;fill-rule:nonzero;fill:rgb(0%,20%,40%);fill-opacity:1;" d="M 0 87.515625 L 0 380.867188 L 293.351562 380.867188 L 293.351562 197.753906 L 227.957031 197.753906 L 227.957031 318.140625 L 196.457031 318.140625 L 196.457031 197.753906 L 193.523438 197.753906 L 163.09375 318.140625 L 130.261719 318.140625 L 97.160156 186.011719 L 97.160156 318.140625 L 65.664062 318.140625 L 65.664062 150.242188 L 115.578125 150.242188 C 115.382812 148.367188 115.3125 146.566406 115.3125 144.636719 L 115.3125 87.515625 Z M 121.71875 169.996094 L 146.808594 264.753906 L 164.425781 197.488281 C 145.890625 196.4375 130.082031 185.726562 121.71875 169.996094 Z M 121.71875 169.996094 "/>
<path style=" stroke:none;fill-rule:nonzero;fill:rgb(0%,20%,40%);fill-opacity:1;" d="M 165.496094 24.816406 C 137.160156 24.816406 114.453125 47.519531 114.453125 75.855469 L 114.453125 147.847656 C 114.453125 176.183594 137.160156 198.886719 165.496094 198.886719 L 358.738281 198.886719 C 387.070312 198.886719 410 176.183594 410 147.847656 L 410 75.855469 C 410 47.519531 387.070312 24.816406 358.738281 24.816406 Z M 171.734375 33.953125 L 352.71875 33.953125 C 379.277344 33.953125 400.640625 54.3125 400.640625 79.644531 L 400.640625 144.058594 C 400.640625 169.390625 379.277344 189.75 352.71875 189.75 L 171.734375 189.75 C 145.179688 189.75 123.816406 169.390625 123.816406 144.058594 L 123.816406 79.644531 C 123.816406 54.3125 145.179688 33.953125 171.734375 33.953125 Z M 171.734375 33.953125 "/>
</g>
</svg>
