<?xml version="1.0" encoding="UTF-8"?>
<svg xmlns="http://www.w3.org/2000/svg" xmlns:xlink="http://www.w3.org/1999/xlink" width="410pt" height="410pt" viewBox="0 0 410 410" version="1.1">
<defs>
<filter id="alpha" filterUnits="objectBoundingBox" x="0%" y="0%" width="100%" height="100%">
  <feColorMatrix type="matrix" in="SourceGraphic" values="0 0 0 0 1 0 0 0 0 1 0 0 0 0 1 0 0 0 1 0"/>
</filter>
<mask id="mask0">
  <g filter="url(#alpha)">
<rect x="0" y="0" width="410" height="410" style="fill:rgb(0%,0%,0%);fill-opacity:0.501961;stroke:none;"/>
  </g>
</mask>
<clipPath id="clip2">
  <path d="M 194.734375 198.082031 L 211.234375 198.082031 L 211.234375 214.59375 L 194.734375 214.59375 Z M 194.734375 198.082031 "/>
</clipPath>
<clipPath id="clip1">
  <rect width="410" height="410"/>
</clipPath>
<g id="surface6" clip-path="url(#clip1)">
<g clip-path="url(#clip2)" clip-rule="nonzero">
<path style=" stroke:none;fill-rule:nonzero;fill:rgb(0%,0%,0%);fill-opacity:1;" d="M 194.734375 198.082031 L 211.234375 198.082031 L 211.234375 214.59375 L 194.734375 214.59375 Z M 194.734375 198.082031 "/>
</g>
</g>
</defs>
<g id="surface1">
<path style=" stroke:none;fill-rule:nonzero;fill:rgb(0%,0%,0%);fill-opacity:1;" d="M 204.734375 0 C 91.878906 0 0 91.871094 0 204.734375 C 0 317.59375 91.878906 409.464844 204.734375 409.464844 C 317.59375 409.464844 409.464844 317.59375 409.464844 204.734375 C 409.464844 91.871094 317.59375 0 204.734375 0 Z M 194.855469 49.914062 L 194.855469 148.679688 L 211.140625 148.679688 L 211.140625 49.914062 C 293.675781 54.09375 355.097656 115.511719 359.285156 198.058594 L 260.789062 198.058594 L 260.789062 214.609375 L 359.285156 214.34375 C 355.117188 296.871094 293.6875 355.105469 211.140625 359.285156 L 211.140625 264.257812 L 194.855469 264.257812 L 194.855469 359.285156 C 112.320312 355.105469 54.09375 297.148438 49.914062 214.609375 L 145.207031 214.609375 L 145.207031 198.058594 L 49.914062 198.058594 C 54.09375 115.511719 112.320312 54.09375 194.855469 49.914062 Z M 194.855469 49.914062 "/>
<use xlink:href="#surface6" mask="url(#mask0)"/>
</g>
</svg>
