<?xml version="1.0" encoding="UTF-8"?>
<svg xmlns="http://www.w3.org/2000/svg" xmlns:xlink="http://www.w3.org/1999/xlink" width="410pt" height="410pt" viewBox="0 0 410 410" version="1.1">
<g id="surface1">
<path style=" stroke:none;fill-rule:nonzero;fill:rgb(0%,20%,40%);fill-opacity:1;" d="M 192.515625 44.265625 C 167.3125 44.265625 147.117188 64.460938 147.117188 89.664062 L 147.117188 153.699219 C 147.117188 178.902344 167.3125 199.101562 192.515625 199.101562 L 364.402344 199.101562 C 389.605469 199.101562 410 178.902344 410 153.699219 L 410 89.664062 C 410 64.460938 389.605469 44.265625 364.402344 44.265625 Z M 198.070312 52.394531 L 359.050781 52.394531 C 382.671875 52.394531 401.671875 70.503906 401.671875 93.035156 L 401.671875 150.328125 C 401.671875 172.859375 382.671875 190.972656 359.050781 190.972656 L 198.070312 190.972656 C 174.445312 190.972656 155.445312 172.859375 155.445312 150.328125 L 155.445312 93.035156 C 155.445312 70.503906 174.445312 52.394531 198.070312 52.394531 Z M 198.070312 52.394531 "/>
<path style=" stroke:none;fill-rule:nonzero;fill:rgb(0%,20%,40%);fill-opacity:1;" d="M 153.484375 61.761719 C 68.757812 61.761719 0 130.253906 0 214.980469 C 0 299.707031 68.757812 368.460938 153.484375 368.460938 C 238.207031 368.460938 306.964844 299.707031 306.964844 214.980469 C 306.964844 209.125 306.535156 203.3125 305.898438 197.628906 L 296.023438 197.628906 C 295.621094 201.433594 294.917969 205.386719 293.886719 209.375 C 285.28125 242.710938 243.632812 231.863281 237.832031 224.320312 C 233.320312 218.460938 233.9375 203.835938 229.023438 197.628906 L 217.8125 197.628906 C 212.398438 204.722656 213.171875 222.382812 207.136719 221.917969 C 199.59375 221.351562 183.839844 203.945312 178.039062 205.101562 C 172.238281 206.265625 168.410156 215.050781 175.371094 220.851562 C 182.332031 226.652344 184.332031 223.429688 192.453125 224.589844 C 200.574219 225.75 206.179688 243.53125 198.058594 247.011719 C 189.621094 261.820312 188.371094 281.089844 178.839844 293.988281 C 175.679688 299.925781 167.730469 311.738281 165.226562 313.742188 C 159.425781 318.382812 147.609375 323.886719 147.609375 323.886719 C 147.609375 323.886719 137.707031 328.722656 131.328125 318.28125 C 124.945312 307.839844 137.902344 270.3125 129.191406 259.289062 C 120.488281 248.269531 109.878906 237.796875 84.617188 233.664062 C 85.296875 225.273438 78.214844 220.558594 79.011719 213.109375 C 80.304688 207.304688 86.605469 191.839844 89.6875 191.222656 C 101.289062 188.902344 130.644531 177.402344 135.867188 186.683594 C 141.085938 195.964844 162.375 208.953125 164.695312 200.832031 C 165.75 197.128906 168.140625 191.34375 169.765625 185.882812 C 164.574219 181.078125 160.660156 175.105469 158.289062 168.265625 C 147.773438 163.269531 133.847656 155.875 129.992188 159.726562 C 124.769531 164.945312 122.003906 177.050781 106.238281 177.074219 C 93.78125 177.097656 89.769531 173.277344 92.089844 163.996094 C 94.410156 154.714844 88.179688 147.980469 100.363281 147.980469 C 112.546875 147.980469 121.71875 147.789062 121.71875 140.238281 L 129.460938 123.15625 C 136.03125 123.636719 135.648438 111.621094 154.816406 108.742188 C 154.40625 107.902344 154.765625 107.445312 155.886719 107.40625 L 155.886719 92.460938 C 155.886719 80.695312 160.394531 70.144531 167.898438 62.296875 C 163.164062 61.859375 158.332031 61.761719 153.484375 61.761719 Z M 121.183594 107.40625 C 123.796875 106.289062 124.082031 110.605469 122.785156 113.546875 L 122.785156 119.953125 C 123.3125 121.730469 121.667969 121.929688 117.714844 121.554688 C 113.398438 112.675781 117.316406 109.050781 121.183594 107.40625 Z M 66.199219 204.300781 C 68.832031 203.878906 72.023438 204.394531 73.671875 206.171875 C 73.125 209.101562 71.109375 207.585938 68.601562 209.90625 C 61.210938 205.742188 62.597656 207.132812 63.796875 205.101562 C 64.421875 204.800781 65.320312 204.441406 66.199219 204.300781 Z M 193.253906 286.78125 C 193.78125 286.492188 194.222656 286.53125 194.324219 286.78125 C 195.59375 286.992188 193.210938 294.460938 191.121094 293.1875 C 189.242188 290.574219 191.679688 287.65625 193.253906 286.78125 Z M 193.253906 286.78125 "/>
<path style=" stroke:none;fill-rule:nonzero;fill:rgb(0%,20%,40%);fill-opacity:1;" d="M 178 134.121094 L 192.023438 132.757812 C 192.867188 137.464844 194.578125 140.921875 197.160156 143.128906 C 199.738281 145.335938 203.21875 146.4375 207.601562 146.4375 C 212.242188 146.4375 215.738281 145.457031 218.09375 143.492188 C 220.445312 141.527344 221.621094 139.234375 221.621094 136.605469 C 221.621094 134.917969 221.128906 133.480469 220.136719 132.296875 C 219.148438 131.109375 217.417969 130.082031 214.953125 129.203125 C 213.265625 128.621094 209.417969 127.582031 203.414062 126.089844 C 195.691406 124.171875 190.269531 121.820312 187.152344 119.027344 C 182.773438 115.101562 180.582031 110.316406 180.582031 104.667969 C 180.582031 101.03125 181.613281 97.632812 183.671875 94.46875 C 185.734375 91.304688 188.703125 88.894531 192.582031 87.238281 C 196.460938 85.582031 201.144531 84.753906 206.628906 84.753906 C 215.585938 84.753906 222.328125 86.71875 226.855469 90.644531 C 231.382812 94.574219 233.761719 99.816406 233.988281 106.371094 L 219.578125 107.003906 C 218.960938 103.335938 217.636719 100.699219 215.609375 99.09375 C 213.582031 97.484375 210.539062 96.683594 206.480469 96.683594 C 202.296875 96.683594 199.015625 97.542969 196.648438 99.261719 C 195.121094 100.367188 194.359375 101.84375 194.359375 103.691406 C 194.359375 105.382812 195.074219 106.824219 196.5 108.027344 C 198.320312 109.550781 202.734375 111.140625 209.742188 112.796875 C 216.753906 114.453125 221.9375 116.164062 225.296875 117.933594 C 228.65625 119.703125 231.285156 122.121094 233.183594 125.1875 C 235.082031 128.253906 236.03125 132.042969 236.03125 136.554688 C 236.03125 140.644531 234.898438 144.472656 232.625 148.042969 C 230.351562 151.613281 227.140625 154.269531 222.984375 156.003906 C 218.832031 157.742188 213.65625 158.609375 207.457031 158.609375 C 198.433594 158.609375 191.503906 156.523438 186.667969 152.351562 C 181.832031 148.183594 178.941406 142.105469 178 134.121094 Z M 178 134.121094 "/>
<path style=" stroke:none;fill-rule:nonzero;fill:rgb(0%,20%,40%);fill-opacity:1;" d="M 266.460938 157.34375 L 240.949219 85.972656 L 256.578125 85.972656 L 274.640625 138.792969 L 292.117188 85.972656 L 307.402344 85.972656 L 281.84375 157.34375 Z M 266.460938 157.34375 "/>
<path style=" stroke:none;fill-rule:nonzero;fill:rgb(0%,20%,40%);fill-opacity:1;" d="M 348.054688 131.101562 L 348.054688 119.078125 L 379.117188 119.078125 L 379.117188 147.507812 C 376.097656 150.429688 371.722656 153.003906 365.996094 155.226562 C 360.265625 157.449219 354.464844 158.558594 348.589844 158.558594 C 341.125 158.558594 334.617188 156.996094 329.070312 153.863281 C 323.519531 150.730469 319.347656 146.25 316.558594 140.425781 C 313.765625 134.601562 312.371094 128.261719 312.371094 121.414062 C 312.371094 113.980469 313.929688 107.378906 317.042969 101.601562 C 320.160156 95.824219 324.71875 91.390625 330.722656 88.308594 C 335.300781 85.941406 340.996094 84.753906 347.8125 84.753906 C 356.671875 84.753906 363.59375 86.613281 368.574219 90.328125 C 373.558594 94.046875 376.761719 99.183594 378.191406 105.738281 L 363.878906 108.414062 C 362.871094 104.910156 360.980469 102.144531 358.207031 100.113281 C 355.429688 98.085938 351.964844 97.074219 347.8125 97.074219 C 341.515625 97.074219 336.507812 99.070312 332.792969 103.058594 C 329.078125 107.050781 327.21875 112.976562 327.21875 120.832031 C 327.21875 129.300781 329.101562 135.65625 332.867188 139.890625 C 336.632812 144.125 341.5625 146.242188 347.667969 146.242188 C 350.683594 146.242188 353.710938 145.652344 356.746094 144.464844 C 359.78125 143.28125 362.386719 141.84375 364.558594 140.15625 L 364.558594 131.101562 Z M 348.054688 131.101562 "/>
</g>
</svg>
