<?xml version="1.0" encoding="UTF-8"?>
<svg xmlns="http://www.w3.org/2000/svg" xmlns:xlink="http://www.w3.org/1999/xlink" width="410pt" height="410pt" viewBox="0 0 410 410" version="1.1">
<g id="surface1">
<path style=" stroke:none;fill-rule:nonzero;fill:rgb(0%,0%,0%);fill-opacity:1;" d="M 290.554688 85.238281 L 367.539062 85.238281 L 281.996094 -0.316406 L 281.996094 76.679688 C 281.996094 81.375 285.839844 85.238281 290.554688 85.238281 "/>
<path style=" stroke:none;fill-rule:nonzero;fill:rgb(0%,0%,0%);fill-opacity:1;" d="M 110.914062 129.722656 L 155.015625 119.027344 L 172.125 90.679688 L 196.457031 129.722656 L 196.457031 68.128906 L 110.914062 68.128906 Z M 136.367188 79.523438 C 144.320312 79.523438 150.769531 85.953125 150.769531 93.925781 C 150.769531 101.902344 144.320312 108.332031 136.367188 108.332031 C 128.433594 108.332031 121.964844 101.902344 121.964844 93.925781 C 121.964844 85.945312 128.433594 79.523438 136.367188 79.523438 "/>
<path style=" stroke:none;fill-rule:nonzero;fill:rgb(0%,0%,0%);fill-opacity:1;" d="M 264.886719 93.777344 L 264.886719 -0.324219 L 51.019531 -0.324219 C 46.3125 -0.324219 42.46875 3.527344 42.46875 8.226562 L 42.46875 401.75 C 42.46875 406.457031 46.320312 410.308594 51.019531 410.308594 L 358.980469 410.308594 C 363.695312 410.308594 367.53125 406.457031 367.53125 401.75 L 367.53125 341.871094 L 128.015625 341.871094 C 118.601562 341.871094 110.90625 334.148438 110.90625 324.753906 L 110.90625 239.199219 C 110.90625 229.804688 118.601562 222.082031 128.015625 222.082031 L 367.539062 222.082031 L 367.539062 102.328125 L 273.4375 102.328125 C 268.730469 102.328125 264.886719 98.503906 264.886719 93.777344 M 213.558594 146.183594 C 213.558594 150.308594 210.21875 153.65625 206.066406 153.65625 L 101.269531 153.65625 C 97.128906 153.65625 93.796875 150.308594 93.796875 146.183594 L 93.796875 58.5 C 93.796875 54.375 97.136719 51.027344 101.269531 51.027344 L 206.066406 51.027344 C 210.226562 51.027344 213.558594 54.386719 213.558594 58.5 Z M 213.558594 146.183594 "/>
<path style=" stroke:none;fill-rule:nonzero;fill:rgb(0%,0%,0%);fill-opacity:1;" d="M 247.777344 239.21875 L 247.777344 256.316406 L 230.667969 256.316406 L 230.667969 324.753906 L 213.558594 324.753906 L 213.558594 239.21875 Z M 247.777344 256.316406 L 264.886719 256.316406 L 264.886719 324.753906 L 247.777344 324.753906 Z M 247.777344 256.316406 "/>
<path style=" stroke:none;fill-rule:nonzero;fill:rgb(0%,0%,0%);fill-opacity:1;" d="M 281.996094 324.753906 L 333.3125 324.753906 L 333.3125 273.4375 L 316.210938 273.4375 L 316.210938 307.652344 L 299.105469 307.652344 L 299.105469 256.316406 L 333.3125 256.316406 L 333.3125 239.21875 L 281.996094 239.21875 Z M 281.996094 324.753906 "/>
<path style=" stroke:none;fill-rule:nonzero;fill:rgb(0%,0%,0%);fill-opacity:1;" d="M 145.121094 239.21875 L 145.121094 324.753906 L 162.230469 324.753906 L 162.230469 307.652344 L 179.339844 307.652344 L 196.449219 290.535156 L 196.449219 256.316406 L 179.339844 239.21875 Z M 162.230469 256.316406 L 179.339844 256.316406 L 179.339844 290.535156 L 162.230469 290.535156 Z M 162.230469 256.316406 "/>
</g>
</svg>
