<?xml version="1.0" encoding="UTF-8"?>
<svg xmlns="http://www.w3.org/2000/svg" xmlns:xlink="http://www.w3.org/1999/xlink" width="410pt" height="410pt" viewBox="0 0 410 410" version="1.1">
<g id="surface1">
<path style=" stroke:none;fill-rule:nonzero;fill:rgb(0%,20%,40%);fill-opacity:1;" d="M 117.179688 0 C 83.246094 0 56.054688 27.191406 56.054688 61.125 L 56.054688 147.34375 C 56.054688 181.277344 83.246094 208.46875 117.179688 208.46875 L 348.605469 208.46875 C 382.542969 208.46875 410 181.277344 410 147.34375 L 410 61.125 C 410 27.191406 382.542969 0 348.605469 0 Z M 124.65625 10.945312 L 341.398438 10.945312 C 373.203125 10.945312 398.789062 35.328125 398.789062 65.664062 L 398.789062 142.804688 C 398.789062 173.144531 373.203125 197.527344 341.398438 197.527344 L 124.65625 197.527344 C 92.851562 197.527344 67.265625 173.144531 67.265625 142.804688 L 67.265625 65.664062 C 67.265625 35.328125 92.851562 10.945312 124.65625 10.945312 Z M 124.65625 10.945312 "/>
<path style=" stroke:none;fill-rule:nonzero;fill:rgb(0%,20%,40%);fill-opacity:1;" d="M 223.578125 218.828125 L 307.03125 218.828125 L 307.03125 302.28125 L 223.578125 302.28125 Z M 223.578125 218.828125 "/>
<path style=" stroke:none;fill-rule:nonzero;fill:rgb(0%,20%,40%);fill-opacity:1;" d="M 111.789062 218.828125 L 195.242188 218.828125 L 195.242188 302.28125 L 111.789062 302.28125 Z M 111.789062 218.828125 "/>
<path style=" stroke:none;fill-rule:nonzero;fill:rgb(0%,20%,40%);fill-opacity:1;" d="M 0 218.828125 L 83.453125 218.828125 L 83.453125 302.28125 L 0 302.28125 Z M 0 218.828125 "/>
<path style=" stroke:none;fill-rule:nonzero;fill:rgb(0%,20%,40%);fill-opacity:1;" d="M 0 111.308594 L 0 194.855469 L 78.210938 194.855469 C 64.605469 183.640625 56.054688 166.433594 56.054688 147.34375 L 56.054688 111.308594 Z M 0 111.308594 "/>
<path style=" stroke:none;fill-rule:nonzero;fill:rgb(0%,20%,40%);fill-opacity:1;" d="M 0 4.003906 L 0 87.550781 L 56.054688 87.550781 L 56.054688 61.125 C 56.054688 39.703125 66.980469 21.082031 83.546875 10.144531 L 83.546875 4.003906 Z M 0 4.003906 "/>
<path style=" stroke:none;fill-rule:nonzero;fill:rgb(0%,20%,40%);fill-opacity:1;" d="M 223.578125 326.25 L 307.03125 326.25 L 307.03125 409.703125 L 223.578125 409.703125 Z M 223.578125 326.25 "/>
<path style=" stroke:none;fill-rule:nonzero;fill:rgb(0%,20%,40%);fill-opacity:1;" d="M 111.789062 326.25 L 195.242188 326.25 L 195.242188 409.703125 L 111.789062 409.703125 Z M 111.789062 326.25 "/>
<path style=" stroke:none;fill-rule:nonzero;fill:rgb(0%,20%,40%);fill-opacity:1;" d="M 0 326.25 L 83.453125 326.25 L 83.453125 409.703125 L 0 409.703125 Z M 0 326.25 "/>
<path style=" stroke:none;fill-rule:nonzero;fill:rgb(0%,20%,40%);fill-opacity:1;" d="M 145.1875 154.242188 L 145.1875 54.496094 L 177.507812 54.496094 C 189.753906 54.496094 197.738281 54.992188 201.457031 55.992188 C 207.171875 57.488281 211.957031 60.746094 215.8125 65.757812 C 219.667969 70.769531 221.597656 77.246094 221.597656 85.183594 C 221.597656 91.304688 220.484375 96.453125 218.261719 100.628906 C 216.039062 104.800781 213.214844 108.078125 209.792969 110.460938 C 206.367188 112.839844 202.886719 114.417969 199.347656 115.1875 C 194.539062 116.140625 187.578125 116.617188 178.460938 116.617188 L 165.328125 116.617188 L 165.328125 154.242188 Z M 165.328125 71.371094 L 165.328125 99.671875 L 176.351562 99.671875 C 184.289062 99.671875 189.59375 99.152344 192.273438 98.109375 C 194.949219 97.0625 197.046875 95.429688 198.566406 93.210938 C 200.085938 90.988281 200.84375 88.402344 200.84375 85.453125 C 200.84375 81.824219 199.78125 78.832031 197.648438 76.472656 C 195.515625 74.113281 192.816406 72.640625 189.550781 72.050781 C 187.144531 71.59375 182.316406 71.371094 175.058594 71.371094 Z M 165.328125 71.371094 "/>
<path style=" stroke:none;fill-rule:nonzero;fill:rgb(0%,20%,40%);fill-opacity:1;" d="M 228.128906 154.242188 L 262.214844 102.191406 L 231.328125 54.496094 L 254.867188 54.496094 L 274.871094 86.542969 L 294.46875 54.496094 L 317.804688 54.496094 L 286.777344 102.9375 L 320.867188 154.242188 L 296.574219 154.242188 L 274.464844 119.746094 L 252.28125 154.242188 Z M 228.128906 154.242188 "/>
</g>
</svg>
