<?xml version="1.0" encoding="UTF-8"?>
<svg xmlns="http://www.w3.org/2000/svg" xmlns:xlink="http://www.w3.org/1999/xlink" width="410pt" height="410pt" viewBox="0 0 410 410" version="1.1">
<g id="surface1">
<path style=" stroke:none;fill-rule:nonzero;fill:rgb(0%,20%,40%);fill-opacity:1;" d="M 138.210938 302.160156 L 123.097656 328.359375 C 123.097656 328.359375 187.132812 381.496094 273.234375 335.914062 C 356.886719 291.628906 346.285156 176.207031 346.285156 176.207031 L 402.207031 177.71875 C 402.207031 177.71875 417.875 334.726562 284.820312 392.34375 C 176.371094 439.304688 96.398438 377.730469 96.398438 377.730469 L 79.265625 408.464844 L 21.328125 301.65625 Z M 138.210938 302.160156 "/>
<path style=" stroke:none;fill-rule:nonzero;fill:rgb(0%,20%,40%);fill-opacity:1;" d="M 271.789062 107.839844 L 286.902344 81.640625 C 286.902344 81.640625 222.867188 28.503906 136.765625 74.085938 C 53.113281 118.371094 63.714844 233.792969 63.714844 233.792969 L 7.792969 232.28125 C 7.792969 232.28125 -7.875 75.273438 125.179688 17.65625 C 233.628906 -29.304688 313.601562 32.269531 313.601562 32.269531 L 330.734375 1.535156 L 388.671875 108.34375 Z M 271.789062 107.839844 "/>
</g>
</svg>
