<?xml version="1.0" encoding="UTF-8"?>
<svg xmlns="http://www.w3.org/2000/svg" xmlns:xlink="http://www.w3.org/1999/xlink" width="410pt" height="410pt" viewBox="0 0 410 410" version="1.1">
<g id="surface1">
<path style=" stroke:none;fill-rule:nonzero;fill:rgb(0%,0%,0%);fill-opacity:1;" d="M 165.226562 0 C 74.097656 0 0 74.132812 0 165.226562 C 0 256.351562 74.097656 330.457031 165.226562 330.457031 C 198.121094 330.457031 228.84375 320.6875 254.648438 304.03125 L 356.882812 406.261719 C 360.28125 409.679688 365.777344 409.679688 369.160156 406.261719 L 406.261719 369.160156 C 409.707031 365.761719 409.707031 360.308594 406.261719 356.882812 L 304.03125 254.648438 C 320.667969 228.851562 330.457031 198.15625 330.457031 165.226562 C 330.445312 74.132812 256.316406 0 165.226562 0 Z M 165.226562 52.585938 C 227.410156 52.585938 277.871094 103.085938 277.871094 165.226562 C 277.871094 227.410156 227.410156 277.871094 165.226562 277.871094 C 103.042969 277.871094 52.585938 227.410156 52.585938 165.226562 C 52.585938 103.085938 103.042969 52.585938 165.226562 52.585938 Z M 165.226562 52.585938 "/>
</g>
</svg>
