<?xml version="1.0" encoding="UTF-8"?>
<svg xmlns="http://www.w3.org/2000/svg" xmlns:xlink="http://www.w3.org/1999/xlink" width="410pt" height="410pt" viewBox="0 0 410 410" version="1.1">
<g id="surface1">
<path style=" stroke:none;fill-rule:nonzero;fill:rgb(0%,0%,0%);fill-opacity:1;" d="M 290.152344 85.792969 L 366.777344 85.792969 L 281.644531 0.648438 L 281.644531 77.285156 C 281.644531 81.957031 285.460938 85.792969 290.152344 85.792969 "/>
<path style=" stroke:none;fill-rule:nonzero;fill:rgb(0%,0%,0%);fill-opacity:1;" d="M 111.339844 136.878906 L 128.371094 136.878906 L 128.371094 153.914062 L 111.339844 153.914062 Z M 111.339844 136.878906 "/>
<path style=" stroke:none;fill-rule:nonzero;fill:rgb(0%,0%,0%);fill-opacity:1;" d="M 264.613281 94.308594 L 264.613281 0.648438 L 51.738281 0.648438 C 47.054688 0.648438 43.222656 4.484375 43.222656 9.164062 L 43.222656 400.84375 C 43.222656 405.53125 47.054688 409.351562 51.738281 409.351562 L 358.261719 409.351562 C 362.953125 409.351562 366.769531 405.53125 366.769531 400.84375 L 366.769531 341.230469 L 128.363281 341.230469 C 119.003906 341.230469 111.332031 333.578125 111.332031 324.199219 L 111.332031 239.0625 C 111.332031 229.683594 118.992188 222.03125 128.363281 222.03125 L 366.769531 222.03125 L 366.769531 102.824219 L 273.121094 102.824219 C 268.429688 102.824219 264.613281 98.988281 264.613281 94.308594 M 213.507812 102.824219 L 179.460938 102.824219 L 145.394531 136.890625 L 145.394531 170.945312 L 94.308594 170.945312 L 94.308594 119.855469 L 128.363281 119.855469 L 162.429688 85.792969 L 162.429688 51.738281 L 213.507812 51.738281 Z M 213.507812 102.824219 "/>
<path style=" stroke:none;fill-rule:nonzero;fill:rgb(0%,0%,0%);fill-opacity:1;" d="M 179.460938 68.761719 L 196.492188 68.761719 L 196.492188 85.792969 L 179.460938 85.792969 Z M 179.460938 68.761719 "/>
<path style=" stroke:none;fill-rule:nonzero;fill:rgb(0%,0%,0%);fill-opacity:1;" d="M 145.394531 307.183594 L 145.394531 324.199219 L 179.460938 324.199219 L 196.484375 307.183594 L 196.484375 290.152344 L 179.460938 290.152344 L 179.460938 307.183594 Z M 145.394531 307.183594 "/>
<path style=" stroke:none;fill-rule:nonzero;fill:rgb(0%,0%,0%);fill-opacity:1;" d="M 162.429688 273.121094 L 179.460938 273.121094 L 179.460938 290.152344 L 162.429688 290.152344 Z M 162.429688 273.121094 "/>
<path style=" stroke:none;fill-rule:nonzero;fill:rgb(0%,0%,0%);fill-opacity:1;" d="M 145.394531 256.078125 L 145.394531 273.121094 L 162.429688 273.121094 L 162.429688 256.078125 L 196.484375 256.078125 L 196.484375 239.0625 L 162.429688 239.0625 Z M 145.394531 256.078125 "/>
<path style=" stroke:none;fill-rule:nonzero;fill:rgb(0%,0%,0%);fill-opacity:1;" d="M 281.644531 324.199219 L 332.722656 324.199219 L 332.722656 273.121094 L 315.691406 273.121094 L 315.691406 307.183594 L 298.660156 307.183594 L 298.660156 256.078125 L 332.722656 256.078125 L 332.722656 239.0625 L 281.644531 239.0625 Z M 281.644531 324.199219 "/>
<path style=" stroke:none;fill-rule:nonzero;fill:rgb(0%,0%,0%);fill-opacity:1;" d="M 247.570312 239.0625 L 264.605469 239.0625 L 264.605469 307.183594 L 247.570312 307.183594 Z M 247.570312 239.0625 "/>
<path style=" stroke:none;fill-rule:nonzero;fill:rgb(0%,0%,0%);fill-opacity:1;" d="M 230.539062 239.0625 L 213.507812 239.0625 L 213.507812 324.199219 L 247.570312 324.199219 L 247.570312 307.183594 L 230.539062 307.183594 Z M 230.539062 239.0625 "/>
</g>
</svg>
