<?xml version="1.0" encoding="UTF-8"?>
<svg xmlns="http://www.w3.org/2000/svg" xmlns:xlink="http://www.w3.org/1999/xlink" width="410pt" height="410pt" viewBox="0 0 410 410" version="1.1">
<g id="surface1">
<path style=" stroke:none;fill-rule:nonzero;fill:rgb(0%,0%,0%);fill-opacity:1;" d="M 375.996094 170.910156 L 273.453125 170.910156 L 273.453125 119.632812 L 375.996094 119.632812 Z M 375.996094 239.269531 L 273.453125 239.269531 L 273.453125 188.003906 L 375.996094 188.003906 Z M 375.996094 307.628906 L 273.453125 307.628906 L 273.453125 256.359375 L 375.996094 256.359375 Z M 375.996094 375.996094 L 273.453125 375.996094 L 273.453125 324.730469 L 375.996094 324.730469 Z M 153.808594 375.996094 L 153.808594 324.730469 L 256.351562 324.730469 L 256.351562 375.996094 Z M 34.183594 375.996094 L 34.183594 324.730469 L 136.726562 324.730469 L 136.726562 375.996094 Z M 34.183594 256.359375 L 136.726562 256.359375 L 136.726562 307.628906 L 34.183594 307.628906 Z M 34.183594 187.992188 L 136.726562 187.992188 L 136.726562 239.261719 L 34.183594 239.261719 Z M 256.359375 170.910156 L 153.808594 170.910156 L 153.808594 119.632812 L 256.351562 119.632812 L 256.351562 170.910156 Z M 153.808594 239.269531 L 153.808594 188.003906 L 256.351562 188.003906 L 256.351562 239.269531 Z M 256.359375 256.359375 L 256.359375 307.628906 L 153.808594 307.628906 L 153.808594 256.359375 Z M 34.183594 119.632812 L 136.726562 119.632812 L 136.726562 170.910156 L 34.183594 170.910156 Z M 358.914062 0 L 51.277344 0 C 23.078125 0 0 23.078125 0 51.277344 L 0 358.914062 C 0 387.117188 23.078125 410.179688 51.277344 410.179688 L 358.914062 410.179688 C 387.117188 410.179688 410.179688 387.117188 410.179688 358.914062 L 410.179688 51.277344 C 410.179688 23.078125 387.109375 0 358.914062 0 Z M 358.914062 0 "/>
</g>
</svg>
