<?xml version="1.0" encoding="UTF-8" standalone="no"?>
<svg
   xmlns:dc="http://purl.org/dc/elements/1.1/"
   xmlns:cc="http://creativecommons.org/ns#"
   xmlns:rdf="http://www.w3.org/1999/02/22-rdf-syntax-ns#"
   xmlns:svg="http://www.w3.org/2000/svg"
   xmlns="http://www.w3.org/2000/svg"
   xmlns:sodipodi="http://sodipodi.sourceforge.net/DTD/sodipodi-0.dtd"
   xmlns:inkscape="http://www.inkscape.org/namespaces/inkscape"
   width="410pt"
   height="410pt"
   viewBox="0 0 410 410"
   version="1.1"
   id="svg2"
   inkscape:version="0.48.2 r9819"
   sodipodi:docname="tuenti.svg">
  <metadata
     id="metadata65">
    <rdf:RDF>
      <cc:Work
         rdf:about="">
        <dc:format>image/svg+xml</dc:format>
        <dc:type
           rdf:resource="http://purl.org/dc/dcmitype/StillImage" />
      </cc:Work>
    </rdf:RDF>
  </metadata>
  <defs
     id="defs63" />
  <sodipodi:namedview
     pagecolor="#ffffff"
     bordercolor="#666666"
     borderopacity="1"
     objecttolerance="10"
     gridtolerance="10"
     guidetolerance="10"
     inkscape:pageopacity="0"
     inkscape:pageshadow="2"
     inkscape:window-width="640"
     inkscape:window-height="480"
     id="namedview61"
     showgrid="false"
     inkscape:zoom="0.4604878"
     inkscape:cx="256.25"
     inkscape:cy="256.25"
     inkscape:window-x="0"
     inkscape:window-y="0"
     inkscape:window-maximized="0"
     inkscape:current-layer="svg2" />
  <path
     style="fill:#003366;fill-opacity:1;fill-rule:nonzero;stroke:none"
     d="M 41.96875 2.90625 C 18.794922 2.90625 6.7075974e-017 21.669921 0 44.84375 L 0 470.53125 C 0 493.70508 18.794922 512.5 41.96875 512.5 L 467.65625 512.5 C 490.83008 512.5 509.59375 493.70507 509.59375 470.53125 L 509.59375 44.84375 C 509.59375 21.669921 490.83008 2.90625 467.65625 2.90625 L 41.96875 2.90625 z M 177.6875 52.625 L 331.90625 52.625 C 401.80859 52.625 458.34765 106.91797 458.09375 175.0625 L 457.9375 461.75 L 177.6875 462.78125 C 107.78516 463.09864 51.5 408.15919 51.5 340.3125 L 51.5 175.0625 C 51.5 107.2207 107.78516 52.625 177.6875 52.625 z M 276.46875 153.34375 C 284.29102 165.30176 290.77929 179.84277 295.90625 196.9375 C 301.0332 214.03223 303.68945 233.99707 303.875 256.84375 C 303.68456 279.83204 301.0332 299.98633 295.90625 317.28125 C 290.77929 334.57129 284.29102 349.15625 276.46875 361.03125 L 300.28125 361.03125 C 307.81054 350.88964 314.58495 337.26074 320.625 320.15625 C 326.66015 303.05664 329.9209 282.02344 330.375 257.0625 C 330.12109 231.95996 326.9043 210.8457 320.78125 193.6875 C 314.6582 176.52441 307.83984 163.06543 300.28125 153.34375 L 276.46875 153.34375 z M 227.0625 179.28125 C 221.23241 179.28125 216.51952 181.37305 212.90625 185.25 C 209.28809 189.10743 207.41993 194.07715 207.3125 200.15625 C 207.376 206.03515 209.11522 210.93456 212.5625 214.875 C 216.00976 218.82031 220.83691 220.875 227.0625 221.03125 C 233.083 221.03125 237.85059 218.90528 241.3125 215.0625 C 244.7793 211.2002 246.55176 206.23046 246.625 200.15625 C 246.52737 193.88184 244.7295 188.86816 241.21875 185.09375 C 237.71289 181.31932 232.98535 179.38379 227.0625 179.28125 z M 245.9375 263.90625 L 212.25 266.625 C 210.50684 277.5332 208.11719 289.04394 205.03125 301.1875 C 201.94531 313.32616 198.50978 324.63476 194.75 335.09375 L 216.53125 333.0625 C 222.00976 323.92188 227.3291 313.18261 232.5 300.84375 C 237.66603 288.50487 242.14355 276.19141 245.9375 263.90625 z "
     transform="scale(0.8,0.8)"
     id="path53" />
</svg>
