<?xml version="1.0" encoding="UTF-8" standalone="no"?>
<svg
   xmlns:dc="http://purl.org/dc/elements/1.1/"
   xmlns:cc="http://creativecommons.org/ns#"
   xmlns:rdf="http://www.w3.org/1999/02/22-rdf-syntax-ns#"
   xmlns:svg="http://www.w3.org/2000/svg"
   xmlns="http://www.w3.org/2000/svg"
   xmlns:sodipodi="http://sodipodi.sourceforge.net/DTD/sodipodi-0.dtd"
   xmlns:inkscape="http://www.inkscape.org/namespaces/inkscape"
   width="410pt"
   height="410pt"
   viewBox="0 0 410 410"
   version="1.1"
   id="svg2"
   inkscape:version="0.48.2 r9819"
   sodipodi:docname="twitter.svg">
  <metadata
     id="metadata37">
    <rdf:RDF>
      <cc:Work
         rdf:about="">
        <dc:format>image/svg+xml</dc:format>
        <dc:type
           rdf:resource="http://purl.org/dc/dcmitype/StillImage" />
      </cc:Work>
    </rdf:RDF>
  </metadata>
  <defs
     id="defs35" />
  <sodipodi:namedview
     pagecolor="#ffffff"
     bordercolor="#666666"
     borderopacity="1"
     objecttolerance="10"
     gridtolerance="10"
     guidetolerance="10"
     inkscape:pageopacity="0"
     inkscape:pageshadow="2"
     inkscape:window-width="640"
     inkscape:window-height="480"
     id="namedview33"
     showgrid="false"
     inkscape:zoom="0.4604878"
     inkscape:cx="256.25"
     inkscape:cy="256.25"
     inkscape:window-x="0"
     inkscape:window-y="0"
     inkscape:window-maximized="0"
     inkscape:current-layer="svg2" />
  <path
     style="fill:#003366;fill-opacity:1;fill-rule:nonzero;stroke:none"
     d="M 42.3125 0 C 18.943359 0 5.7399948e-017 18.938476 0 42.3125 L 0 471.625 C 0 494.99903 18.943359 513.9375 42.3125 513.9375 L 471.625 513.9375 C 494.99903 513.9375 513.9375 494.99902 513.9375 471.625 L 513.9375 42.3125 C 513.9375 18.938476 494.99903 -5.4689212e-017 471.625 0 L 42.3125 0 z M 326.1875 101.65625 C 361.67256 101.16442 381.96875 123.4375 381.96875 123.4375 L 434.5625 110.5625 L 402.34375 152.40625 L 447.4375 141.6875 L 404.5 180.3125 C 404.5 180.3125 410.93652 251.11621 375.53125 310.125 C 340.12109 369.13867 284.30761 410.16309 221.03125 412.0625 C 113.73633 415.28027 66.53125 378.8125 66.53125 378.8125 C 66.53125 378.8125 104.70215 381.82129 129.84375 373.4375 C 168.47168 360.56153 172.75 343.40625 172.75 343.40625 C 172.75 343.40625 145.92578 346.63671 130.90625 329.46875 C 115.88183 312.30078 101.9375 291.90625 101.9375 291.90625 L 145.78125 292.90625 C 136.87429 292.40683 112.171 289.08337 96.5625 268.28125 C 77.246094 242.53418 78.3125 213.5625 78.3125 213.5625 L 123.375 231.8125 C 123.375 231.8125 84.753906 210.33203 81.53125 179.21875 C 78.313476 148.10059 86.90625 107.34375 86.90625 107.34375 C 86.90625 107.34375 103.0166 157.77051 158.8125 178.15625 C 214.60351 198.542 246.78125 195.3125 246.78125 195.3125 C 246.78125 195.3125 245.41113 126.66797 292.90625 108.40625 C 305.11053 103.71188 316.25168 101.79396 326.1875 101.65625 z "
     transform="scale(0.8,0.8)"
     id="path29" />
</svg>
