<?xml version="1.0" encoding="UTF-8"?>
<svg xmlns="http://www.w3.org/2000/svg" xmlns:xlink="http://www.w3.org/1999/xlink" width="410pt" height="410pt" viewBox="0 0 410 410" version="1.1">
<g id="surface1">
<path style=" stroke:none;fill-rule:nonzero;fill:rgb(0%,0%,0%);fill-opacity:1;" d="M 295.363281 265.527344 L 295.363281 315.242188 C 295.363281 325.394531 287.054688 333.699219 276.902344 333.699219 L 55.378906 333.699219 C 45.226562 333.699219 36.921875 325.394531 36.921875 315.242188 L 36.921875 93.71875 C 36.921875 83.566406 45.226562 75.257812 55.378906 75.257812 L 252 75.257812 L 284.0625 43.195312 C 276.070312 40.203125 267.488281 38.339844 258.441406 38.339844 L 73.839844 38.339844 C 33.136719 38.339844 0 71.457031 0 112.179688 L 0 296.78125 C 0 337.503906 33.136719 370.621094 73.839844 370.621094 L 258.441406 370.621094 C 299.144531 370.621094 332.28125 337.503906 332.28125 296.78125 L 332.28125 228.609375 Z M 295.363281 265.527344 "/>
<path style=" stroke:none;fill-rule:nonzero;fill:rgb(0%,0%,0%);fill-opacity:1;" d="M 404.644531 83.640625 C 408.320312 87.257812 408.335938 93.238281 404.683594 96.894531 L 201.546875 300.011719 C 197.910156 303.667969 191.929688 303.667969 188.273438 300.011719 L 79.433594 191.171875 C 75.796875 187.535156 75.796875 181.550781 79.433594 177.878906 L 122.519531 134.8125 C 126.15625 131.15625 132.136719 131.15625 135.792969 134.8125 L 188.292969 187.292969 C 191.929688 190.929688 197.910156 190.929688 201.585938 187.292969 L 347.972656 40.921875 C 351.628906 37.269531 357.609375 37.25 361.300781 40.886719 Z M 404.644531 83.640625 "/>
</g>
</svg>
