<?xml version="1.0" encoding="UTF-8"?>
<svg xmlns="http://www.w3.org/2000/svg" xmlns:xlink="http://www.w3.org/1999/xlink" width="410pt" height="410pt" viewBox="0 0 410 410" version="1.1">
<g id="surface1">
<path style=" stroke:none;fill-rule:nonzero;fill:rgb(0%,20%,40%);fill-opacity:1;" d="M 27.492188 101.164062 C 12.304688 101.164062 0 103.855469 0 107.304688 L 0 378.503906 C 0 381.953125 12.304688 384.640625 27.492188 384.640625 L 257.851562 384.640625 C 273.042969 384.640625 285.34375 381.953125 285.34375 378.503906 L 285.34375 279.207031 L 263.722656 279.207031 L 263.722656 309.902344 L 194.324219 309.902344 L 194.324219 275.734375 L 252.78125 275.734375 L 243.171875 263.992188 L 194.324219 263.992188 L 194.324219 251.179688 L 182.578125 251.179688 L 182.578125 263.992188 L 103.300781 263.992188 L 103.300781 251.179688 L 91.554688 251.179688 L 91.554688 263.992188 L 21.886719 263.992188 L 21.886719 229.824219 L 71.003906 229.824219 L 80.34375 218.078125 L 21.886719 218.078125 L 21.886719 172.703125 L 91.554688 172.703125 L 91.554688 203.933594 L 103.300781 189.25 L 103.300781 172.703125 L 116.378906 172.703125 L 135.332031 148.945312 L 95.828125 101.164062 Z M 21.886719 275.734375 L 91.554688 275.734375 L 91.554688 309.902344 L 21.886719 309.902344 Z M 103.300781 275.734375 L 182.578125 275.734375 L 182.578125 309.902344 L 103.300781 309.902344 Z M 21.886719 321.648438 L 91.554688 321.648438 L 91.554688 361.953125 L 21.886719 361.953125 Z M 103.300781 321.648438 L 182.578125 321.648438 L 182.578125 361.953125 L 103.300781 361.953125 Z M 194.324219 321.648438 L 263.722656 321.648438 L 263.722656 361.953125 L 194.324219 361.953125 Z M 194.324219 321.648438 "/>
<path style=" stroke:none;fill-rule:nonzero;fill:rgb(0%,20%,40%);fill-opacity:1;" d="M 122.359375 57.804688 L 190.910156 57.804688 L 238.582031 107.191406 L 283.351562 58.625 L 355.511719 58.625 L 284.296875 149.289062 L 371.203125 250.917969 L 294.867188 250.917969 L 239.863281 189.574219 L 210.128906 223.007812 L 134.492188 223.226562 L 200.488281 152.460938 Z M 122.359375 57.804688 "/>
</g>
</svg>
