<?xml version="1.0" encoding="UTF-8"?>
<svg xmlns="http://www.w3.org/2000/svg" xmlns:xlink="http://www.w3.org/1999/xlink" width="410pt" height="410pt" viewBox="0 0 410 410" version="1.1">
<g id="surface1">
<path style=" stroke:none;fill-rule:nonzero;fill:rgb(0%,20%,40%);fill-opacity:1;" d="M 1.066406 3.738281 L 1.066406 410 L 306.164062 410 L 306.164062 203.933594 L 120.917969 203.933594 C 105.992188 203.933594 92.386719 198.515625 81.945312 189.519531 L 65.929688 189.519531 L 65.929688 171.902344 L 68.066406 171.902344 C 63.84375 163.757812 61.394531 154.519531 61.394531 144.675781 L 61.394531 61.125 C 61.394531 33.550781 80.042969 10.484375 105.4375 3.738281 Z M 26.960938 171.902344 L 42.707031 171.902344 L 42.707031 189.519531 L 26.960938 189.519531 Z M 26.960938 208.738281 L 42.707031 208.738281 L 42.707031 226.355469 L 26.960938 226.355469 Z M 65.929688 208.738281 L 280.273438 208.738281 L 280.273438 226.355469 L 65.929688 226.355469 Z M 26.960938 245.839844 L 42.707031 245.839844 L 42.707031 263.191406 L 26.960938 263.191406 Z M 65.929688 245.839844 L 280.273438 245.839844 L 280.273438 263.191406 L 65.929688 263.191406 Z M 26.960938 282.675781 L 42.707031 282.675781 L 42.707031 300.027344 L 26.960938 300.027344 Z M 65.929688 282.675781 L 280.273438 282.675781 L 280.273438 300.027344 L 65.929688 300.027344 Z M 26.960938 319.511719 L 42.707031 319.511719 L 42.707031 337.128906 L 26.960938 337.128906 Z M 65.929688 319.511719 L 280.273438 319.511719 L 280.273438 337.128906 L 65.929688 337.128906 Z M 26.960938 356.347656 L 42.707031 356.347656 L 42.707031 373.964844 L 26.960938 373.964844 Z M 65.929688 356.347656 L 280.273438 356.347656 L 280.273438 373.964844 L 65.929688 373.964844 Z M 65.929688 356.347656 "/>
<path style=" stroke:none;fill-rule:nonzero;fill:rgb(0%,20%,40%);fill-opacity:1;" d="M 120.941406 0 C 87.441406 0 60.597656 28.144531 60.597656 63.265625 L 60.597656 152.503906 C 60.597656 187.625 87.441406 215.769531 120.941406 215.769531 L 349.394531 215.769531 C 382.894531 215.769531 410 187.625 410 152.503906 L 410 63.265625 C 410 28.144531 382.894531 0 349.394531 0 Z M 128.316406 11.328125 L 342.28125 11.328125 C 373.675781 11.328125 398.933594 36.5625 398.933594 67.964844 L 398.933594 147.804688 C 398.933594 179.203125 373.675781 204.441406 342.28125 204.441406 L 128.316406 204.441406 C 96.921875 204.441406 71.664062 179.203125 71.664062 147.804688 L 71.664062 67.964844 C 71.664062 36.5625 96.921875 11.328125 128.316406 11.328125 Z M 128.316406 11.328125 "/>
<path style=" stroke:none;fill-rule:nonzero;fill:rgb(0%,20%,40%);fill-opacity:1;" d="M 110.117188 149.929688 L 139.527344 106.046875 L 112.875 65.839844 L 133.1875 65.839844 L 150.445312 92.855469 L 167.351562 65.839844 L 187.484375 65.839844 L 160.71875 106.679688 L 190.128906 149.929688 L 169.171875 149.929688 L 150.09375 120.847656 L 130.953125 149.929688 Z M 110.117188 149.929688 "/>
<path style=" stroke:none;fill-rule:nonzero;fill:rgb(0%,20%,40%);fill-opacity:1;" d="M 198.933594 149.929688 L 198.933594 65.839844 L 224.9375 65.839844 L 240.554688 123.199219 L 255.992188 65.839844 L 282.054688 65.839844 L 282.054688 149.929688 L 265.914062 149.929688 L 265.914062 83.734375 L 248.828125 149.929688 L 232.097656 149.929688 L 215.074219 83.734375 L 215.074219 149.929688 Z M 198.933594 149.929688 "/>
<path style=" stroke:none;fill-rule:nonzero;fill:rgb(0%,20%,40%);fill-opacity:1;" d="M 299.902344 149.929688 L 299.902344 66.527344 L 317.277344 66.527344 L 317.277344 135.761719 L 360.484375 135.761719 L 360.484375 149.929688 Z M 299.902344 149.929688 "/>
</g>
</svg>
