<?xml version="1.0" encoding="UTF-8" standalone="no"?>
<svg
   xmlns:dc="http://purl.org/dc/elements/1.1/"
   xmlns:cc="http://creativecommons.org/ns#"
   xmlns:rdf="http://www.w3.org/1999/02/22-rdf-syntax-ns#"
   xmlns:svg="http://www.w3.org/2000/svg"
   xmlns="http://www.w3.org/2000/svg"
   xmlns:sodipodi="http://sodipodi.sourceforge.net/DTD/sodipodi-0.dtd"
   xmlns:inkscape="http://www.inkscape.org/namespaces/inkscape"
   width="410pt"
   height="410pt"
   viewBox="0 0 410 410"
   version="1.1"
   id="svg7"
   sodipodi:docname="check-fill.svg"
   inkscape:version="0.92.1 r15371">
  <metadata
     id="metadata13">
    <rdf:RDF>
      <cc:Work
         rdf:about="">
        <dc:format>image/svg+xml</dc:format>
        <dc:type
           rdf:resource="http://purl.org/dc/dcmitype/StillImage" />
      </cc:Work>
    </rdf:RDF>
  </metadata>
  <defs
     id="defs11" />
  <sodipodi:namedview
     pagecolor="#ffffff"
     bordercolor="#666666"
     borderopacity="1"
     objecttolerance="10"
     gridtolerance="10"
     guidetolerance="10"
     inkscape:pageopacity="0"
     inkscape:pageshadow="2"
     inkscape:window-width="1920"
     inkscape:window-height="1017"
     id="namedview9"
     showgrid="false"
     inkscape:zoom="0.43170732"
     inkscape:cx="277.9661"
     inkscape:cy="273.33333"
     inkscape:window-x="-8"
     inkscape:window-y="-8"
     inkscape:window-maximized="1"
     inkscape:current-layer="svg7" />
  <path
     style="fill:#000000;stroke-width:0.99999994"
     d="M -2.3164062 0 L -2.3164062 546.66602 L 546.66602 546.66602 L 546.66602 0 L -2.3164062 0 z M 407.24414 127.19336 C 413.25457 127.19336 418.47461 129.39062 422.88086 133.79688 L 458.3125 169.24023 C 462.71875 173.63606 464.90625 178.84896 464.90625 184.875 C 464.90625 190.90104 462.71875 196.11394 458.3125 200.52539 L 244.97461 413.83789 C 240.56836 418.23372 235.36459 420.43164 229.32812 420.43164 C 223.3125 420.43164 218.09897 418.23372 213.6875 413.83789 L 89.3125 289.44727 C 84.906251 285.04101 82.708984 279.83855 82.708984 273.8125 C 82.708984 267.78646 84.906251 262.58399 89.3125 258.17773 L 124.75586 222.74414 C 129.15169 218.3379 134.36458 216.14063 140.39062 216.14062 C 146.41667 216.14062 151.62956 218.3379 156.02539 222.74414 L 229.33789 296.06836 L 391.60938 133.79688 C 396.01563 129.39062 401.22851 127.19336 407.24414 127.19336 z "
     transform="scale(0.74999997)"
     id="rect17" />
</svg>
