<?xml version="1.0" encoding="UTF-8" standalone="no"?>
<svg
   xmlns:dc="http://purl.org/dc/elements/1.1/"
   xmlns:cc="http://creativecommons.org/ns#"
   xmlns:rdf="http://www.w3.org/1999/02/22-rdf-syntax-ns#"
   xmlns:svg="http://www.w3.org/2000/svg"
   xmlns="http://www.w3.org/2000/svg"
   xmlns:sodipodi="http://sodipodi.sourceforge.net/DTD/sodipodi-0.dtd"
   xmlns:inkscape="http://www.inkscape.org/namespaces/inkscape"
   version="1.1"
   width="512"
   height="512"
   viewBox="0 0 512 512"
   docname="cogwheel.svg"
   id="svg2"
   inkscape:version="0.48.2 r9819"
   sodipodi:docname="cogwheel.svg">
  <metadata
     id="metadata9">
    <rdf:RDF>
      <cc:Work
         rdf:about="">
        <dc:format>image/svg+xml</dc:format>
        <dc:type
           rdf:resource="http://purl.org/dc/dcmitype/StillImage" />
      </cc:Work>
    </rdf:RDF>
  </metadata>
  <defs
     id="defs7" />
  <sodipodi:namedview
     pagecolor="#ffffff"
     bordercolor="#666666"
     borderopacity="1"
     objecttolerance="10"
     gridtolerance="10"
     guidetolerance="10"
     inkscape:pageopacity="0"
     inkscape:pageshadow="2"
     inkscape:window-width="1920"
     inkscape:window-height="1017"
     id="namedview5"
     showgrid="false"
     inkscape:zoom="0.4604878"
     inkscape:cx="256.25"
     inkscape:cy="256.25"
     inkscape:window-x="-8"
     inkscape:window-y="-8"
     inkscape:window-maximized="1"
     inkscape:current-layer="svg2" />
  <path
     d="M 509.64393,288.96386 C 511.03616,278.14726 512,267.20215 512,256 c 0,-11.20214 -0.96384,-22.14726 -2.35607,-32.96386 l -67.61981,-16.92101 c -4.39089,-16.42837 -10.85944,-32 -19.19142,-46.415 l 35.834,-59.69477 C 445.17272,82.506028 429.51542,66.827314 411.99468,53.333342 L 352.29987,89.167335 C 337.8849,80.835347 322.33472,74.388218 305.8849,69.997331 L 288.96386,2.377516 C 278.14729,0.96386 267.22358,0 256,0 244.79788,0 233.85278,0.96386 223.03617,2.356087 l -16.92103,67.619815 c -16.42838,4.390899 -31.97857,10.859445 -46.37216,19.170016 L 100.02678,53.290496 C 82.527448,66.784468 66.848732,82.441765 53.354758,99.96252 l 35.834002,59.69479 c -8.353415,14.41498 -14.800534,29.96519 -19.191434,46.43641 l -67.619814,16.921 C 0.96385764,233.85274 1.725e-6,244.79786 1.725e-6,256 c 0,11.20215 0.963855915,22.14726 2.356090775,32.96386 l 67.6198155,16.92102 c 4.390899,16.42839 10.859437,32.02142 19.191433,46.41498 l -35.855422,59.69479 c 13.493974,17.49933 29.15127,33.17804 46.672023,46.67202 l 59.694768,-35.83399 c 14.41503,8.33199 29.96522,14.7791 46.41503,19.19143 l 16.92097,67.6198 c 10.81663,1.41367 21.76173,2.35609 32.9639,2.35609 11.22354,0 22.14725,-0.96386 32.96386,-2.35609 l 16.92099,-67.6198 c 16.47126,-4.41233 32.02144,-10.85944 46.43641,-19.19143 l 59.71621,35.83399 c 17.47793,-13.49398 33.15664,-29.15128 46.65062,-46.67202 l -35.85544,-59.69479 c 8.33203,-14.41498 14.77914,-29.96518 19.19142,-46.39356 l 67.64125,-16.94244 z M 256,345.55288 c -49.45648,0 -89.55286,-40.09639 -89.55286,-89.55288 0,-49.45648 40.09638,-89.55287 89.55286,-89.55287 49.45649,0 89.5529,40.09639 89.5529,89.55287 0,49.45649 -40.09641,89.55288 -89.5529,89.55288 z"
     id="path6"
     inkscape:connector-curvature="0" />
</svg>
