<?xml version="1.0" encoding="UTF-8"?>
<svg xmlns="http://www.w3.org/2000/svg" xmlns:xlink="http://www.w3.org/1999/xlink" width="410pt" height="410pt" viewBox="0 0 410 410" version="1.1">
<g id="surface1">
<path style=" stroke:none;fill-rule:nonzero;fill:rgb(0%,0%,0%);fill-opacity:1;" d="M 358.230469 410.167969 L 52.683594 410.167969 C 17.664062 410.167969 -0.09375 401.828125 -0.09375 385.394531 L -0.09375 23.800781 C -0.09375 7.375 17.664062 -0.953125 52.683594 -0.953125 L 358.230469 -0.953125 C 393.25 -0.953125 411 7.375 411 23.800781 L 411 385.394531 C 411 401.828125 393.25 410.167969 358.230469 410.167969 Z M 32.800781 375.683594 C 37.277344 376.519531 44.050781 377.289062 52.683594 377.289062 L 358.230469 377.289062 C 366.863281 377.289062 373.636719 376.519531 378.113281 375.683594 L 378.113281 107.628906 C 372.355469 107.628906 41.367188 107.628906 32.800781 107.628906 Z M 279.578125 377.28125 L 263.125 377.28125 L 263.125 320.324219 L 148.394531 320.324219 L 148.394531 377.28125 L 131.953125 377.28125 L 131.953125 320.324219 L 32.800781 320.324219 L 32.800781 303.882812 L 131.953125 303.882812 L 131.953125 254.554688 L 32.800781 254.554688 L 32.800781 238.101562 L 131.953125 238.101562 L 131.953125 188.757812 L 32.800781 188.757812 L 32.800781 172.316406 L 131.953125 172.316406 L 131.859375 107.621094 L 148.394531 107.621094 L 148.394531 172.316406 L 263.125 172.316406 L 263.125 107.621094 L 279.578125 107.621094 L 279.578125 172.316406 L 378.113281 172.316406 L 378.113281 188.757812 L 279.578125 188.757812 L 279.578125 238.101562 L 378.113281 238.101562 L 378.113281 254.554688 L 279.578125 254.554688 L 279.578125 303.882812 L 378.113281 303.882812 L 378.113281 320.332031 L 279.578125 320.332031 Z M 148.402344 303.882812 L 263.132812 303.882812 L 263.132812 254.554688 L 148.402344 254.554688 Z M 148.402344 238.101562 L 263.132812 238.101562 L 263.132812 188.757812 L 148.402344 188.757812 Z M 148.402344 238.101562 "/>
</g>
</svg>
