<?xml version="1.0" encoding="UTF-8" standalone="no"?>
<svg
   xmlns:dc="http://purl.org/dc/elements/1.1/"
   xmlns:cc="http://creativecommons.org/ns#"
   xmlns:rdf="http://www.w3.org/1999/02/22-rdf-syntax-ns#"
   xmlns:svg="http://www.w3.org/2000/svg"
   xmlns="http://www.w3.org/2000/svg"
   xmlns:sodipodi="http://sodipodi.sourceforge.net/DTD/sodipodi-0.dtd"
   xmlns:inkscape="http://www.inkscape.org/namespaces/inkscape"
   width="410pt"
   height="410pt"
   viewBox="0 0 410 410"
   version="1.1"
   id="svg2"
   inkscape:version="0.48.2 r9819"
   sodipodi:docname="collection-map.svg">
  <metadata
     id="metadata11">
    <rdf:RDF>
      <cc:Work
         rdf:about="">
        <dc:format>image/svg+xml</dc:format>
        <dc:type
           rdf:resource="http://purl.org/dc/dcmitype/StillImage" />
      </cc:Work>
    </rdf:RDF>
  </metadata>
  <defs
     id="defs9" />
  <sodipodi:namedview
     pagecolor="#ffffff"
     bordercolor="#666666"
     borderopacity="1"
     objecttolerance="10"
     gridtolerance="10"
     guidetolerance="10"
     inkscape:pageopacity="0"
     inkscape:pageshadow="2"
     inkscape:window-width="1920"
     inkscape:window-height="1017"
     id="namedview7"
     showgrid="false"
     inkscape:zoom="1.7219751"
     inkscape:cx="182.78785"
     inkscape:cy="180.51043"
     inkscape:window-x="-8"
     inkscape:window-y="-8"
     inkscape:window-maximized="1"
     inkscape:current-layer="svg2" />
  <path
     style="fill:#000000;fill-opacity:1;fill-rule:nonzero;stroke:none"
     d="m 205,0.5375 c -112.773432,0 -204.2,91.56484 -204.2,204.475 0,112.95703 91.426568,204.45 204.2,204.45 112.78516,0 204.2,-91.49297 204.2,-204.45 C 409.2,92.10234 317.78516,0.5375 205,0.5375 z m 108.2,46.025 c 1.92187,-0.02734 3.17578,0.0211 4.625,0.525 11.56641,3.765625 27.07891,19.014063 46.45,44.475 19.38282,25.44531 39.02032,61.37421 27.575,105.8 -11.45703,44.4414 -66.81953,29.99532 -74.55,19.925 -7.72266,-10.02734 -3.94141,-39.35 -19.375,-39.35 -15.43359,0 -11.42265,37.06953 -21.45,36.3 -10.02734,-0.76953 -31.11015,-24.04687 -38.825,-22.5 -7.71875,1.54297 -12.83125,13.24453 -3.55,20.975 9.26172,7.73828 12.16094,3.55703 22.95,5.1 10.83203,1.57422 17.97187,25.0211 7.175,29.65 -11.23438,19.74219 -12.84922,45.71485 -25.525,62.875 -4.21875,7.92578 -14.54297,23.39375 -17.875,26.05 -7.71094,6.22657 -23.475,13.8 -23.475,13.8 0,0 -13.48281,6.28907 -21.975,-7.625 -8.48047,-13.92968 9.05156,-64.05078 -2.55,-78.75 -11.58984,-14.69141 -25.89062,-28.38047 -59.5,-33.9 0.90625,-11.17969 -8.42579,-17.50704 -7.375,-27.425 1.74218,-7.7461 10.17734,-28.3375 14.275,-29.15 15.44531,-3.09766 54.30469,-18.49219 61.25,-6.125 6.95313,12.3711 35.2336,29.72031 38.3,18.9 3.10938,-10.83203 15.67421,-35.23125 4.1,-38.325 -11.59375,-3.10156 -43.07187,-23.32812 -50.025,-16.375 -6.94531,6.95313 -10.68907,22.97265 -31.65,23 -16.57813,0.0273 -21.99766,-4.9961 -18.9,-17.375 3.07812,-12.35938 -5.05312,-21.25 11.15,-21.25 16.21094,0 28.15,-0.35469 28.15,-10.425 l 10.35,-22.675 c 8.73828,0.640624 8.20157,-15.68125 33.725,-19.525 -4.125,-8.476562 58.43438,17.946096 59.075,15.075 1.54688,-6.960937 -6.96954,-18.659375 3.05,-19.425 8.76171,-0.675781 31.18906,-11.976563 44.4,-12.25 z m -149.975,14.9 c 2.36486,0.0988 2.41182,4.671777 0.925,8.1 l 0.2,8.775 c 0.6836,2.375 -1.60547,2.58828 -6.875,2.1 -5.75782,-11.835938 -0.54843,-16.529688 4.6,-18.725 0.43457,-0.185058 0.81216,-0.264114 1.15,-0.25 z m -71.525,129.1 c 2.76496,0.0622 5.577104,0.8282 7.175,2.55 -0.734376,3.90625 -3.517968,2.08125 -6.85,5.175 -9.832296,-5.54942 -7.995152,-3.9197 -6.4,-6.6 1.249512,-0.60498 3.030104,-1.01048 4.9,-1.1 0.38956,-0.0187 0.780008,-0.0339 1.175,-0.025 z m 167.25,109.85 c 0.24208,-0.0275 0.4331,0.0325 0.5,0.2 1.6836,0.30078 -1.65937,10.3664 -4.425,8.675 -2.92236,-4.06398 2.23044,-8.68253 3.925,-8.875 z"
     id="path5"
     inkscape:connector-curvature="0" />
</svg>
