<?xml version="1.0" encoding="UTF-8"?>
<svg xmlns="http://www.w3.org/2000/svg" xmlns:xlink="http://www.w3.org/1999/xlink" width="410pt" height="410pt" viewBox="0 0 410 410" version="1.1">
<g id="surface1">
<path style=" stroke:none;fill-rule:nonzero;fill:rgb(0%,0%,0%);fill-opacity:1;" d="M 0 86.535156 L 0 324.523438 C 0 372.238281 38.8125 411.066406 86.535156 411.066406 L 324.523438 411.066406 C 372.253906 411.066406 411.066406 372.238281 411.066406 324.523438 L 411.066406 86.535156 C 411.066406 38.832031 372.253906 0 324.523438 0 L 86.535156 0 C 38.8125 0 0 38.832031 0 86.535156 M 346.160156 43.273438 C 358.058594 43.273438 367.796875 53.007812 367.796875 64.90625 L 367.796875 346.167969 C 367.796875 358.066406 358.050781 367.804688 346.160156 367.804688 L 64.90625 367.804688 C 53.007812 367.804688 43.273438 358.058594 43.273438 346.167969 L 43.273438 64.90625 C 43.273438 53.007812 53.007812 43.273438 64.90625 43.273438 Z M 151.445312 118.992188 C 151.445312 107.09375 163.90625 103.140625 173.488281 110.160156 L 288.144531 192.734375 C 297.6875 199.753906 298.871094 211.285156 289.28125 218.34375 L 172.910156 300.90625 C 163.34375 307.917969 151.445312 303.972656 151.445312 292.082031 Z M 151.445312 118.992188 "/>
</g>
</svg>
