<?xml version="1.0" encoding="UTF-8"?>
<svg xmlns="http://www.w3.org/2000/svg" xmlns:xlink="http://www.w3.org/1999/xlink" width="410pt" height="410pt" viewBox="0 0 410 410" version="1.1">
<g id="surface1">
<path style=" stroke:none;fill-rule:nonzero;fill:rgb(0%,0%,0%);fill-opacity:1;" d="M 379.625 379.625 L 379.625 159.449219 C 379.625 155.269531 376.21875 151.855469 372.03125 151.855469 L 311.292969 151.855469 C 307.117188 151.855469 303.699219 155.269531 303.699219 159.449219 L 303.699219 379.632812 L 288.511719 379.632812 L 288.511719 53.144531 C 288.511719 48.976562 285.113281 45.550781 280.917969 45.550781 L 220.179688 45.550781 C 216.011719 45.550781 212.585938 48.96875 212.585938 53.144531 L 212.585938 379.632812 L 197.40625 379.632812 L 197.40625 220.179688 C 197.40625 216.011719 193.988281 212.585938 189.8125 212.585938 L 129.074219 212.585938 C 124.894531 212.585938 121.480469 216 121.480469 220.179688 L 121.480469 379.625 L 106.292969 379.625 L 106.292969 311.292969 C 106.292969 307.105469 102.875 303.699219 98.699219 303.699219 L 37.960938 303.699219 C 33.78125 303.699219 30.367188 307.097656 30.367188 311.292969 L 30.367188 379.625 L 0 379.625 L 0 410 L 410 410 L 410 379.632812 L 379.625 379.632812 Z M 379.625 379.625 "/>
</g>
</svg>
