<?xml version="1.0" encoding="UTF-8" standalone="no"?>
<svg
   xmlns:dc="http://purl.org/dc/elements/1.1/"
   xmlns:cc="http://creativecommons.org/ns#"
   xmlns:rdf="http://www.w3.org/1999/02/22-rdf-syntax-ns#"
   xmlns:svg="http://www.w3.org/2000/svg"
   xmlns="http://www.w3.org/2000/svg"
   xmlns:sodipodi="http://sodipodi.sourceforge.net/DTD/sodipodi-0.dtd"
   xmlns:inkscape="http://www.inkscape.org/namespaces/inkscape"
   width="410pt"
   height="410pt"
   viewBox="0 0 410 410"
   version="1.1"
   id="svg2"
   inkscape:version="0.48.2 r9819"
   sodipodi:docname="comma.svg">
  <metadata
     id="metadata13">
    <rdf:RDF>
      <cc:Work
         rdf:about="">
        <dc:format>image/svg+xml</dc:format>
        <dc:type
           rdf:resource="http://purl.org/dc/dcmitype/StillImage" />
      </cc:Work>
    </rdf:RDF>
  </metadata>
  <defs
     id="defs11" />
  <sodipodi:namedview
     pagecolor="#ffffff"
     bordercolor="#666666"
     borderopacity="1"
     objecttolerance="10"
     gridtolerance="10"
     guidetolerance="10"
     inkscape:pageopacity="0"
     inkscape:pageshadow="2"
     inkscape:window-width="1920"
     inkscape:window-height="1017"
     id="namedview9"
     showgrid="false"
     inkscape:zoom="0.4604878"
     inkscape:cx="256.25"
     inkscape:cy="256.25"
     inkscape:window-x="1912"
     inkscape:window-y="-8"
     inkscape:window-maximized="1"
     inkscape:current-layer="svg2" />
  <path
     style="fill:#003366;fill-opacity:1;fill-rule:nonzero;stroke:none"
     d="m 331.35,39.075 c -29.36255,0.160811 -59.61753,15.718554 -73.65,45.95 -17.5,37.69532 13.16093,96.18203 64.2,96.1 -28.51953,72.40234 -47.29375,47.62265 -94.575,50.025 -24.18359,11.32031 -28.3625,47.83203 10.95,58 C 365.5875,308.78281 436.21953,153.49063 395.2,75.1 382.47418,50.779932 357.25814,38.933108 331.35,39.075 z M 29.625,120.9 C 14.160156,120.9 1.6,123.76484 1.6,127.3 l 0,277.875 c 0,3.53516 12.560156,6.4 28.025,6.4 l 234.625,0 c 8.08594,0 15.18281,-0.87109 20.3,-2.125 3.52734,-0.48828 6.20781,-1.48516 7.2,-2.95 0.375,-0.41797 0.525,-0.88359 0.525,-1.325 l 0,-105.425 c -7.80468,1.46875 -15.38593,2.34922 -22.675,2.65 l 0,29.9 -67.8,0 0,-38.175 6.4,0 c 2.21094,0 4,-2.625 4,-5.875 0,-3.25 -1.78906,-5.85 -4,-5.85 l -6.4,0 0,-38.725 c 1.37891,-0.88672 2.4,-3.1625 2.4,-5.6 0,-2.43359 -1.02109,-4.43829 -2.4,-5.325 l 0,-42.45 53.1,0 c 5.62109,0 10.48907,0.26484 14.7,0.8 l 0,31.775 c 8.3086,0.0508 15.77657,-1.21093 22.675,-3.75 l 0,-37.9 c -22.46875,-8.85937 -36.81328,-22.67969 -42.7,-41.375 -1.95312,-6.19531 -2.95938,-12.56328 -3.475,-18.95 l -216.475,0 z m 9.35,69.4 57.65,0 0,41.9 -72.325,0 0,-41.1 c 4.210938,-0.53516 9.053906,-0.8 14.675,-0.8 z m 69.4,0 81.675,0 0,41.9 -81.675,0 0,-41.9 z m -84.075,53.65 72.325,0 0,38.45 -72.325,0 0,-38.45 z m 84.075,0 81.675,0 0,38.45 -81.675,0 0,-38.45 z m -84.075,50.175 72.325,0 0,38.175 -72.325,0 0,-38.175 z m 84.075,0 81.675,0 0,38.175 -81.675,0 0,-38.175 z M 24.3,344.05 l 72.325,0 0,43.25 -72.325,0 0,-43.25 z m 84.075,0 81.675,0 0,43.25 -81.675,0 0,-43.25 z m 93.425,0 67.8,0 0,43.25 -67.8,0 0,-43.25 z"
     id="path5"
     inkscape:connector-curvature="0" />
</svg>
