<?xml version="1.0" encoding="UTF-8"?>
<svg xmlns="http://www.w3.org/2000/svg" xmlns:xlink="http://www.w3.org/1999/xlink" width="410pt" height="410pt" viewBox="0 0 410 410" version="1.1">
<g id="surface1">
<path style=" stroke:none;fill-rule:nonzero;fill:rgb(0%,20%,40%);fill-opacity:1;" d="M 103.429688 54.484375 L 140.242188 54.484375 C 148.542969 54.484375 154.867188 55.121094 159.222656 56.390625 C 165.074219 58.113281 170.085938 61.175781 174.261719 65.574219 C 178.433594 69.976562 181.609375 75.363281 183.785156 81.734375 C 185.964844 88.109375 187.050781 95.96875 187.050781 105.3125 C 187.050781 113.519531 186.03125 120.597656 183.988281 126.539062 C 181.496094 133.796875 177.933594 139.671875 173.308594 144.160156 C 169.816406 147.5625 165.097656 150.21875 159.15625 152.121094 C 154.710938 153.527344 148.769531 154.230469 141.328125 154.230469 L 103.429688 154.230469 Z M 123.570312 71.359375 L 123.570312 137.425781 L 138.609375 137.425781 C 144.230469 137.425781 148.292969 137.105469 150.785156 136.472656 C 154.050781 135.65625 156.761719 134.269531 158.917969 132.320312 C 161.070312 130.371094 162.828125 127.160156 164.191406 122.695312 C 165.550781 118.226562 166.230469 112.136719 166.230469 104.425781 C 166.230469 96.714844 165.550781 90.792969 164.191406 86.667969 C 162.828125 82.539062 160.925781 79.320312 158.476562 77.003906 C 156.027344 74.691406 152.917969 73.128906 149.152344 72.308594 C 146.339844 71.675781 140.832031 71.355469 132.621094 71.355469 Z M 123.570312 71.359375 "/>
<path style=" stroke:none;fill-rule:nonzero;fill:rgb(0%,20%,40%);fill-opacity:1;" d="M 294.144531 154.230469 L 272.238281 154.230469 L 263.527344 131.574219 L 223.65625 131.574219 L 215.425781 154.230469 L 194.058594 154.230469 L 232.910156 54.484375 L 254.207031 54.484375 Z M 257.0625 114.769531 L 243.320312 77.753906 L 229.847656 114.769531 Z M 257.0625 114.769531 "/>
<path style=" stroke:none;fill-rule:nonzero;fill:rgb(0%,20%,40%);fill-opacity:1;" d="M 327.347656 154.230469 L 327.347656 71.359375 L 297.75 71.359375 L 297.75 54.484375 L 377.015625 54.484375 L 377.015625 71.359375 L 347.488281 71.359375 L 347.488281 154.230469 Z M 327.347656 154.230469 "/>
<path style=" stroke:none;fill-rule:nonzero;fill:rgb(0%,20%,40%);fill-opacity:1;" d="M 117.179688 0 C 83.246094 0 56.054688 27.191406 56.054688 61.125 L 56.054688 147.34375 C 56.054688 181.277344 83.246094 208.46875 117.179688 208.46875 L 348.605469 208.46875 C 382.542969 208.46875 410 181.277344 410 147.34375 L 410 61.125 C 410 27.191406 382.542969 0 348.605469 0 Z M 124.65625 10.945312 L 341.398438 10.945312 C 373.203125 10.945312 398.789062 35.328125 398.789062 65.664062 L 398.789062 142.804688 C 398.789062 173.144531 373.203125 197.527344 341.398438 197.527344 L 124.65625 197.527344 C 92.851562 197.527344 67.265625 173.144531 67.265625 142.804688 L 67.265625 65.664062 C 67.265625 35.328125 92.851562 10.945312 124.65625 10.945312 Z M 124.65625 10.945312 "/>
<path style=" stroke:none;fill-rule:nonzero;fill:rgb(0%,20%,40%);fill-opacity:1;" d="M 223.578125 219.125 L 307.03125 219.125 L 307.03125 302.578125 L 223.578125 302.578125 Z M 223.578125 219.125 "/>
<path style=" stroke:none;fill-rule:nonzero;fill:rgb(0%,20%,40%);fill-opacity:1;" d="M 111.789062 219.125 L 195.242188 219.125 L 195.242188 302.578125 L 111.789062 302.578125 Z M 111.789062 219.125 "/>
<path style=" stroke:none;fill-rule:nonzero;fill:rgb(0%,20%,40%);fill-opacity:1;" d="M 0 219.125 L 83.453125 219.125 L 83.453125 302.578125 L 0 302.578125 Z M 0 219.125 "/>
<path style=" stroke:none;fill-rule:nonzero;fill:rgb(0%,20%,40%);fill-opacity:1;" d="M 0 111.605469 L 0 195.152344 L 78.210938 195.152344 C 64.605469 183.9375 56.054688 166.726562 56.054688 147.640625 L 56.054688 111.605469 Z M 0 111.605469 "/>
<path style=" stroke:none;fill-rule:nonzero;fill:rgb(0%,20%,40%);fill-opacity:1;" d="M 0 4.300781 L 0 87.847656 L 56.054688 87.847656 L 56.054688 61.421875 C 56.054688 39.996094 66.980469 21.378906 83.546875 10.441406 L 83.546875 4.300781 Z M 0 4.300781 "/>
<path style=" stroke:none;fill-rule:nonzero;fill:rgb(0%,20%,40%);fill-opacity:1;" d="M 223.578125 326.546875 L 307.03125 326.546875 L 307.03125 410 L 223.578125 410 Z M 223.578125 326.546875 "/>
<path style=" stroke:none;fill-rule:nonzero;fill:rgb(0%,20%,40%);fill-opacity:1;" d="M 111.789062 326.546875 L 195.242188 326.546875 L 195.242188 410 L 111.789062 410 Z M 111.789062 326.546875 "/>
<path style=" stroke:none;fill-rule:nonzero;fill:rgb(0%,20%,40%);fill-opacity:1;" d="M 0 326.546875 L 83.453125 326.546875 L 83.453125 410 L 0 410 Z M 0 326.546875 "/>
</g>
</svg>
