<?xml version="1.0" encoding="UTF-8"?>
<svg xmlns="http://www.w3.org/2000/svg" xmlns:xlink="http://www.w3.org/1999/xlink" width="410pt" height="410pt" viewBox="0 0 410 410" version="1.1">
<g id="surface1">
<path style=" stroke:none;fill-rule:nonzero;fill:rgb(0%,20%,40%);fill-opacity:1;" d="M 223.578125 219.125 L 307.03125 219.125 L 307.03125 302.578125 L 223.578125 302.578125 Z M 223.578125 219.125 "/>
<path style=" stroke:none;fill-rule:nonzero;fill:rgb(0%,20%,40%);fill-opacity:1;" d="M 111.789062 219.125 L 195.242188 219.125 L 195.242188 302.578125 L 111.789062 302.578125 Z M 111.789062 219.125 "/>
<path style=" stroke:none;fill-rule:nonzero;fill:rgb(0%,20%,40%);fill-opacity:1;" d="M 0 219.125 L 83.453125 219.125 L 83.453125 302.578125 L 0 302.578125 Z M 0 219.125 "/>
<path style=" stroke:none;fill-rule:nonzero;fill:rgb(0%,20%,40%);fill-opacity:1;" d="M 223.578125 326.546875 L 307.03125 326.546875 L 307.03125 410 L 223.578125 410 Z M 223.578125 326.546875 "/>
<path style=" stroke:none;fill-rule:nonzero;fill:rgb(0%,20%,40%);fill-opacity:1;" d="M 111.789062 326.546875 L 195.242188 326.546875 L 195.242188 410 L 111.789062 410 Z M 111.789062 326.546875 "/>
<path style=" stroke:none;fill-rule:nonzero;fill:rgb(0%,20%,40%);fill-opacity:1;" d="M 0 326.546875 L 83.453125 326.546875 L 83.453125 410 L 0 410 Z M 0 326.546875 "/>
<path style=" stroke:none;fill-rule:nonzero;fill:rgb(0%,20%,40%);fill-opacity:1;" d="M 161.5625 3.347656 L 230.113281 3.347656 L 277.789062 52.734375 L 322.554688 4.167969 L 394.714844 4.167969 L 323.5 94.832031 L 410.40625 196.460938 L 334.070312 196.460938 L 279.066406 135.117188 L 249.332031 168.550781 L 173.695312 168.769531 L 239.695312 98.007812 Z M 161.5625 3.347656 "/>
<path style=" stroke:none;fill-rule:nonzero;fill:rgb(0%,20%,40%);fill-opacity:1;" d="M 0 4.300781 L 83.453125 4.300781 L 83.453125 87.753906 L 0 87.753906 Z M 0 4.300781 "/>
<path style=" stroke:none;fill-rule:nonzero;fill:rgb(0%,20%,40%);fill-opacity:1;" d="M 0 111.605469 L 83.453125 111.605469 L 83.453125 195.058594 L 0 195.058594 Z M 0 111.605469 "/>
<path style=" stroke:none;fill-rule:nonzero;fill:rgb(0%,20%,40%);fill-opacity:1;" d="M 111.84375 111.574219 L 111.84375 195.125 L 195.125 195.125 L 195.125 185.945312 L 133.980469 186.210938 L 195.125 111.617188 Z M 111.84375 111.574219 "/>
<path style=" stroke:none;fill-rule:nonzero;fill:rgb(0%,20%,40%);fill-opacity:1;" d="M 111.84375 4.269531 L 111.84375 87.820312 L 195.125 87.929688 L 129.816406 4.269531 Z M 111.84375 4.269531 "/>
</g>
</svg>
