<?xml version="1.0" encoding="UTF-8"?>
<svg xmlns="http://www.w3.org/2000/svg" xmlns:xlink="http://www.w3.org/1999/xlink" width="410pt" height="410pt" viewBox="0 0 410 410" version="1.1">
<g id="surface1">
<path style=" stroke:none;fill-rule:nonzero;fill:rgb(0%,0%,0%);fill-opacity:1;" d="M 74.378906 153.390625 C 71.058594 150.070312 72.175781 145.207031 76.875 145.207031 L 153.75 145.207031 L 153.75 17.082031 C 153.75 12.386719 157.59375 8.542969 162.292969 8.542969 L 247.707031 8.542969 C 252.414062 8.542969 256.25 12.386719 256.25 17.082031 L 256.25 145.207031 L 333.125 145.207031 C 337.832031 145.207031 338.949219 150.070312 335.628906 153.390625 L 211.039062 279.371094 C 207.714844 282.710938 202.285156 282.710938 198.953125 279.371094 Z M 410 324.582031 L 410 401.457031 L 0 401.457031 L 0 324.582031 C 0 319.875 3.84375 316.042969 8.542969 316.042969 L 400.800781 316.042969 C 405.507812 316.042969 410 319.875 410 324.582031 M 375.832031 350.207031 L 341.667969 350.207031 L 341.667969 367.292969 L 375.832031 367.292969 Z M 375.832031 350.207031 "/>
</g>
</svg>
