<?xml version="1.0" encoding="UTF-8"?>
<svg xmlns="http://www.w3.org/2000/svg" xmlns:xlink="http://www.w3.org/1999/xlink" width="410pt" height="410pt" viewBox="0 0 410 410" version="1.1">
<g id="surface1">
<path style=" stroke:none;fill-rule:nonzero;fill:rgb(0%,20%,40%);fill-opacity:1;" d="M 87.019531 0 C 38.828125 0 0 38.828125 0 87.019531 L 0 322.980469 C 0 371.171875 38.828125 410 87.019531 410 L 322.980469 410 C 371.171875 410 410 371.171875 410 322.980469 L 410 201.796875 C 406.957031 194.613281 400.515625 186.09375 387.042969 186.046875 C 373.65625 186.003906 367.175781 194.347656 364.089844 201.53125 L 364.089844 296.554688 C 364.089844 333.929688 333.929688 363.820312 296.554688 363.820312 L 113.445312 363.820312 C 76.070312 363.820312 45.910156 333.929688 45.910156 296.554688 L 45.910156 113.445312 C 45.910156 76.070312 76.070312 45.910156 113.445312 45.910156 L 208.738281 45.910156 C 215.601562 43.039062 223.652344 36.859375 223.683594 22.957031 C 223.714844 9.914062 214.253906 3.152344 207.136719 0 Z M 87.019531 0 "/>
<path style=" stroke:none;fill-rule:nonzero;fill:rgb(0%,20%,40%);fill-opacity:1;" d="M 280.035156 15.914062 C 268.050781 15.914062 258.414062 26.867188 258.414062 40.472656 C 258.414062 54.074219 268.050781 65.027344 280.035156 65.027344 L 309.398438 65.027344 L 215.171875 159.519531 C 206.699219 167.996094 207.421875 182.464844 217.039062 192.085938 C 226.660156 201.703125 241.398438 202.695312 249.871094 194.222656 L 344.363281 99.460938 L 344.363281 129.089844 C 344.363281 141.074219 355.320312 150.710938 368.921875 150.710938 C 382.527344 150.710938 393.480469 141.074219 393.480469 129.089844 L 393.480469 37.535156 C 393.480469 31.933594 391.011719 26.6875 387.074219 22.855469 C 383.164062 18.414062 377.851562 15.914062 371.859375 15.914062 Z M 280.035156 15.914062 "/>
</g>
</svg>
