<?xml version="1.0" encoding="UTF-8"?>
<svg xmlns="http://www.w3.org/2000/svg" xmlns:xlink="http://www.w3.org/1999/xlink" width="410pt" height="410pt" viewBox="0 0 410 410" version="1.1">
<g id="surface1">
<path style=" stroke:none;fill-rule:nonzero;fill:rgb(0%,0%,0%);fill-opacity:1;" d="M 323.6875 0 L 86.3125 0 C 38.738281 0 0 38.710938 0 86.3125 L 0 323.679688 C 0 371.289062 38.738281 410 86.3125 410 L 323.679688 410 C 371.273438 410 410 371.289062 410 323.6875 L 410 86.3125 C 410 38.710938 371.273438 0 323.6875 0 M 366.839844 345.261719 C 366.839844 357.128906 357.117188 366.839844 345.261719 366.839844 L 64.738281 366.839844 C 52.871094 366.839844 43.160156 357.117188 43.160156 345.261719 L 43.160156 64.738281 C 43.160156 52.871094 52.871094 43.160156 64.738281 43.160156 L 345.261719 43.160156 C 357.128906 43.160156 366.839844 52.871094 366.839844 64.738281 Z M 291.3125 151.050781 C 303.179688 151.050781 307.125 163.488281 300.121094 173.046875 L 217.761719 287.402344 C 210.757812 296.925781 199.226562 298.105469 192.222656 288.539062 L 109.863281 172.472656 C 102.859375 162.921875 106.8125 151.058594 118.667969 151.058594 L 291.3125 151.058594 Z M 291.3125 151.050781 "/>
</g>
</svg>
