<?xml version="1.0" encoding="UTF-8" standalone="no"?>
<svg
   xmlns:dc="http://purl.org/dc/elements/1.1/"
   xmlns:cc="http://creativecommons.org/ns#"
   xmlns:rdf="http://www.w3.org/1999/02/22-rdf-syntax-ns#"
   xmlns:svg="http://www.w3.org/2000/svg"
   xmlns="http://www.w3.org/2000/svg"
   xmlns:sodipodi="http://sodipodi.sourceforge.net/DTD/sodipodi-0.dtd"
   xmlns:inkscape="http://www.inkscape.org/namespaces/inkscape"
   width="410pt"
   height="410pt"
   viewBox="0 0 410 410"
   version="1.1"
   id="svg2"
   inkscape:version="0.48.2 r9819"
   sodipodi:docname="facebook.svg">
  <metadata
     id="metadata37">
    <rdf:RDF>
      <cc:Work
         rdf:about="">
        <dc:format>image/svg+xml</dc:format>
        <dc:type
           rdf:resource="http://purl.org/dc/dcmitype/StillImage" />
      </cc:Work>
    </rdf:RDF>
  </metadata>
  <defs
     id="defs35" />
  <sodipodi:namedview
     pagecolor="#ffffff"
     bordercolor="#666666"
     borderopacity="1"
     objecttolerance="10"
     gridtolerance="10"
     guidetolerance="10"
     inkscape:pageopacity="0"
     inkscape:pageshadow="2"
     inkscape:window-width="640"
     inkscape:window-height="480"
     id="namedview33"
     showgrid="false"
     inkscape:zoom="0.4604878"
     inkscape:cx="256.25"
     inkscape:cy="256.25"
     inkscape:window-x="0"
     inkscape:window-y="0"
     inkscape:window-maximized="0"
     inkscape:current-layer="svg2" />
  <path
     style="fill:#003366;fill-opacity:1;fill-rule:nonzero;stroke:none"
     d="M 42.3125 -1.4375 C 18.938476 -1.4375 -5.4703306e-017 17.500976 0 40.875 L 0 470.1875 C 0 493.55664 18.938476 512.5 42.3125 512.5 L 262.25 512.5 L 262.25 265 L 213.96875 265 L 213.96875 199.96875 L 262.25 199.96875 L 262.25 176.40625 C 262.25 150.12208 265.20996 130.50684 271.09375 117.5625 C 276.97754 104.61328 287.79785 94.08203 303.59375 85.9375 C 319.38476 77.797851 339.37598 73.71875 363.53125 73.71875 C 388.30664 73.71875 412.56739 77.251953 436.3125 84.3125 L 424.53125 142 C 410.69825 138.85059 397.39161 137.28125 384.59375 137.28125 C 372.00099 137.28125 362.97363 140.06543 357.5 145.65625 C 352.03125 151.24706 349.28125 162.01269 349.28125 177.90625 L 349.28125 199.96875 L 414.3125 199.96875 L 414.3125 265 L 349.28125 265 L 349.28125 512.5 L 471.625 512.5 C 494.99903 512.5 513.9375 493.55664 513.9375 470.1875 L 513.9375 40.875 C 513.9375 17.500976 494.99903 -1.4375 471.625 -1.4375 L 42.3125 -1.4375 z "
     transform="scale(0.8,0.8)"
     id="path29" />
</svg>
