<?xml version="1.0" encoding="UTF-8"?>
<svg xmlns="http://www.w3.org/2000/svg" xmlns:xlink="http://www.w3.org/1999/xlink" width="410pt" height="410pt" viewBox="0 0 410 410" version="1.1">
<g id="surface1">
<path style=" stroke:none;fill-rule:nonzero;fill:rgb(0%,0%,0%);fill-opacity:1;" d="M 410 0 L 410 119.582031 L 375.832031 119.582031 L 375.832031 34.167969 L 290.417969 34.167969 L 290.417969 0 Z M 34.167969 119.582031 L 34.167969 34.167969 L 119.582031 34.167969 L 119.582031 0 L 0 0 L 0 119.582031 Z M 375.832031 290.417969 L 375.832031 375.832031 L 290.417969 375.832031 L 290.417969 410 L 410 410 L 410 290.417969 Z M 34.167969 290.417969 L 0 290.417969 L 0 410 L 119.582031 410 L 119.582031 375.832031 L 34.167969 375.832031 Z M 34.167969 290.417969 "/>
<path style=" stroke:none;fill-rule:nonzero;fill:rgb(0%,0%,0%);fill-opacity:1;" d="M 299.992188 146.242188 L 335.628906 181.878906 C 338.949219 185.191406 341.683594 184.082031 341.683594 179.367188 L 341.683594 76.867188 C 341.683594 72.167969 337.832031 68.324219 333.140625 68.324219 L 230.640625 68.324219 C 225.917969 68.324219 224.800781 71.058594 228.121094 74.371094 L 263.757812 110.007812 L 205.035156 168.742188 L 146.257812 109.992188 L 181.878906 74.371094 C 185.191406 71.058594 184.082031 68.324219 179.382812 68.324219 L 76.882812 68.324219 C 72.167969 68.324219 68.34375 72.167969 68.34375 76.867188 L 68.34375 179.367188 C 68.34375 184.082031 71.058594 185.191406 74.371094 181.878906 L 110.023438 146.226562 L 168.773438 204.972656 L 110.007812 263.757812 L 74.371094 228.121094 C 71.058594 224.800781 68.34375 225.917969 68.34375 230.609375 L 68.34375 333.109375 C 68.34375 337.832031 72.167969 341.648438 76.882812 341.648438 L 179.382812 341.648438 C 184.082031 341.648438 185.191406 338.949219 181.878906 335.628906 L 146.242188 299.992188 L 205.035156 241.214844 L 263.773438 299.976562 L 228.121094 335.628906 C 224.800781 338.949219 225.917969 341.648438 230.640625 341.648438 L 333.140625 341.648438 C 337.832031 341.648438 341.683594 337.832031 341.683594 333.109375 L 341.683594 230.609375 C 341.683594 225.917969 338.949219 224.800781 335.628906 228.121094 L 300.007812 263.742188 L 241.25 204.972656 Z M 299.992188 146.242188 "/>
</g>
</svg>
