<?xml version="1.0" encoding="UTF-8" standalone="no"?>
<svg
   xmlns:dc="http://purl.org/dc/elements/1.1/"
   xmlns:cc="http://creativecommons.org/ns#"
   xmlns:rdf="http://www.w3.org/1999/02/22-rdf-syntax-ns#"
   xmlns:svg="http://www.w3.org/2000/svg"
   xmlns="http://www.w3.org/2000/svg"
   xmlns:sodipodi="http://sodipodi.sourceforge.net/DTD/sodipodi-0.dtd"
   xmlns:inkscape="http://www.inkscape.org/namespaces/inkscape"
   width="410pt"
   height="410pt"
   viewBox="0 0 410 410"
   version="1.1"
   id="svg2"
   inkscape:version="0.48.2 r9819"
   sodipodi:docname="google.svg">
  <metadata
     id="metadata37">
    <rdf:RDF>
      <cc:Work
         rdf:about="">
        <dc:format>image/svg+xml</dc:format>
        <dc:type
           rdf:resource="http://purl.org/dc/dcmitype/StillImage" />
      </cc:Work>
    </rdf:RDF>
  </metadata>
  <defs
     id="defs35" />
  <sodipodi:namedview
     pagecolor="#ffffff"
     bordercolor="#666666"
     borderopacity="1"
     objecttolerance="10"
     gridtolerance="10"
     guidetolerance="10"
     inkscape:pageopacity="0"
     inkscape:pageshadow="2"
     inkscape:window-width="1920"
     inkscape:window-height="1017"
     id="namedview33"
     showgrid="false"
     inkscape:zoom="0.4604878"
     inkscape:cx="256.25"
     inkscape:cy="256.25"
     inkscape:window-x="-8"
     inkscape:window-y="-8"
     inkscape:window-maximized="1"
     inkscape:current-layer="svg2" />
  <path
     inkscape:connector-curvature="0"
     id="path29"
     d="M 33.714844,0 375.70703,0 c 18.62109,0 33.71484,15.09375 33.71484,33.714844 l 0,341.992186 c 0,18.61719 -15.09375,33.71484 -33.71484,33.71484 l -341.992186,0 C 15.09375,409.42187 0,394.32422 0,375.70703 L 0,33.714844 C 0,15.09375 15.09375,0 33.714844,0 z m 0,0"
     style="fill:#003366;fill-opacity:1;fill-rule:nonzero;stroke:none" />
  <path
     inkscape:connector-curvature="0"
     id="path31"
     d="m 331.35547,28.785156 8.93359,106.199214 -8.93359,0 C 322.33203,108.51953 310.67187,88.585938 296.375,75.1875 275.77734,55.832031 249.30859,46.152344 216.96484,46.152344 c -44.08593,0 -77.62109,16.960937 -100.59765,50.871094 C 97.128906,125.63672 87.511719,159.71484 87.511719,199.25 c 0,32.09375 6.382812,61.37109 19.152341,87.83984 12.76563,26.46485 29.48828,45.85938 50.17188,58.1836 20.67968,12.32422 41.91406,18.48437 63.70312,18.48437 12.76953,0 25.10938,-1.55859 37.02344,-4.71094 11.91797,-3.14453 23.40625,-7.77734 34.47266,-13.89843 l 0,-97.26563 c 0,-16.87109 -1.31641,-27.91406 -3.96094,-33.125 -2.63672,-5.20703 -6.72266,-9.17969 -12.25391,-11.91015 -5.53515,-2.72657 -15.27734,-4.09375 -29.23437,-4.09375 l 0,-9.42969 134.04687,0 0,9.42969 -6.38281,0 c -13.27734,0 -22.38672,4.30078 -27.32031,12.90234 -3.40625,6.12109 -5.10547,18.19922 -5.10547,36.22656 l 0,102.97656 c -19.57813,10.25 -38.89844,17.78125 -57.96094,22.57813 -19.06641,4.79687 -40.25781,7.19531 -63.57812,7.19531 -66.89844,0 -117.70703,-20.84375 -152.433598,-62.52734 -26.042968,-31.26563 -39.0625,-67.32813 -39.0625,-108.1875 0,-29.60547 7.316407,-57.97656 21.957032,-85.10547 C 68.109375,92.558594 91.9375,67.742188 122.23828,50.375 c 25.36328,-14.390625 55.32031,-21.589844 89.875,-21.589844 12.59766,0 24.04297,1 34.34375,2.976563 10.29688,1.996093 24.89453,6.371093 43.78906,13.152343 9.53125,3.472657 15.91407,5.210938 19.14844,5.210938 3.23438,0 6,-1.457031 8.30078,-4.34375 2.29297,-2.890625 3.69922,-8.558594 4.21094,-16.996094 z m 0,0"
     style="fill:#ffffff;fill-opacity:1;fill-rule:nonzero;stroke:none" />
</svg>
