<?xml version="1.0" encoding="UTF-8"?>
<svg xmlns="http://www.w3.org/2000/svg" xmlns:xlink="http://www.w3.org/1999/xlink" width="410pt" height="410pt" viewBox="0 0 410 410" version="1.1">
<g id="surface1">
<path style=" stroke:none;fill-rule:evenodd;fill:rgb(0%,20%,40%);fill-opacity:1;" d="M 151.613281 75.273438 L 151.613281 338.730469 L 140.402344 338.730469 L 140.402344 208.203125 L 86.75 208.203125 L 86.75 338.730469 L 75.808594 338.730469 L 75.808594 282.410156 L 22.15625 282.410156 L 22.15625 338.730469 L 0 338.730469 L 0 365.691406 L 290.417969 365.691406 L 290.417969 338.730469 L 270.398438 338.730469 L 270.398438 189.785156 L 216.746094 189.785156 L 216.746094 338.730469 L 205.265625 338.730469 L 205.265625 189.519531 C 183.457031 188.277344 166.296875 170.273438 166.296875 148.144531 L 166.296875 89.953125 C 166.296875 84.726562 167.210938 79.871094 168.964844 75.273438 Z M 151.613281 75.273438 "/>
<path style=" stroke:none;fill-rule:nonzero;fill:rgb(0%,20%,40%);fill-opacity:1;" d="M 204.074219 44.417969 C 180.210938 44.417969 161.085938 63.542969 161.085938 87.40625 L 161.085938 148.039062 C 161.085938 171.902344 180.210938 191.027344 204.074219 191.027344 L 366.824219 191.027344 C 390.691406 191.027344 410 171.902344 410 148.039062 L 410 87.40625 C 410 63.542969 390.691406 44.417969 366.824219 44.417969 Z M 209.332031 52.117188 L 361.757812 52.117188 C 384.125 52.117188 402.117188 69.261719 402.117188 90.597656 L 402.117188 144.847656 C 402.117188 166.183594 384.125 183.332031 361.757812 183.332031 L 209.332031 183.332031 C 186.964844 183.332031 168.972656 166.183594 168.972656 144.847656 L 168.972656 90.597656 C 168.972656 69.261719 186.964844 52.117188 209.332031 52.117188 Z M 209.332031 52.117188 "/>
<path style=" stroke:none;fill-rule:nonzero;fill:rgb(0%,20%,40%);fill-opacity:1;" d="M 184.984375 130.160156 L 199.007812 128.796875 C 199.851562 133.503906 201.5625 136.960938 204.144531 139.167969 C 206.722656 141.375 210.203125 142.480469 214.585938 142.480469 C 219.226562 142.480469 222.722656 141.496094 225.078125 139.535156 C 227.429688 137.570312 228.605469 135.273438 228.605469 132.644531 C 228.605469 130.957031 228.113281 129.519531 227.121094 128.335938 C 226.132812 127.152344 224.402344 126.121094 221.9375 125.246094 C 220.25 124.660156 216.402344 123.621094 210.398438 122.128906 C 202.675781 120.214844 197.253906 117.859375 194.140625 115.070312 C 189.757812 111.140625 187.566406 106.355469 187.566406 100.707031 C 187.566406 97.074219 188.597656 93.671875 190.65625 90.507812 C 192.71875 87.34375 195.6875 84.933594 199.566406 83.277344 C 203.445312 81.625 208.128906 80.796875 213.613281 80.796875 C 222.570312 80.796875 229.3125 82.757812 233.839844 86.6875 C 238.367188 90.613281 240.746094 95.855469 240.972656 102.410156 L 226.5625 103.042969 C 225.945312 99.378906 224.625 96.738281 222.59375 95.132812 C 220.566406 93.527344 217.523438 92.722656 213.464844 92.722656 C 209.28125 92.722656 206 93.582031 203.632812 95.304688 C 202.105469 96.40625 201.34375 97.882812 201.34375 99.734375 C 201.34375 101.421875 202.058594 102.867188 203.484375 104.066406 C 205.304688 105.59375 209.71875 107.183594 216.726562 108.839844 C 223.738281 110.492188 228.921875 112.207031 232.28125 113.972656 C 235.640625 115.742188 238.269531 118.160156 240.167969 121.226562 C 242.070312 124.296875 243.019531 128.085938 243.019531 132.597656 C 243.019531 136.683594 241.882812 140.515625 239.609375 144.085938 C 237.339844 147.65625 234.125 150.308594 229.96875 152.046875 C 225.816406 153.78125 220.640625 154.648438 214.441406 154.648438 C 205.417969 154.648438 198.488281 152.566406 193.652344 148.394531 C 188.816406 144.222656 185.925781 138.144531 184.984375 130.160156 Z M 184.984375 130.160156 "/>
<path style=" stroke:none;fill-rule:nonzero;fill:rgb(0%,20%,40%);fill-opacity:1;" d="M 273.445312 153.382812 L 247.933594 82.011719 L 263.5625 82.011719 L 281.625 134.835938 L 299.101562 82.011719 L 314.390625 82.011719 L 288.828125 153.382812 Z M 273.445312 153.382812 "/>
<path style=" stroke:none;fill-rule:nonzero;fill:rgb(0%,20%,40%);fill-opacity:1;" d="M 355.039062 127.144531 L 355.039062 115.117188 L 386.101562 115.117188 L 386.101562 143.550781 C 383.082031 146.472656 378.707031 149.042969 372.980469 151.265625 C 367.25 153.488281 361.449219 154.601562 355.574219 154.601562 C 348.109375 154.601562 341.601562 153.035156 336.054688 149.902344 C 330.503906 146.769531 326.332031 142.292969 323.542969 136.464844 C 320.75 130.640625 319.355469 124.304688 319.355469 117.457031 C 319.355469 110.023438 320.914062 103.417969 324.027344 97.640625 C 327.144531 91.863281 331.703125 87.433594 337.707031 84.351562 C 342.285156 81.980469 347.980469 80.796875 354.796875 80.796875 C 363.65625 80.796875 370.578125 82.652344 375.5625 86.371094 C 380.542969 90.085938 383.746094 95.222656 385.175781 101.777344 L 370.863281 104.457031 C 369.855469 100.953125 367.964844 98.183594 365.191406 96.15625 C 362.414062 94.128906 358.949219 93.113281 354.796875 93.113281 C 348.5 93.113281 343.492188 95.109375 339.777344 99.101562 C 336.0625 103.09375 334.203125 109.015625 334.203125 116.871094 C 334.203125 125.34375 336.085938 131.695312 339.851562 135.929688 C 343.617188 140.167969 348.550781 142.285156 354.652344 142.285156 C 357.667969 142.285156 360.695312 141.691406 363.730469 140.507812 C 366.765625 139.324219 369.371094 137.886719 371.542969 136.199219 L 371.542969 127.144531 Z M 355.039062 127.144531 "/>
</g>
</svg>
