<?xml version="1.0" encoding="UTF-8"?>
<svg xmlns="http://www.w3.org/2000/svg" xmlns:xlink="http://www.w3.org/1999/xlink" width="410pt" height="410pt" viewBox="0 0 410 410" version="1.1">
<g id="surface1">
<path style=" stroke:none;fill-rule:evenodd;fill:rgb(0%,20%,40%);fill-opacity:1;" d="M 203.933594 0 C 91.273438 0 0 91.273438 0 203.933594 C 0 316.589844 91.273438 407.863281 203.933594 407.863281 C 316.589844 407.863281 407.863281 316.589844 407.863281 203.933594 C 407.863281 91.273438 316.589844 0 203.933594 0 Z M 203.398438 64.863281 C 233.71875 64.863281 257.820312 72.773438 275.734375 88.621094 C 293.652344 104.46875 302.695312 122.824219 302.695312 143.875 C 302.695312 155.523438 299.394531 166.574219 292.820312 176.972656 C 286.242188 187.371094 272.191406 201.5 250.644531 219.414062 C 239.492188 228.683594 232.519531 236.199219 229.824219 241.835938 C 227.128906 247.472656 225.835938 257.464844 226.085938 272 L 178.308594 272 C 178.183594 265.109375 178.039062 260.957031 178.039062 259.453125 C 178.039062 243.917969 180.644531 231.304688 185.78125 221.28125 C 190.917969 211.261719 201.066406 199.910156 216.476562 187.382812 C 231.886719 174.855469 241.230469 166.710938 244.238281 162.824219 C 248.875 156.6875 251.179688 149.929688 251.179688 142.539062 C 251.179688 132.265625 247.105469 123.441406 238.898438 116.113281 C 230.695312 108.785156 219.707031 105.167969 205.800781 105.167969 C 192.394531 105.167969 181.1875 109.003906 172.167969 116.648438 C 163.148438 124.289062 156.867188 135.6875 153.484375 151.347656 L 104.902344 145.476562 C 106.28125 123.050781 116.003906 104.011719 133.730469 88.351562 C 151.457031 72.691406 174.582031 64.863281 203.398438 64.863281 Z M 178.308594 290.417969 L 231.160156 290.417969 L 231.160156 343.269531 L 178.308594 343.269531 Z M 178.308594 290.417969 "/>
</g>
</svg>
