<?xml version="1.0" encoding="UTF-8"?>
<svg xmlns="http://www.w3.org/2000/svg" xmlns:xlink="http://www.w3.org/1999/xlink" width="410pt" height="410pt" viewBox="0 0 410 410" version="1.1">
<g id="surface1">
<path style=" stroke:none;fill-rule:evenodd;fill:rgb(0%,20%,40%);fill-opacity:1;" d="M 151.613281 75.273438 L 151.613281 338.730469 L 140.402344 338.730469 L 140.402344 208.203125 L 86.75 208.203125 L 86.75 338.730469 L 75.808594 338.730469 L 75.808594 282.410156 L 22.15625 282.410156 L 22.15625 338.730469 L 0 338.730469 L 0 365.691406 L 290.417969 365.691406 L 290.417969 338.730469 L 270.398438 338.730469 L 270.398438 189.785156 L 216.746094 189.785156 L 216.746094 338.730469 L 205.265625 338.730469 L 205.265625 189.519531 C 183.457031 188.277344 166.296875 170.273438 166.296875 148.144531 L 166.296875 89.953125 C 166.296875 84.726562 167.210938 79.871094 168.964844 75.273438 Z M 151.613281 75.273438 "/>
<path style=" stroke:none;fill-rule:nonzero;fill:rgb(0%,20%,40%);fill-opacity:1;" d="M 221.214844 83.414062 L 235.582031 83.414062 L 235.582031 128.605469 C 235.582031 134.515625 235.0625 139.0625 234.023438 142.242188 C 232.625 146.398438 230.09375 149.734375 226.425781 152.25 C 222.757812 154.765625 217.921875 156.023438 211.914062 156.023438 C 204.871094 156.023438 199.449219 154.050781 195.648438 150.105469 C 191.851562 146.164062 189.9375 140.375 189.902344 132.746094 L 203.488281 131.1875 C 203.652344 135.28125 204.253906 138.167969 205.292969 139.855469 C 206.851562 142.421875 209.21875 143.703125 212.402344 143.703125 C 215.613281 143.703125 217.886719 142.785156 219.21875 140.953125 C 220.550781 139.117188 221.214844 135.3125 221.214844 129.53125 Z M 221.214844 83.414062 "/>
<path style=" stroke:none;fill-rule:nonzero;fill:rgb(0%,20%,40%);fill-opacity:1;" d="M 250.96875 154.804688 L 250.96875 83.414062 L 274.101562 83.414062 C 282.867188 83.414062 288.582031 83.773438 291.242188 84.488281 C 295.332031 85.558594 298.757812 87.886719 301.515625 91.476562 C 304.277344 95.0625 305.65625 99.699219 305.65625 105.378906 C 305.65625 109.761719 304.859375 113.445312 303.269531 116.433594 C 301.679688 119.417969 299.660156 121.765625 297.207031 123.46875 C 294.757812 125.175781 292.265625 126.300781 289.734375 126.855469 C 286.292969 127.535156 281.308594 127.878906 274.78125 127.878906 L 265.382812 127.878906 L 265.382812 154.808594 Z M 265.382812 95.492188 L 265.382812 115.75 L 273.273438 115.75 C 278.953125 115.75 282.753906 115.378906 284.667969 114.632812 C 286.582031 113.886719 288.085938 112.714844 289.171875 111.125 C 290.261719 109.535156 290.804688 107.683594 290.804688 105.574219 C 290.804688 102.976562 290.039062 100.832031 288.515625 99.144531 C 286.988281 97.457031 285.058594 96.402344 282.71875 95.980469 C 281 95.65625 277.542969 95.492188 272.347656 95.492188 Z M 265.382812 95.492188 "/>
<path style=" stroke:none;fill-rule:nonzero;fill:rgb(0%,20%,40%);fill-opacity:1;" d="M 350.800781 128.558594 L 350.800781 116.53125 L 381.867188 116.53125 L 381.867188 144.96875 C 378.847656 147.890625 374.472656 150.464844 368.742188 152.6875 C 363.015625 154.910156 357.210938 156.023438 351.335938 156.023438 C 343.867188 156.023438 337.359375 154.457031 331.808594 151.324219 C 326.253906 148.191406 322.085938 143.710938 319.292969 137.882812 C 316.5 132.054688 315.105469 125.71875 315.105469 118.867188 C 315.105469 111.433594 316.660156 104.828125 319.777344 99.046875 C 322.894531 93.269531 327.457031 88.835938 333.464844 85.753906 C 338.039062 83.382812 343.738281 82.199219 350.554688 82.199219 C 359.417969 82.199219 366.339844 84.058594 371.324219 87.773438 C 376.308594 91.492188 379.515625 96.628906 380.941406 103.1875 L 366.625 105.867188 C 365.617188 102.359375 363.726562 99.589844 360.953125 97.5625 C 358.175781 95.535156 354.710938 94.519531 350.554688 94.519531 C 344.257812 94.519531 339.25 96.515625 335.53125 100.507812 C 331.816406 104.503906 329.957031 110.425781 329.957031 118.285156 C 329.957031 126.757812 331.839844 133.113281 335.605469 137.347656 C 339.371094 141.585938 344.304688 143.703125 350.410156 143.703125 C 353.429688 143.703125 356.457031 143.113281 359.492188 141.925781 C 362.527344 140.742188 365.132812 139.304688 367.308594 137.617188 L 367.308594 128.558594 Z M 350.800781 128.558594 "/>
<path style=" stroke:none;fill-rule:nonzero;fill:rgb(0%,20%,40%);fill-opacity:1;" d="M 204.074219 44.417969 C 180.210938 44.417969 161.085938 63.542969 161.085938 87.40625 L 161.085938 148.039062 C 161.085938 171.902344 180.210938 191.027344 204.074219 191.027344 L 366.824219 191.027344 C 390.691406 191.027344 410 171.902344 410 148.039062 L 410 87.40625 C 410 63.542969 390.691406 44.417969 366.824219 44.417969 Z M 209.332031 52.117188 L 361.757812 52.117188 C 384.125 52.117188 402.117188 69.261719 402.117188 90.597656 L 402.117188 144.847656 C 402.117188 166.183594 384.125 183.332031 361.757812 183.332031 L 209.332031 183.332031 C 186.964844 183.332031 168.972656 166.183594 168.972656 144.847656 L 168.972656 90.597656 C 168.972656 69.261719 186.964844 52.117188 209.332031 52.117188 Z M 209.332031 52.117188 "/>
</g>
</svg>
