<?xml version="1.0" encoding="UTF-8" standalone="no"?>
<svg
   xmlns:dc="http://purl.org/dc/elements/1.1/"
   xmlns:cc="http://creativecommons.org/ns#"
   xmlns:rdf="http://www.w3.org/1999/02/22-rdf-syntax-ns#"
   xmlns:svg="http://www.w3.org/2000/svg"
   xmlns="http://www.w3.org/2000/svg"
   xmlns:sodipodi="http://sodipodi.sourceforge.net/DTD/sodipodi-0.dtd"
   xmlns:inkscape="http://www.inkscape.org/namespaces/inkscape"
   width="410pt"
   height="410pt"
   viewBox="0 0 410 410"
   version="1.1"
   id="svg2"
   inkscape:version="0.48.2 r9819"
   sodipodi:docname="linkedin.svg">
  <metadata
     id="metadata51">
    <rdf:RDF>
      <cc:Work
         rdf:about="">
        <dc:format>image/svg+xml</dc:format>
        <dc:type
           rdf:resource="http://purl.org/dc/dcmitype/StillImage" />
      </cc:Work>
    </rdf:RDF>
  </metadata>
  <defs
     id="defs49" />
  <sodipodi:namedview
     pagecolor="#ffffff"
     bordercolor="#666666"
     borderopacity="1"
     objecttolerance="10"
     gridtolerance="10"
     guidetolerance="10"
     inkscape:pageopacity="0"
     inkscape:pageshadow="2"
     inkscape:window-width="640"
     inkscape:window-height="480"
     id="namedview47"
     showgrid="false"
     inkscape:zoom="0.4604878"
     inkscape:cx="256.25"
     inkscape:cy="256.25"
     inkscape:window-x="0"
     inkscape:window-y="0"
     inkscape:window-maximized="0"
     inkscape:current-layer="svg2" />
  <path
     style="fill:#003366;fill-opacity:1;fill-rule:nonzero;stroke:none"
     d="M 41.96875 2.90625 C 18.794922 2.90625 6.2450045e-017 21.669921 0 44.84375 L 0 470.53125 C 0 493.70508 18.794922 512.5 41.96875 512.5 L 467.65625 512.5 C 490.83008 512.5 509.59375 493.70507 509.59375 470.53125 L 509.59375 44.84375 C 509.59375 21.669921 490.83008 2.90625 467.65625 2.90625 L 41.96875 2.90625 z M 128.875 101.90625 C 138.99707 102.07227 147.03809 104.98438 153 110.6875 C 158.9668 116.39062 162.0293 123.86719 162.15625 133.125 C 161.96581 142.72949 158.80566 150.31835 152.6875 155.875 C 146.56445 161.4121 138.63575 164.375 128.875 164.375 C 118.94824 164.18456 111.01172 161.21386 105.09375 155.4375 C 99.170898 149.66601 96.161134 142.21191 96 133.125 C 96.175781 123.86719 99.253906 116.39062 105.25 110.6875 C 111.25098 104.97949 119.12891 102.22852 128.875 101.90625 z M 338.28125 188.90625 C 359.98535 188.79395 377.86621 196.042 391.875 210.65625 C 405.88379 225.27051 413.11035 247.92871 413.59375 278.65625 L 413.59375 413.5 L 352.03125 413.5 L 352.03125 284.96875 C 352.19726 271.19922 349.55665 259.81446 344.15625 250.78125 C 338.75586 241.75294 329.60058 237.06739 316.65625 236.75 C 307.72558 236.55957 299.0332 239.9873 290.625 247.0625 C 282.2168 254.14257 277.73046 266.00879 277.125 282.625 L 277.125 413.5 L 215.53125 413.5 L 215.53125 259.6875 C 215.51661 246.90429 215.33204 235.09179 215 224.28125 C 214.67285 213.4707 214.30957 203.24901 213.875 193.625 L 267.125 193.625 L 270.03125 223.28125 L 271.28125 223.28125 C 276.51562 214.75586 284.79298 206.99706 296.0625 200 C 307.33204 193.00781 321.3916 189.32129 338.28125 188.90625 z M 98.5 193.25 L 160.09375 193.25 L 160.09375 413.5 L 98.5 413.5 L 98.5 193.25 z "
     transform="scale(0.8,0.8)"
     id="path41" />
</svg>
