<?xml version="1.0" encoding="UTF-8"?>
<svg xmlns="http://www.w3.org/2000/svg" xmlns:xlink="http://www.w3.org/1999/xlink" width="410pt" height="410pt" viewBox="0 0 410 410" version="1.1">
<g id="surface1">
<path style=" stroke:none;fill-rule:nonzero;fill:rgb(0%,20%,40%);fill-opacity:1;" d="M 105.167969 -1.066406 L 105.167969 54.988281 L 295.222656 54.988281 L 295.222656 58.191406 L 379.035156 58.191406 L 379.035156 76.339844 L 295.222656 76.339844 L 295.222656 95.027344 L 379.035156 95.027344 L 379.035156 113.445312 L 295.222656 113.445312 L 295.222656 131.863281 L 379.035156 131.863281 L 379.035156 150.28125 L 295.222656 150.28125 L 295.222656 168.699219 L 379.035156 168.699219 L 379.035156 187.117188 L 295.222656 187.117188 L 295.222656 205.535156 L 379.035156 205.535156 L 379.035156 223.953125 L 295.222656 223.953125 L 295.222656 242.636719 L 379.035156 242.636719 L 379.035156 260.789062 L 295.222656 260.789062 L 295.222656 279.472656 L 379.035156 279.472656 L 379.035156 297.625 L 295.222656 297.625 L 295.222656 316.308594 L 379.035156 316.308594 L 379.035156 334.460938 L 295.222656 334.460938 L 295.222656 353.144531 L 379.035156 353.144531 L 379.035156 371.296875 L 136.398438 371.296875 L 136.398438 353.679688 L 105.167969 353.679688 L 105.167969 410 L 410 410 L 410 -1.066406 Z M 105.167969 -1.066406 "/>
<path style=" stroke:none;fill-rule:nonzero;fill:rgb(0%,20%,40%);fill-opacity:1;" d="M 0 62.460938 L 0 347.273438 L 285.078125 347.273438 L 285.078125 62.460938 Z M 61.394531 120.917969 L 112.375 120.917969 L 142.804688 235.429688 L 172.96875 120.917969 L 223.953125 120.917969 L 223.953125 289.082031 L 192.1875 289.082031 L 192.1875 156.6875 L 158.820312 289.082031 L 126.257812 289.082031 L 92.890625 156.6875 L 92.890625 289.082031 L 61.394531 289.082031 Z M 61.394531 120.917969 "/>
</g>
</svg>
