<?xml version="1.0" encoding="UTF-8"?>
<svg xmlns="http://www.w3.org/2000/svg" xmlns:xlink="http://www.w3.org/1999/xlink" width="410pt" height="410pt" viewBox="0 0 410 410" version="1.1">
<g id="surface1">
<path style=" stroke:none;fill-rule:nonzero;fill:rgb(0%,20%,40%);fill-opacity:1;" d="M 192.515625 44.265625 C 167.3125 44.265625 147.117188 64.460938 147.117188 89.664062 L 147.117188 153.699219 C 147.117188 178.902344 167.3125 199.101562 192.515625 199.101562 L 364.402344 199.101562 C 389.605469 199.101562 410 178.902344 410 153.699219 L 410 89.664062 C 410 64.460938 389.605469 44.265625 364.402344 44.265625 Z M 198.070312 52.394531 L 359.050781 52.394531 C 382.671875 52.394531 401.671875 70.503906 401.671875 93.035156 L 401.671875 150.328125 C 401.671875 172.859375 382.671875 190.972656 359.050781 190.972656 L 198.070312 190.972656 C 174.445312 190.972656 155.445312 172.859375 155.445312 150.328125 L 155.445312 93.035156 C 155.445312 70.503906 174.445312 52.394531 198.070312 52.394531 Z M 198.070312 52.394531 "/>
<path style=" stroke:none;fill-rule:nonzero;fill:rgb(0%,20%,40%);fill-opacity:1;" d="M 153.484375 61.761719 C 68.757812 61.761719 0 130.253906 0 214.980469 C 0 299.707031 68.757812 368.460938 153.484375 368.460938 C 238.207031 368.460938 306.964844 299.707031 306.964844 214.980469 C 306.964844 209.125 306.535156 203.3125 305.898438 197.628906 L 296.023438 197.628906 C 295.621094 201.433594 294.917969 205.386719 293.886719 209.375 C 285.28125 242.710938 243.632812 231.863281 237.832031 224.320312 C 233.320312 218.460938 233.9375 203.835938 229.023438 197.628906 L 217.8125 197.628906 C 212.398438 204.722656 213.171875 222.382812 207.136719 221.917969 C 199.59375 221.351562 183.839844 203.945312 178.039062 205.101562 C 172.238281 206.265625 168.410156 215.050781 175.371094 220.851562 C 182.332031 226.652344 184.332031 223.429688 192.453125 224.589844 C 200.574219 225.75 206.179688 243.53125 198.058594 247.011719 C 189.621094 261.820312 188.371094 281.089844 178.839844 293.988281 C 175.679688 299.925781 167.730469 311.738281 165.226562 313.742188 C 159.425781 318.382812 147.609375 323.886719 147.609375 323.886719 C 147.609375 323.886719 137.707031 328.722656 131.328125 318.28125 C 124.945312 307.839844 137.902344 270.3125 129.191406 259.289062 C 120.488281 248.269531 109.878906 237.796875 84.617188 233.664062 C 85.296875 225.273438 78.214844 220.558594 79.011719 213.109375 C 80.304688 207.304688 86.605469 191.839844 89.6875 191.222656 C 101.289062 188.902344 130.644531 177.402344 135.867188 186.683594 C 141.085938 195.964844 162.375 208.953125 164.695312 200.832031 C 165.75 197.128906 168.140625 191.34375 169.765625 185.882812 C 164.574219 181.078125 160.660156 175.105469 158.289062 168.265625 C 147.773438 163.269531 133.847656 155.875 129.992188 159.726562 C 124.769531 164.945312 122.003906 177.050781 106.238281 177.074219 C 93.78125 177.097656 89.769531 173.277344 92.089844 163.996094 C 94.410156 154.714844 88.179688 147.980469 100.363281 147.980469 C 112.546875 147.980469 121.71875 147.789062 121.71875 140.238281 L 129.460938 123.15625 C 136.03125 123.636719 135.648438 111.621094 154.816406 108.742188 C 154.40625 107.902344 154.765625 107.445312 155.886719 107.40625 L 155.886719 92.460938 C 155.886719 80.695312 160.394531 70.144531 167.898438 62.296875 C 163.164062 61.859375 158.332031 61.761719 153.484375 61.761719 Z M 121.183594 107.40625 C 123.796875 106.289062 124.082031 110.605469 122.785156 113.546875 L 122.785156 119.953125 C 123.3125 121.730469 121.667969 121.929688 117.714844 121.554688 C 113.398438 112.675781 117.316406 109.050781 121.183594 107.40625 Z M 66.199219 204.300781 C 68.832031 203.878906 72.023438 204.394531 73.671875 206.171875 C 73.125 209.101562 71.109375 207.585938 68.601562 209.90625 C 61.210938 205.742188 62.597656 207.132812 63.796875 205.101562 C 64.421875 204.800781 65.320312 204.441406 66.199219 204.300781 Z M 193.253906 286.78125 C 193.78125 286.492188 194.222656 286.53125 194.324219 286.78125 C 195.59375 286.992188 193.210938 294.460938 191.121094 293.1875 C 189.242188 290.574219 191.679688 287.65625 193.253906 286.78125 Z M 193.253906 286.78125 "/>
<path style=" stroke:none;fill-rule:nonzero;fill:rgb(0%,20%,40%);fill-opacity:1;" d="M 184.71875 157.367188 L 184.71875 85.996094 L 207.84375 85.996094 C 216.609375 85.996094 222.320312 86.355469 224.980469 87.066406 C 229.070312 88.140625 232.496094 90.46875 235.253906 94.054688 C 238.011719 97.640625 239.390625 102.273438 239.390625 107.953125 C 239.390625 112.335938 238.597656 116.019531 237.007812 119.003906 C 235.417969 121.992188 233.394531 124.335938 230.945312 126.039062 C 228.496094 127.742188 226.003906 128.871094 223.472656 129.421875 C 220.03125 130.105469 215.050781 130.445312 208.527344 130.445312 L 199.128906 130.445312 L 199.128906 157.367188 Z M 199.128906 98.070312 L 199.128906 118.324219 L 207.015625 118.324219 C 212.695312 118.324219 216.496094 117.949219 218.410156 117.203125 C 220.324219 116.457031 221.824219 115.289062 222.914062 113.699219 C 224 112.109375 224.542969 110.257812 224.542969 108.148438 C 224.542969 105.550781 223.78125 103.410156 222.253906 101.722656 C 220.730469 100.035156 218.800781 98.980469 216.460938 98.558594 C 214.742188 98.234375 211.285156 98.070312 206.09375 98.070312 Z M 199.128906 98.070312 "/>
<path style=" stroke:none;fill-rule:nonzero;fill:rgb(0%,20%,40%);fill-opacity:1;" d="M 251.269531 85.996094 L 277.609375 85.996094 C 283.550781 85.996094 288.078125 86.449219 291.191406 87.359375 C 295.378906 88.59375 298.964844 90.785156 301.953125 93.933594 C 304.9375 97.082031 307.210938 100.933594 308.765625 105.496094 C 310.324219 110.054688 311.105469 115.679688 311.105469 122.363281 C 311.105469 128.238281 310.375 133.300781 308.914062 137.554688 C 307.128906 142.746094 304.582031 146.949219 301.269531 150.164062 C 298.769531 152.597656 295.394531 154.496094 291.144531 155.859375 C 287.964844 156.863281 283.710938 157.367188 278.386719 157.367188 L 251.269531 157.367188 Z M 265.683594 98.070312 L 265.683594 145.34375 L 276.441406 145.34375 C 280.464844 145.34375 283.371094 145.117188 285.15625 144.660156 C 287.492188 144.078125 289.429688 143.085938 290.972656 141.691406 C 292.515625 140.296875 293.773438 138 294.746094 134.800781 C 295.71875 131.605469 296.207031 127.25 296.207031 121.730469 C 296.207031 116.214844 295.71875 111.976562 294.746094 109.023438 C 293.773438 106.070312 292.410156 103.765625 290.65625 102.109375 C 288.902344 100.457031 286.679688 99.335938 283.988281 98.75 C 281.976562 98.296875 278.03125 98.070312 272.15625 98.070312 Z M 265.683594 98.070312 "/>
<path style=" stroke:none;fill-rule:nonzero;fill:rgb(0%,20%,40%);fill-opacity:1;" d="M 323.46875 157.367188 L 323.46875 85.996094 L 372.398438 85.996094 L 372.398438 98.070312 L 337.878906 98.070312 L 337.878906 114.964844 L 367.675781 114.964844 L 367.675781 127.039062 L 337.878906 127.039062 L 337.878906 157.367188 Z M 323.46875 157.367188 "/>
</g>
</svg>
