<?xml version="1.0" encoding="UTF-8"?>
<svg xmlns="http://www.w3.org/2000/svg" xmlns:xlink="http://www.w3.org/1999/xlink" width="410pt" height="410pt" viewBox="0 0 410 410" version="1.1">
<g id="surface1">
<path style=" stroke:none;fill-rule:nonzero;fill:rgb(0%,20%,40%);fill-opacity:1;" d="M 192.515625 44.265625 C 167.3125 44.265625 147.117188 64.460938 147.117188 89.664062 L 147.117188 153.699219 C 147.117188 178.902344 167.3125 199.101562 192.515625 199.101562 L 364.402344 199.101562 C 389.605469 199.101562 410 178.902344 410 153.699219 L 410 89.664062 C 410 64.460938 389.605469 44.265625 364.402344 44.265625 Z M 198.070312 52.394531 L 359.050781 52.394531 C 382.671875 52.394531 401.671875 70.503906 401.671875 93.035156 L 401.671875 150.328125 C 401.671875 172.859375 382.671875 190.972656 359.050781 190.972656 L 198.070312 190.972656 C 174.445312 190.972656 155.445312 172.859375 155.445312 150.328125 L 155.445312 93.035156 C 155.445312 70.503906 174.445312 52.394531 198.070312 52.394531 Z M 198.070312 52.394531 "/>
<path style=" stroke:none;fill-rule:nonzero;fill:rgb(0%,20%,40%);fill-opacity:1;" d="M 153.484375 61.761719 C 68.757812 61.761719 0 130.253906 0 214.980469 C 0 299.707031 68.757812 368.460938 153.484375 368.460938 C 238.207031 368.460938 306.964844 299.707031 306.964844 214.980469 C 306.964844 209.125 306.535156 203.3125 305.898438 197.628906 L 296.023438 197.628906 C 295.621094 201.433594 294.917969 205.386719 293.886719 209.375 C 285.28125 242.710938 243.632812 231.863281 237.832031 224.320312 C 233.320312 218.460938 233.9375 203.835938 229.023438 197.628906 L 217.8125 197.628906 C 212.398438 204.722656 213.171875 222.382812 207.136719 221.917969 C 199.59375 221.351562 183.839844 203.945312 178.039062 205.101562 C 172.238281 206.265625 168.410156 215.050781 175.371094 220.851562 C 182.332031 226.652344 184.332031 223.429688 192.453125 224.589844 C 200.574219 225.75 206.179688 243.53125 198.058594 247.011719 C 189.621094 261.820312 188.371094 281.089844 178.839844 293.988281 C 175.679688 299.925781 167.730469 311.738281 165.226562 313.742188 C 159.425781 318.382812 147.609375 323.886719 147.609375 323.886719 C 147.609375 323.886719 137.707031 328.722656 131.328125 318.28125 C 124.945312 307.839844 137.902344 270.3125 129.191406 259.289062 C 120.488281 248.269531 109.878906 237.796875 84.617188 233.664062 C 85.296875 225.273438 78.214844 220.558594 79.011719 213.109375 C 80.304688 207.304688 86.605469 191.839844 89.6875 191.222656 C 101.289062 188.902344 130.644531 177.402344 135.867188 186.683594 C 141.085938 195.964844 162.375 208.953125 164.695312 200.832031 C 165.75 197.128906 168.140625 191.34375 169.765625 185.882812 C 164.574219 181.078125 160.660156 175.105469 158.289062 168.265625 C 147.773438 163.269531 133.847656 155.875 129.992188 159.726562 C 124.769531 164.945312 122.003906 177.050781 106.238281 177.074219 C 93.78125 177.097656 89.769531 173.277344 92.089844 163.996094 C 94.410156 154.714844 88.179688 147.980469 100.363281 147.980469 C 112.546875 147.980469 121.71875 147.789062 121.71875 140.238281 L 129.460938 123.15625 C 136.03125 123.636719 135.648438 111.621094 154.816406 108.742188 C 154.40625 107.902344 154.765625 107.445312 155.886719 107.40625 L 155.886719 92.460938 C 155.886719 80.695312 160.394531 70.144531 167.898438 62.296875 C 163.164062 61.859375 158.332031 61.761719 153.484375 61.761719 Z M 121.183594 107.40625 C 123.796875 106.289062 124.082031 110.605469 122.785156 113.546875 L 122.785156 119.953125 C 123.3125 121.730469 121.667969 121.929688 117.714844 121.554688 C 113.398438 112.675781 117.316406 109.050781 121.183594 107.40625 Z M 66.199219 204.300781 C 68.832031 203.878906 72.023438 204.394531 73.671875 206.171875 C 73.125 209.101562 71.109375 207.585938 68.601562 209.90625 C 61.210938 205.742188 62.597656 207.132812 63.796875 205.101562 C 64.421875 204.800781 65.320312 204.441406 66.199219 204.300781 Z M 193.253906 286.78125 C 193.78125 286.492188 194.222656 286.53125 194.324219 286.78125 C 195.59375 286.992188 193.210938 294.460938 191.121094 293.1875 C 189.242188 290.574219 191.679688 287.65625 193.253906 286.78125 Z M 193.253906 286.78125 "/>
<path style=" stroke:none;fill-rule:nonzero;fill:rgb(0%,20%,40%);fill-opacity:1;" d="M 177.101562 157.367188 L 177.101562 85.996094 L 200.226562 85.996094 C 208.988281 85.996094 214.703125 86.355469 217.363281 87.066406 C 221.453125 88.140625 224.875 90.46875 227.636719 94.054688 C 230.394531 97.640625 231.773438 102.273438 231.773438 107.953125 C 231.773438 112.335938 230.976562 116.019531 229.386719 119.003906 C 227.796875 121.992188 225.777344 124.335938 223.328125 126.039062 C 220.875 127.742188 218.386719 128.871094 215.855469 129.421875 C 212.414062 130.105469 207.429688 130.445312 200.90625 130.445312 L 191.511719 130.445312 L 191.511719 157.367188 Z M 191.511719 98.070312 L 191.511719 118.324219 L 199.398438 118.324219 C 205.078125 118.324219 208.875 117.949219 210.789062 117.203125 C 212.707031 116.457031 214.207031 115.289062 215.292969 113.699219 C 216.382812 112.109375 216.925781 110.257812 216.925781 108.148438 C 216.925781 105.550781 216.160156 103.410156 214.636719 101.722656 C 213.109375 100.035156 211.179688 98.980469 208.84375 98.558594 C 207.121094 98.234375 203.667969 98.070312 198.472656 98.070312 Z M 191.511719 98.070312 "/>
<path style=" stroke:none;fill-rule:nonzero;fill:rgb(0%,20%,40%);fill-opacity:1;" d="M 243.847656 157.367188 L 243.847656 85.996094 L 257.867188 85.996094 L 287.078125 133.660156 L 287.078125 85.996094 L 300.464844 85.996094 L 300.464844 157.367188 L 286.007812 157.367188 L 257.234375 110.824219 L 257.234375 157.367188 Z M 243.847656 157.367188 "/>
<path style=" stroke:none;fill-rule:nonzero;fill:rgb(0%,20%,40%);fill-opacity:1;" d="M 348.957031 131.125 L 348.957031 119.101562 L 380.015625 119.101562 L 380.015625 147.535156 C 377 150.453125 372.625 153.027344 366.894531 155.25 C 361.167969 157.472656 355.367188 158.585938 349.492188 158.585938 C 342.027344 158.585938 335.519531 157.019531 329.96875 153.886719 C 324.417969 150.753906 320.25 146.277344 317.457031 140.449219 C 314.667969 134.625 313.269531 128.285156 313.269531 121.4375 C 313.269531 114.007812 314.828125 107.402344 317.945312 101.625 C 321.058594 95.847656 325.621094 91.417969 331.625 88.332031 C 336.199219 85.964844 341.898438 84.78125 348.710938 84.78125 C 357.574219 84.78125 364.496094 86.636719 369.476562 90.355469 C 374.457031 94.070312 377.664062 99.207031 379.089844 105.761719 L 364.777344 108.441406 C 363.773438 104.933594 361.882812 102.167969 359.105469 100.140625 C 356.332031 98.109375 352.867188 97.097656 348.710938 97.097656 C 342.417969 97.097656 337.410156 99.09375 333.695312 103.085938 C 329.976562 107.078125 328.121094 113 328.121094 120.855469 C 328.121094 129.324219 330 135.679688 333.765625 139.914062 C 337.53125 144.148438 342.464844 146.269531 348.566406 146.269531 C 351.585938 146.269531 354.613281 145.675781 357.644531 144.492188 C 360.679688 143.304688 363.285156 141.871094 365.460938 140.183594 L 365.460938 131.125 Z M 348.957031 131.125 "/>
</g>
</svg>
