<?xml version="1.0" encoding="UTF-8"?>
<svg xmlns="http://www.w3.org/2000/svg" xmlns:xlink="http://www.w3.org/1999/xlink" width="410pt" height="410pt" viewBox="0 0 410 410" version="1.1">
<g id="surface1">
<path style=" stroke:none;fill-rule:nonzero;fill:rgb(0%,0%,0%);fill-opacity:1;" d="M 203.664062 0 C 124.167969 0 50.261719 47.898438 17.617188 120.382812 C -15.4375 193.816406 -1.171875 282.269531 53.117188 341.667969 C 107.347656 400.988281 193.757812 423.050781 269.863281 396.921875 C 344.636719 371.269531 399.261719 302.394531 406.796875 223.683594 C 418.097656 105.492188 322.488281 0 203.664062 0 Z M 276.269531 57.921875 C 278.796875 57.085938 282.105469 58.875 282.675781 61.660156 C 292.753906 63.273438 297.546875 55.863281 308.300781 62.996094 C 340.699219 84.578125 365.722656 115.46875 378.503906 165.761719 C 384.242188 188.328125 385.347656 213.492188 378.769531 211.671875 C 374.335938 210.460938 376.609375 200.601562 373.699219 197.792969 C 366.042969 199.578125 353.015625 212.382812 349.675781 219.414062 C 347.597656 223.796875 351.867188 240.769531 342.734375 240.769531 C 339.054688 240.769531 337.125 227.324219 336.59375 225.019531 C 335.03125 218.347656 333.910156 211.261719 330.988281 205 C 327.683594 197.808594 324.773438 202.289062 319.511719 201.261719 C 312.738281 199.914062 314.105469 190.863281 304.5625 190.050781 C 295.757812 189.335938 292.75 196.339844 293.886719 203.933594 C 286.148438 212.183594 274.78125 225.070312 262.121094 225.019531 C 253.53125 224.984375 252.523438 198.441406 242.101562 193.523438 C 236.824219 191.003906 229.566406 196.886719 233.828125 202.0625 C 238.457031 207.675781 238.328125 215.347656 244.238281 220.214844 C 254.523438 228.621094 263.667969 238.273438 277.070312 227.957031 C 275.710938 243.691406 263.898438 252.621094 254.648438 263.992188 C 249.457031 270.371094 245.25 277.613281 246.90625 286.144531 C 248.316406 293.339844 253.507812 303.066406 247.707031 309.636719 C 243.898438 313.992188 235.21875 316.398438 234.894531 323.25 C 235.871094 325.8125 236.425781 328.539062 236.230469 331.257812 C 234.402344 335.039062 230.515625 337.511719 228.488281 341.398438 C 224.636719 348.839844 216.570312 363.15625 207.9375 365.957031 C 203.707031 367.332031 192.824219 370.917969 189.519531 366.757812 C 180.746094 355.695312 183.714844 330.03125 178.574219 317.109375 C 175.175781 308.578125 181.65625 304.25 181.777344 296.289062 C 181.878906 290.199219 177.691406 285.027344 174.835938 280.007812 C 171.15625 273.574219 171.902344 269.386719 172.167969 262.390625 C 172.390625 255.785156 165.90625 259.152344 162.292969 257.050781 C 158.261719 254.71875 157.878906 249.46875 152.148438 253.046875 C 147.21875 256.070312 132.160156 258.550781 126.523438 257.585938 C 118.347656 256.175781 108.320312 238.460938 106.238281 231.160156 C 104.316406 224.308594 109.476562 217.957031 107.570312 212.207031 C 105.539062 206.167969 107.328125 200.390625 111.308594 195.65625 C 117.40625 188.464844 124.582031 176.589844 132.394531 171.902344 C 137.957031 168.550781 145.277344 171.585938 151.882812 169.765625 C 157.792969 168.167969 166.699219 166.203125 172.96875 167.628906 C 179.503906 169.109375 172.109375 175.640625 176.4375 178.039062 C 181.496094 180.824219 185.035156 183.28125 189.785156 186.316406 C 194.679688 189.414062 196.675781 180.503906 200.195312 179.640625 C 204.476562 178.601562 210.261719 178.238281 214.609375 179.109375 C 223.039062 180.882812 240.175781 174.824219 231.691406 162.292969 C 228.710938 157.902344 220.730469 156.679688 216.210938 154.816406 C 210.625 152.496094 214.09375 142.988281 206.601562 143.339844 C 200.980469 144.730469 208.507812 150.746094 206.601562 154.015625 C 203.117188 159.988281 196.554688 147.363281 195.65625 145.742188 C 194.617188 143.855469 182.460938 126.847656 178.574219 130.527344 C 177.277344 131.773438 199.277344 156.757812 182.578125 151.882812 C 182.527344 145.277344 175.753906 144.519531 172.167969 140.136719 C 167.164062 134.03125 163.054688 136.859375 157.488281 141.738281 C 152.046875 146.496094 144.035156 153.257812 137.46875 156.417969 C 123.132812 163.285156 125.578125 148.460938 125.988281 139.871094 C 126.246094 134.128906 134.675781 136.671875 137.734375 135.332031 C 147.042969 131.230469 138 126.984375 135.597656 123.054688 C 138.324219 118.96875 154.699219 114.125 159.355469 112.910156 C 169.84375 110.125 178.582031 101.457031 191.386719 107.839844 C 193.035156 108.632812 209.238281 98.6875 197.792969 95.828125 C 185.074219 88.265625 184.480469 99.277344 174.835938 102.234375 C 174.769531 91.597656 148.78125 90.570312 158.554688 76.339844 C 166.507812 64.714844 172.839844 63.058594 195.390625 61.394531 C 211.894531 60.300781 220.105469 60.773438 223.683594 63.796875 C 227.253906 66.820312 228.273438 77.675781 219.679688 78.742188 C 221.285156 92.957031 236.148438 79.988281 241.835938 76.339844 C 251.214844 70.335938 270.917969 73.949219 273.601562 71.804688 C 276.265625 69.660156 271.800781 63.644531 274.132812 59.792969 C 274.683594 58.878906 275.425781 58.203125 276.269531 57.921875 Z M 276.269531 57.921875 "/>
<path style=" stroke:none;fill-rule:nonzero;fill:rgb(0%,0%,0%);fill-opacity:1;" d="M 129.925781 88.464844 C 135.539062 72.109375 165.835938 98.015625 149.589844 112.246094 C 145.703125 115.652344 124.605469 115.097656 129.097656 110.179688 C 130.882812 108.214844 133.644531 108.199219 135.417969 105.738281 C 140.03125 99.324219 132.8125 93.503906 129.925781 88.464844 "/>
<path style=" stroke:none;fill-rule:nonzero;fill:rgb(0%,0%,0%);fill-opacity:1;" d="M 273.761719 316.03125 C 273.238281 322.535156 268.695312 338.660156 259.828125 338.660156 C 253.398438 338.660156 253.484375 329.597656 254.113281 325.199219 C 256.488281 309.464844 263.1875 306.519531 271.726562 294.714844 C 277.648438 299.734375 274.308594 309.449219 273.761719 316.03125 "/>
</g>
</svg>
