<?xml version="1.0" encoding="UTF-8"?>
<svg xmlns="http://www.w3.org/2000/svg" xmlns:xlink="http://www.w3.org/1999/xlink" width="410pt" height="410pt" viewBox="0 0 410 410" version="1.1">
<g id="surface1">
<path style=" stroke:none;fill-rule:nonzero;fill:rgb(0%,0%,0%);fill-opacity:1;" d="M 300.992188 273.230469 C 301 299.300781 279.867188 320.4375 253.796875 320.4375 C 227.730469 320.4375 206.597656 299.300781 206.601562 273.230469 C 206.597656 247.164062 227.730469 226.027344 253.796875 226.027344 C 279.867188 226.027344 301 247.164062 300.992188 273.230469 Z M 300.992188 273.230469 "/>
<path style=" stroke:none;fill-rule:nonzero;fill:rgb(0%,0%,0%);fill-opacity:1;" d="M 399.148438 157.703125 C 399.152344 173.214844 386.578125 185.792969 371.066406 185.792969 C 355.550781 185.792969 342.976562 173.214844 342.980469 157.703125 C 342.976562 142.1875 355.550781 129.609375 371.066406 129.609375 C 386.578125 129.609375 399.152344 142.1875 399.148438 157.703125 Z M 399.148438 157.703125 "/>
<path style=" stroke:none;fill-rule:nonzero;fill:rgb(0%,0%,0%);fill-opacity:1;" d="M 371.351562 226.324219 C 371.355469 241.359375 359.171875 253.546875 344.136719 253.546875 C 329.105469 253.546875 316.917969 241.359375 316.921875 226.324219 C 316.917969 211.292969 329.105469 199.101562 344.136719 199.101562 C 359.171875 199.101562 371.355469 211.292969 371.351562 226.324219 Z M 371.351562 226.324219 "/>
<path style=" stroke:none;fill-rule:nonzero;fill:rgb(0%,0%,0%);fill-opacity:1;" d="M 58.640625 315.796875 C 58.644531 329.390625 47.625 340.410156 34.03125 340.410156 C 20.4375 340.410156 9.417969 329.390625 9.421875 315.796875 C 9.417969 302.203125 20.4375 291.179688 34.03125 291.179688 C 47.625 291.179688 58.644531 302.203125 58.640625 315.796875 Z M 58.640625 315.796875 "/>
<path style=" stroke:none;fill-rule:nonzero;fill:rgb(0%,0%,0%);fill-opacity:1;" d="M 209.785156 199.398438 C 209.792969 225.464844 188.660156 246.601562 162.589844 246.601562 C 136.519531 246.601562 115.390625 225.464844 115.394531 199.398438 C 115.390625 173.328125 136.519531 152.191406 162.589844 152.191406 C 188.660156 152.191406 209.792969 173.328125 209.785156 199.398438 Z M 209.785156 199.398438 "/>
<path style=" stroke:none;fill-rule:nonzero;fill:rgb(0%,0%,0%);fill-opacity:1;" d="M 71.671875 140.328125 C 71.675781 156.324219 58.710938 169.289062 42.71875 169.289062 C 26.726562 169.289062 13.761719 156.324219 13.765625 140.328125 C 13.761719 124.335938 26.726562 111.371094 42.71875 111.371094 C 58.710938 111.371094 71.675781 124.335938 71.671875 140.328125 Z M 71.671875 140.328125 "/>
<path style=" stroke:none;fill-rule:nonzero;fill:rgb(0%,0%,0%);fill-opacity:1;" d="M 108.152344 244.566406 C 108.15625 256.722656 98.304688 266.574219 86.148438 266.574219 C 73.996094 266.574219 64.144531 256.722656 64.144531 244.566406 C 64.144531 232.414062 73.996094 222.558594 86.148438 222.558594 C 98.304688 222.558594 108.15625 232.414062 108.152344 244.566406 Z M 108.152344 244.566406 "/>
<path style=" stroke:none;fill-rule:nonzero;fill:rgb(0%,0%,0%);fill-opacity:1;" d="M 312.007812 82.132812 C 312.015625 108.203125 290.882812 129.339844 264.816406 129.339844 C 238.746094 129.339844 217.613281 108.203125 217.621094 82.132812 C 217.613281 56.066406 238.746094 34.929688 264.816406 34.929688 C 290.882812 34.929688 312.015625 56.066406 312.007812 82.132812 Z M 312.007812 82.132812 "/>
<path style=" stroke:none;fill-rule:nonzero;fill:rgb(0%,0%,0%);fill-opacity:1;" d="M 185.90625 336.859375 C 185.914062 362.929688 164.78125 384.066406 138.710938 384.066406 C 112.644531 384.066406 91.511719 362.929688 91.515625 336.859375 C 91.511719 310.792969 112.644531 289.65625 138.710938 289.65625 C 164.78125 289.65625 185.914062 310.792969 185.90625 336.859375 Z M 185.90625 336.859375 "/>
<path style=" stroke:none;fill-rule:nonzero;fill:rgb(0%,0%,0%);fill-opacity:1;" d="M 158.363281 74.566406 C 158.367188 89.601562 146.179688 101.789062 131.144531 101.789062 C 116.113281 101.789062 103.925781 89.601562 103.929688 74.566406 C 103.925781 59.535156 116.113281 47.347656 131.144531 47.347656 C 146.179688 47.347656 158.367188 59.535156 158.363281 74.566406 Z M 158.363281 74.566406 "/>
<path style=" stroke:none;fill-rule:nonzero;fill:rgb(0%,0%,0%);fill-opacity:1;" d="M 271.855469 177.972656 C 271.855469 184.648438 266.445312 190.058594 259.769531 190.058594 C 253.09375 190.058594 247.683594 184.648438 247.6875 177.972656 C 247.683594 171.296875 253.09375 165.886719 259.769531 165.886719 C 266.445312 165.886719 271.855469 171.296875 271.855469 177.972656 Z M 271.855469 177.972656 "/>
</g>
</svg>
