<?xml version="1.0" encoding="UTF-8" standalone="no"?>
<svg
   xmlns:dc="http://purl.org/dc/elements/1.1/"
   xmlns:cc="http://creativecommons.org/ns#"
   xmlns:rdf="http://www.w3.org/1999/02/22-rdf-syntax-ns#"
   xmlns:svg="http://www.w3.org/2000/svg"
   xmlns="http://www.w3.org/2000/svg"
   xmlns:sodipodi="http://sodipodi.sourceforge.net/DTD/sodipodi-0.dtd"
   xmlns:inkscape="http://www.inkscape.org/namespaces/inkscape"
   width="410pt"
   height="410pt"
   viewBox="0 0 410 410"
   version="1.1"
   id="svg2"
   inkscape:version="0.48.2 r9819"
   sodipodi:docname="meneame.svg">
  <metadata
     id="metadata79">
    <rdf:RDF>
      <cc:Work
         rdf:about="">
        <dc:format>image/svg+xml</dc:format>
        <dc:type
           rdf:resource="http://purl.org/dc/dcmitype/StillImage" />
      </cc:Work>
    </rdf:RDF>
  </metadata>
  <defs
     id="defs77" />
  <sodipodi:namedview
     pagecolor="#ffffff"
     bordercolor="#666666"
     borderopacity="1"
     objecttolerance="10"
     gridtolerance="10"
     guidetolerance="10"
     inkscape:pageopacity="0"
     inkscape:pageshadow="2"
     inkscape:window-width="640"
     inkscape:window-height="480"
     id="namedview75"
     showgrid="false"
     inkscape:zoom="0.4604878"
     inkscape:cx="256.25"
     inkscape:cy="295.85978"
     inkscape:window-x="0"
     inkscape:window-y="0"
     inkscape:window-maximized="0"
     inkscape:current-layer="svg2" />
  <path
     style="fill:#003366;fill-opacity:1;fill-rule:nonzero;stroke:none"
     d="M 42.15625 0.71875 C 18.879882 0.71875 -5.5511151e-017 19.598632 0 42.875 L 0 470.34375 C 0 493.62011 18.879882 512.5 42.15625 512.5 L 469.625 512.5 C 492.90136 512.5 511.78125 493.62011 511.78125 470.34375 L 511.78125 42.875 C 511.78125 19.598632 492.90136 0.71875 469.625 0.71875 L 42.15625 0.71875 z M 229.875 58.4375 C 272.80724 58.035995 314.79315 79.852478 345.25 86.0625 C 370.38671 91.18457 403.04394 110.20703 421.59375 66.75 C 434.74804 126.2666 358.77441 122.4707 322.96875 103.28125 C 256.09375 67.441406 178.41504 87.881835 151.90625 145.875 C 134.76269 183.38965 182.43652 238.02344 231.71875 240.40625 C 256.94825 239.06348 258.43946 244.17285 239.71875 249.34375 C 124.45509 267.94726 101.92383 164.75586 132.96875 117.5 C 162.53418 72.485352 196.48326 58.749782 229.875 58.4375 z M 455.5625 66.125 C 500.4502 140.90527 449.6787 167.71094 414.625 185.875 C 318.71191 220.4209 369.7002 304.46094 387.9375 347 C 398.37696 371.46778 410.17579 402.27344 394.53125 424.34375 C 382.79297 440.41309 345.70703 448.59961 313.65625 448.6875 C 301.73243 448.71675 300.1748 448.3086 302.875 445.75 C 394.98438 409.20214 385.4414 409.1416 364.25 356.1875 C 321.08105 248.97558 323.0498 208.81836 372.78125 182.03125 C 473.1914 142.11914 460.66992 136.47169 455.5625 66.125 z M 114.65625 197.53125 C 114.73604 197.52885 114.80774 197.55804 114.84375 197.59375 C 93.28125 252.17382 47.207032 316.04785 71.71875 369.96875 C 92.338868 415.32031 161.10156 433.28125 204.8125 437.96875 C 272.97656 444.96582 275.875 445.38086 275.875 447.65625 C 188.53125 462.96386 89.405274 454.75586 50.875 387.34375 C 19.991211 333.31055 59.426758 243.0166 100.75 207.40625 C 107.47455 201.81696 113.45947 197.5673 114.65625 197.53125 z "
     transform="scale(0.8,0.8)"
     id="path65" />
  <path
     inkscape:connector-curvature="0"
     id="path69"
     d="m 220.32422,298.08594 c -21.97266,-10.17188 -31.17969,-7.42578 -52.16016,-16.64063 -5.44922,-7.3164 51.94141,-4.69531 64.55469,-1.76562 10.90625,2.53125 6.26953,53.51953 5.12891,77.22265 -18.375,13.23047 -3.74219,-43.3164 -17.52344,-58.8164 z m 0,0"
     style="fill:#ffffff;fill-opacity:1;fill-rule:nonzero;stroke:none" />
</svg>
