<?xml version="1.0" encoding="UTF-8"?>
<svg xmlns="http://www.w3.org/2000/svg" xmlns:xlink="http://www.w3.org/1999/xlink" width="410pt" height="410pt" viewBox="0 0 410 410" version="1.1">
<g id="surface1">
<path style=" stroke:none;fill-rule:nonzero;fill:rgb(0%,20%,40%);fill-opacity:1;" d="M 0 5.339844 L 0 410 L 300.828125 410 L 300.828125 213.007812 L 276.269531 213.007812 L 276.269531 217.011719 L 24.023438 217.011719 L 24.023438 197.792969 L 81.945312 197.792969 C 76.882812 193.300781 72.539062 188.015625 69.132812 182.042969 L 24.824219 182.042969 L 24.824219 162.558594 L 62.195312 162.558594 C 61.460938 158.6875 60.859375 154.644531 60.859375 150.546875 L 60.859375 146.542969 L 24.023438 146.542969 L 24.023438 127.058594 L 60.859375 127.058594 L 60.859375 111.042969 L 24.023438 111.042969 L 24.023438 91.824219 L 60.859375 91.824219 L 60.859375 75.808594 L 24.023438 75.808594 L 24.023438 56.589844 L 61.125 56.589844 C 63.304688 33.53125 77.539062 14.152344 97.429688 5.339844 Z M 24.023438 233.027344 L 276.269531 233.027344 L 276.269531 252.511719 L 24.023438 252.511719 Z M 24.023438 268.261719 L 276.269531 268.261719 L 276.269531 287.746094 L 24.023438 287.746094 Z M 24.023438 303.761719 L 276.269531 303.761719 L 276.269531 322.980469 L 24.023438 322.980469 Z M 24.023438 338.996094 L 276.269531 338.996094 L 276.269531 358.484375 L 24.023438 358.484375 Z M 24.023438 338.996094 "/>
<path style=" stroke:none;fill-rule:nonzero;fill:rgb(0%,20%,40%);fill-opacity:1;" d="M 102.210938 151.609375 L 102.210938 49.632812 L 134.921875 49.632812 C 147.320312 49.632812 155.398438 50.144531 159.164062 51.164062 C 164.949219 52.691406 169.792969 56.023438 173.695312 61.144531 C 177.597656 66.269531 179.546875 72.890625 179.546875 81.003906 C 179.546875 87.265625 178.425781 92.53125 176.171875 96.796875 C 173.921875 101.0625 171.066406 104.414062 167.601562 106.847656 C 164.132812 109.28125 160.609375 110.894531 157.027344 111.679688 C 152.164062 112.65625 145.117188 113.144531 135.886719 113.144531 L 122.597656 113.144531 L 122.597656 151.609375 Z M 122.597656 66.886719 L 122.597656 95.824219 L 133.753906 95.824219 C 141.785156 95.824219 147.160156 95.289062 149.867188 94.222656 C 152.574219 93.15625 154.699219 91.488281 156.238281 89.214844 C 157.773438 86.941406 158.542969 84.296875 158.542969 81.285156 C 158.542969 77.574219 157.464844 74.515625 155.308594 72.101562 C 153.148438 69.691406 150.417969 68.183594 147.113281 67.582031 C 144.675781 67.117188 139.789062 66.886719 132.445312 66.886719 Z M 122.597656 66.886719 "/>
<path style=" stroke:none;fill-rule:nonzero;fill:rgb(0%,20%,40%);fill-opacity:1;" d="M 196.351562 49.632812 L 233.605469 49.632812 C 242.007812 49.632812 248.414062 50.285156 252.820312 51.582031 C 258.742188 53.34375 263.816406 56.472656 268.039062 60.972656 C 272.261719 65.46875 275.476562 70.976562 277.679688 77.492188 C 279.882812 84.007812 280.984375 92.042969 280.984375 101.597656 C 280.984375 109.988281 279.953125 117.222656 277.886719 123.296875 C 275.363281 130.71875 271.757812 136.722656 267.074219 141.316406 C 263.539062 144.792969 258.765625 147.503906 252.75 149.453125 C 248.25 150.890625 242.238281 151.609375 234.707031 151.609375 L 196.351562 151.609375 Z M 216.734375 66.886719 L 216.734375 134.429688 L 231.953125 134.429688 C 237.648438 134.429688 241.753906 134.105469 244.28125 133.457031 C 247.585938 132.621094 250.328125 131.207031 252.511719 129.210938 C 254.691406 127.21875 256.46875 123.9375 257.847656 119.371094 C 259.222656 114.800781 259.910156 108.574219 259.914062 100.691406 C 259.914062 92.808594 259.222656 86.757812 257.847656 82.535156 C 256.46875 78.316406 254.542969 75.023438 252.0625 72.660156 C 249.585938 70.292969 246.4375 68.695312 242.628906 67.859375 C 239.78125 67.210938 234.203125 66.886719 225.894531 66.886719 Z M 216.734375 66.886719 "/>
<path style=" stroke:none;fill-rule:nonzero;fill:rgb(0%,20%,40%);fill-opacity:1;" d="M 298.476562 151.609375 L 298.476562 49.632812 L 367.6875 49.632812 L 367.6875 66.886719 L 318.859375 66.886719 L 318.859375 91.023438 L 361.007812 91.023438 L 361.007812 108.273438 L 318.859375 108.273438 L 318.859375 151.609375 Z M 298.476562 151.609375 "/>
<path style=" stroke:none;fill-rule:nonzero;fill:rgb(0%,20%,40%);fill-opacity:1;" d="M 120.941406 -6.039062 C 87.441406 -6.039062 60.597656 22.105469 60.597656 57.226562 L 60.597656 146.460938 C 60.597656 181.585938 87.441406 209.730469 120.941406 209.730469 L 349.394531 209.730469 C 382.894531 209.730469 410 181.585938 410 146.460938 L 410 57.226562 C 410 22.105469 382.894531 -6.039062 349.394531 -6.039062 Z M 128.316406 5.289062 L 342.28125 5.289062 C 373.675781 5.289062 398.933594 30.523438 398.933594 61.921875 L 398.933594 141.765625 C 398.933594 173.164062 373.675781 198.402344 342.28125 198.402344 L 128.316406 198.402344 C 96.921875 198.402344 71.664062 173.164062 71.664062 141.765625 L 71.664062 61.921875 C 71.664062 30.523438 96.921875 5.289062 128.316406 5.289062 Z M 128.316406 5.289062 "/>
</g>
</svg>
