<?xml version="1.0" encoding="UTF-8" standalone="no"?>
<svg
   xmlns:dc="http://purl.org/dc/elements/1.1/"
   xmlns:cc="http://creativecommons.org/ns#"
   xmlns:rdf="http://www.w3.org/1999/02/22-rdf-syntax-ns#"
   xmlns:svg="http://www.w3.org/2000/svg"
   xmlns="http://www.w3.org/2000/svg"
   xmlns:sodipodi="http://sodipodi.sourceforge.net/DTD/sodipodi-0.dtd"
   xmlns:inkscape="http://www.inkscape.org/namespaces/inkscape"
   width="410pt"
   height="410pt"
   viewBox="0 0 410 410"
   version="1.1"
   id="svg5"
   sodipodi:docname="radio-unchecked.svg"
   inkscape:version="0.92.1 r15371">
  <metadata
     id="metadata11">
    <rdf:RDF>
      <cc:Work
         rdf:about="">
        <dc:format>image/svg+xml</dc:format>
        <dc:type
           rdf:resource="http://purl.org/dc/dcmitype/StillImage" />
      </cc:Work>
    </rdf:RDF>
  </metadata>
  <defs
     id="defs9" />
  <sodipodi:namedview
     pagecolor="#ffffff"
     bordercolor="#666666"
     borderopacity="1"
     objecttolerance="10"
     gridtolerance="10"
     guidetolerance="10"
     inkscape:pageopacity="0"
     inkscape:pageshadow="2"
     inkscape:window-width="1920"
     inkscape:window-height="1017"
     id="namedview7"
     showgrid="false"
     inkscape:zoom="0.98788059"
     inkscape:cx="231.0591"
     inkscape:cy="273.33333"
     inkscape:window-x="-8"
     inkscape:window-y="-8"
     inkscape:window-maximized="1"
     inkscape:current-layer="svg5" />
  <path
     style="fill:#000000;fill-opacity:1;fill-rule:nonzero;stroke:none"
     d="M 365.07031,342.25781"
     id="path2" />
  <path
     style="opacity:1;fill:#17375d;fill-opacity:1;stroke:none;stroke-width:1.18325257;stroke-miterlimit:4;stroke-dasharray:none;stroke-opacity:1"
     d="M 273.33398 0.56835938 A 272.76462 272.76462 0 0 0 0.56835938 273.33398 A 272.76462 272.76462 0 0 0 273.33398 546.09766 A 272.76462 272.76462 0 0 0 546.09766 273.33398 A 272.76462 272.76462 0 0 0 273.33398 0.56835938 z M 273.33398 60.164062 A 213.17005 213.17005 0 0 1 486.50391 273.33398 A 213.17005 213.17005 0 0 1 273.33398 486.50391 A 213.17005 213.17005 0 0 1 60.164062 273.33398 A 213.17005 213.17005 0 0 1 273.33398 60.164062 z "
     transform="scale(0.74999997)"
     id="path4483" />
</svg>
