<?xml version="1.0" encoding="UTF-8" standalone="no"?>
<svg
   xmlns:dc="http://purl.org/dc/elements/1.1/"
   xmlns:cc="http://creativecommons.org/ns#"
   xmlns:rdf="http://www.w3.org/1999/02/22-rdf-syntax-ns#"
   xmlns:svg="http://www.w3.org/2000/svg"
   xmlns="http://www.w3.org/2000/svg"
   xmlns:sodipodi="http://sodipodi.sourceforge.net/DTD/sodipodi-0.dtd"
   xmlns:inkscape="http://www.inkscape.org/namespaces/inkscape"
   width="410pt"
   height="410pt"
   viewBox="0 0 410 410"
   version="1.1"
   id="svg5"
   sodipodi:docname="radio-checked.svg"
   inkscape:version="0.92.1 r15371">
  <metadata
     id="metadata11">
    <rdf:RDF>
      <cc:Work
         rdf:about="">
        <dc:format>image/svg+xml</dc:format>
        <dc:type
           rdf:resource="http://purl.org/dc/dcmitype/StillImage" />
      </cc:Work>
    </rdf:RDF>
  </metadata>
  <defs
     id="defs9" />
  <sodipodi:namedview
     pagecolor="#ffffff"
     bordercolor="#666666"
     borderopacity="1"
     objecttolerance="10"
     gridtolerance="10"
     guidetolerance="10"
     inkscape:pageopacity="0"
     inkscape:pageshadow="2"
     inkscape:window-width="1920"
     inkscape:window-height="1017"
     id="namedview7"
     showgrid="false"
     inkscape:zoom="1.3754699"
     inkscape:cx="313.02504"
     inkscape:cy="273.33333"
     inkscape:window-x="-8"
     inkscape:window-y="-8"
     inkscape:window-maximized="1"
     inkscape:current-layer="svg5" />
  <path
     id="path4488"
     style="opacity:1;fill:#17375d;fill-opacity:1;stroke:none;stroke-width:0.61619651;stroke-miterlimit:4;stroke-dasharray:none;stroke-opacity:1"
     d="M 294.31052,205 A 89.310516,89.310516 0 0 1 205,294.31052 89.310516,89.310516 0 0 1 115.68948,205 89.310516,89.310516 0 0 1 205,115.68948 89.310516,89.310516 0 0 1 294.31052,205 Z M 205.00048,0.42626952 A 204.57346,204.57346 0 0 0 0.42626952,205.00048 204.57346,204.57346 0 0 0 205.00048,409.57323 204.57346,204.57346 0 0 0 409.57323,205.00048 204.57346,204.57346 0 0 0 205.00048,0.42626952 Z m 0,44.69677548 A 159.87753,159.87753 0 0 1 364.87792,205.00048 159.87753,159.87753 0 0 1 205.00048,364.87792 159.87753,159.87753 0 0 1 45.123045,205.00048 159.87753,159.87753 0 0 1 205.00048,45.123045 Z M 365.07031,342.25781" />
</svg>
