<?xml version="1.0" encoding="UTF-8"?>
<svg xmlns="http://www.w3.org/2000/svg" xmlns:xlink="http://www.w3.org/1999/xlink" width="410pt" height="410pt" viewBox="0 0 410 410" version="1.1">
<g id="surface1">
<path style=" stroke:none;fill-rule:nonzero;fill:rgb(0%,20%,40%);fill-opacity:1;" d="M 117.179688 0 C 83.246094 0 56.054688 27.191406 56.054688 61.125 L 56.054688 147.34375 C 56.054688 181.277344 83.246094 208.46875 117.179688 208.46875 L 348.605469 208.46875 C 382.542969 208.46875 410 181.277344 410 147.34375 L 410 61.125 C 410 27.191406 382.542969 0 348.605469 0 Z M 124.65625 10.945312 L 341.398438 10.945312 C 373.203125 10.945312 398.789062 35.328125 398.789062 65.664062 L 398.789062 142.804688 C 398.789062 173.144531 373.203125 197.527344 341.398438 197.527344 L 124.65625 197.527344 C 92.851562 197.527344 67.265625 173.144531 67.265625 142.804688 L 67.265625 65.664062 C 67.265625 35.328125 92.851562 10.945312 124.65625 10.945312 Z M 124.65625 10.945312 "/>
<path style=" stroke:none;fill-rule:nonzero;fill:rgb(0%,20%,40%);fill-opacity:1;" d="M 223.578125 219.125 L 307.03125 219.125 L 307.03125 302.578125 L 223.578125 302.578125 Z M 223.578125 219.125 "/>
<path style=" stroke:none;fill-rule:nonzero;fill:rgb(0%,20%,40%);fill-opacity:1;" d="M 111.789062 219.125 L 195.242188 219.125 L 195.242188 302.578125 L 111.789062 302.578125 Z M 111.789062 219.125 "/>
<path style=" stroke:none;fill-rule:nonzero;fill:rgb(0%,20%,40%);fill-opacity:1;" d="M 0 219.125 L 83.453125 219.125 L 83.453125 302.578125 L 0 302.578125 Z M 0 219.125 "/>
<path style=" stroke:none;fill-rule:nonzero;fill:rgb(0%,20%,40%);fill-opacity:1;" d="M 0 111.605469 L 0 195.152344 L 78.210938 195.152344 C 64.605469 183.9375 56.054688 166.726562 56.054688 147.640625 L 56.054688 111.605469 Z M 0 111.605469 "/>
<path style=" stroke:none;fill-rule:nonzero;fill:rgb(0%,20%,40%);fill-opacity:1;" d="M 0 4.300781 L 0 87.847656 L 56.054688 87.847656 L 56.054688 61.421875 C 56.054688 39.996094 66.980469 21.378906 83.546875 10.441406 L 83.546875 4.300781 Z M 0 4.300781 "/>
<path style=" stroke:none;fill-rule:nonzero;fill:rgb(0%,20%,40%);fill-opacity:1;" d="M 223.578125 326.546875 L 307.03125 326.546875 L 307.03125 410 L 223.578125 410 Z M 223.578125 326.546875 "/>
<path style=" stroke:none;fill-rule:nonzero;fill:rgb(0%,20%,40%);fill-opacity:1;" d="M 111.789062 326.546875 L 195.242188 326.546875 L 195.242188 410 L 111.789062 410 Z M 111.789062 326.546875 "/>
<path style=" stroke:none;fill-rule:nonzero;fill:rgb(0%,20%,40%);fill-opacity:1;" d="M 0 326.546875 L 83.453125 326.546875 L 83.453125 410 L 0 410 Z M 0 326.546875 "/>
<path style=" stroke:none;fill-rule:nonzero;fill:rgb(0%,20%,40%);fill-opacity:1;" d="M 101.460938 154.230469 L 101.460938 54.484375 L 143.847656 54.484375 C 154.507812 54.488281 162.253906 55.382812 167.082031 57.171875 C 171.914062 58.964844 175.78125 62.152344 178.683594 66.734375 C 181.585938 71.316406 183.039062 76.554688 183.039062 82.449219 C 183.039062 89.933594 180.839844 96.113281 176.4375 100.992188 C 172.039062 105.867188 165.460938 108.941406 156.707031 110.210938 C 161.0625 112.75 164.65625 115.539062 167.492188 118.578125 C 170.328125 121.617188 174.148438 127.015625 178.957031 134.773438 L 191.136719 154.230469 L 167.050781 154.230469 L 152.488281 132.527344 C 147.316406 124.769531 143.78125 119.882812 141.875 117.863281 C 139.96875 115.847656 137.949219 114.460938 135.820312 113.714844 C 133.6875 112.964844 130.308594 112.59375 125.679688 112.589844 L 121.597656 112.589844 L 121.597656 154.230469 Z M 121.597656 96.671875 L 136.5 96.671875 C 146.160156 96.671875 152.195312 96.261719 154.597656 95.445312 C 157.003906 94.628906 158.882812 93.222656 160.246094 91.226562 C 161.605469 89.230469 162.285156 86.738281 162.285156 83.742188 C 162.285156 80.386719 161.390625 77.675781 159.597656 75.613281 C 157.808594 73.546875 155.277344 72.246094 152.011719 71.699219 C 150.378906 71.472656 145.480469 71.359375 137.316406 71.359375 L 121.597656 71.359375 Z M 121.597656 96.671875 "/>
<path style=" stroke:none;fill-rule:nonzero;fill:rgb(0%,20%,40%);fill-opacity:1;" d="M 202.019531 54.484375 L 238.832031 54.484375 C 247.132812 54.488281 253.457031 55.121094 257.8125 56.390625 C 263.664062 58.113281 268.675781 61.175781 272.851562 65.578125 C 277.023438 69.976562 280.199219 75.363281 282.375 81.734375 C 284.554688 88.109375 285.640625 95.96875 285.640625 105.3125 C 285.640625 113.523438 284.621094 120.597656 282.578125 126.539062 C 280.085938 133.796875 276.523438 139.671875 271.898438 144.160156 C 268.40625 147.5625 263.6875 150.21875 257.746094 152.121094 C 253.300781 153.527344 247.359375 154.230469 239.917969 154.230469 L 202.019531 154.230469 Z M 222.160156 71.359375 L 222.160156 137.425781 L 237.199219 137.425781 C 242.820312 137.425781 246.882812 137.109375 249.375 136.472656 C 252.640625 135.65625 255.351562 134.273438 257.507812 132.324219 C 259.660156 130.371094 261.417969 127.164062 262.78125 122.695312 C 264.140625 118.226562 264.820312 112.136719 264.820312 104.425781 C 264.820312 96.714844 264.140625 90.796875 262.78125 86.667969 C 261.417969 82.542969 259.515625 79.320312 257.066406 77.007812 C 254.617188 74.695312 251.507812 73.128906 247.742188 72.3125 C 244.929688 71.675781 239.421875 71.359375 231.210938 71.359375 Z M 222.160156 71.359375 "/>
<path style=" stroke:none;fill-rule:nonzero;fill:rgb(0%,20%,40%);fill-opacity:1;" d="M 302.921875 154.230469 L 302.921875 54.484375 L 371.304688 54.484375 L 371.304688 71.359375 L 323.0625 71.359375 L 323.0625 94.96875 L 364.703125 94.96875 L 364.703125 111.84375 L 323.0625 111.84375 L 323.0625 154.230469 Z M 302.921875 154.230469 "/>
</g>
</svg>
