<?xml version="1.0" encoding="UTF-8"?>
<svg xmlns="http://www.w3.org/2000/svg" xmlns:xlink="http://www.w3.org/1999/xlink" width="410pt" height="410pt" viewBox="0 0 410 410" version="1.1">
<g id="surface1">
<path style=" stroke:none;fill-rule:nonzero;fill:rgb(0%,0%,0%);fill-opacity:1;" d="M 393.652344 68.90625 L 125.203125 68.90625 L 2.785156 191.332031 C -0.316406 194.441406 -0.488281 199.6875 2.441406 202.96875 L 125.210938 341.085938 L 393.652344 341.085938 C 402.449219 341.085938 409.660156 333.875 409.660156 325.070312 L 409.660156 84.921875 C 409.660156 76.132812 402.449219 68.90625 393.652344 68.90625 M 340.324219 243.957031 C 343.023438 246.65625 343.023438 251.097656 340.324219 253.796875 L 311.148438 282.976562 C 308.449219 285.675781 304.015625 285.675781 301.28125 282.976562 L 261.726562 243.402344 L 222.109375 283.019531 C 219.402344 285.726562 214.976562 285.726562 212.261719 283.019531 L 183.082031 253.851562 C 180.355469 251.132812 180.355469 246.691406 183.082031 244 L 222.699219 204.386719 L 183.03125 164.734375 C 180.332031 162.019531 180.332031 157.585938 183.03125 154.878906 L 212.21875 125.691406 C 214.917969 122.984375 219.351562 122.984375 222.066406 125.691406 L 261.714844 165.367188 L 301.359375 125.75 C 304.023438 123.015625 308.472656 123.015625 311.191406 125.75 L 340.359375 154.921875 C 343.066406 157.636719 343.066406 162.070312 340.359375 164.785156 L 300.742188 204.402344 Z M 340.324219 243.957031 "/>
</g>
</svg>
