<?xml version="1.0" encoding="UTF-8"?>
<svg xmlns="http://www.w3.org/2000/svg" xmlns:xlink="http://www.w3.org/1999/xlink" width="410pt" height="410pt" viewBox="0 0 410 410" version="1.1">
<g id="surface1">
<path style=" stroke:none;fill-rule:nonzero;fill:rgb(0%,0%,0%);fill-opacity:1;" d="M 298.882812 43.453125 C 299.480469 41.625 300.050781 39.410156 300.589844 36.824219 C 301.121094 34.226562 301.394531 32.859375 301.394531 32.707031 L 302.074219 28.128906 L 302.988281 28.128906 C 302.988281 28.734375 303.144531 30.261719 303.453125 32.707031 L 306.183594 43.453125 L 322.660156 93.300781 L 282.183594 93.300781 Z M 176.0625 324.0625 C 174.695312 322.695312 172.933594 322.011719 170.800781 322.011719 L 126.886719 322.011719 L 126.886719 7.3125 C 126.886719 5.175781 126.195312 3.425781 124.828125 2.050781 C 123.46875 0.683594 121.710938 0 119.574219 0 L 75.660156 0 C 73.527344 0 71.777344 0.683594 70.402344 2.058594 C 69.035156 3.433594 68.34375 5.183594 68.34375 7.3125 L 68.34375 322.011719 L 24.4375 322.011719 C 21.082031 322.011719 18.792969 323.53125 17.570312 326.582031 C 16.347656 329.476562 16.878906 332.144531 19.175781 334.59375 L 92.359375 407.769531 C 94.035156 409.136719 95.785156 409.828125 97.621094 409.828125 C 99.605469 409.828125 101.363281 409.136719 102.882812 407.769531 L 175.839844 334.808594 C 177.367188 332.980469 178.128906 331.152344 178.128906 329.316406 C 178.128906 327.195312 177.4375 325.4375 176.0625 324.0625 Z M 341.640625 356.546875 L 341.640625 383.761719 L 284.925781 383.761719 C 281.722656 383.761719 279.421875 383.914062 278.058594 384.222656 L 274.863281 384.683594 L 274.863281 384.222656 L 277.375 381.710938 C 279.671875 378.960938 281.261719 376.976562 282.175781 375.765625 L 366.566406 254.558594 L 366.566406 234.203125 L 236.894531 234.203125 L 236.894531 286.574219 L 264.339844 286.574219 L 264.339844 260.265625 L 317.398438 260.265625 C 320.140625 260.265625 322.429688 260.035156 324.257812 259.582031 C 324.71875 259.582031 325.300781 259.539062 325.976562 259.460938 C 326.667969 259.386719 327.164062 259.34375 327.460938 259.34375 L 327.460938 260.027344 L 324.949219 262.09375 C 323.574219 263.460938 321.976562 265.507812 320.148438 268.257812 L 235.757812 389.242188 L 235.757812 409.828125 L 369.324219 409.828125 L 369.324219 356.546875 Z M 373.664062 151.402344 L 321.0625 0 L 284.011719 0 L 231.410156 151.402344 L 215.402344 151.402344 L 215.402344 175.632812 L 281.046875 175.632812 L 281.046875 151.402344 L 263.886719 151.402344 L 274.632812 118.472656 L 330.210938 118.472656 L 340.964844 151.402344 L 323.816406 151.402344 L 323.816406 175.632812 L 389.679688 175.632812 L 389.679688 151.402344 Z M 373.664062 151.402344 "/>
</g>
</svg>
