<?xml version="1.0" encoding="UTF-8"?>
<svg xmlns="http://www.w3.org/2000/svg" xmlns:xlink="http://www.w3.org/1999/xlink" width="410pt" height="410pt" viewBox="0 0 410 410" version="1.1">
<g id="surface1">
<path style=" stroke:none;fill-rule:nonzero;fill:rgb(0%,0%,0%);fill-opacity:1;" d="M 205.007812 113.433594 C 176.375 113.433594 153.128906 90.207031 153.128906 61.574219 C 153.128906 32.917969 176.375 9.695312 205.007812 9.695312 C 233.644531 9.695312 256.886719 32.917969 256.886719 61.574219 C 256.867188 90.207031 233.644531 113.433594 205.007812 113.433594 Z M 256.867188 205 C 256.867188 176.363281 233.625 153.140625 204.992188 153.140625 C 176.355469 153.140625 153.113281 176.363281 153.113281 205 C 153.113281 233.652344 176.355469 256.878906 204.992188 256.878906 C 233.625 256.878906 256.867188 233.652344 256.867188 205 Z M 256.867188 348.425781 C 256.867188 319.792969 233.625 296.550781 204.992188 296.550781 C 176.355469 296.550781 153.113281 319.792969 153.113281 348.425781 C 153.113281 377.082031 176.355469 400.304688 204.992188 400.304688 C 233.625 400.304688 256.867188 377.082031 256.867188 348.425781 Z M 256.867188 348.425781 "/>
</g>
</svg>
