<?xml version="1.0" encoding="UTF-8"?>
<svg xmlns="http://www.w3.org/2000/svg" xmlns:xlink="http://www.w3.org/1999/xlink" width="410pt" height="410pt" viewBox="0 0 410 410" version="1.1">
<g id="surface1">
<path style=" stroke:none;fill-rule:nonzero;fill:rgb(0%,0%,0%);fill-opacity:1;" d="M 343.273438 279.277344 C 326.472656 279.277344 311.308594 285.804688 299.777344 296.269531 L 180.699219 226.019531 C 182.296875 219.238281 183.382812 212.277344 183.382812 204.984375 C 183.382812 197.484375 182.210938 190.292969 180.484375 183.320312 L 299.230469 113.261719 C 310.839844 124 326.214844 130.695312 343.273438 130.695312 C 379.171875 130.695312 408.273438 101.621094 408.273438 65.703125 C 408.273438 29.777344 379.171875 0.699219 343.273438 0.699219 C 307.363281 0.699219 278.269531 29.777344 278.269531 65.703125 C 278.269531 71.101562 279.125 76.261719 280.371094 81.300781 L 164.222656 149.769531 C 147.617188 128.269531 121.863281 114.152344 92.558594 114.152344 C 42.390625 114.152344 1.71875 154.808594 1.71875 204.984375 C 1.71875 255.164062 42.390625 295.824219 92.558594 295.824219 C 122.085938 295.824219 148.042969 281.507812 164.640625 259.691406 L 280.542969 328.042969 C 279.210938 333.261719 278.261719 338.632812 278.261719 344.28125 C 278.261719 380.179688 307.355469 409.273438 343.265625 409.273438 C 379.164062 409.273438 408.265625 380.179688 408.265625 344.28125 C 408.28125 308.371094 379.183594 279.277344 343.273438 279.277344 "/>
</g>
</svg>
