<?xml version="1.0" encoding="UTF-8"?>
<svg xmlns="http://www.w3.org/2000/svg" xmlns:xlink="http://www.w3.org/1999/xlink" width="410pt" height="410pt" viewBox="0 0 410 410" version="1.1">
<g id="surface1">
<path style=" stroke:none;fill-rule:nonzero;fill:rgb(0%,20%,40%);fill-opacity:1;" d="M 176.527344 135.558594 L 191.222656 134.128906 C 192.109375 139.0625 193.902344 142.683594 196.605469 144.996094 C 199.308594 147.308594 202.957031 148.464844 207.550781 148.464844 C 212.414062 148.464844 216.078125 147.4375 218.546875 145.378906 C 221.011719 143.320312 222.246094 140.914062 222.246094 138.160156 C 222.246094 136.390625 221.726562 134.886719 220.6875 133.644531 C 219.652344 132.402344 217.839844 131.324219 215.253906 130.40625 C 213.484375 129.792969 209.453125 128.703125 203.164062 127.140625 C 195.066406 125.132812 189.386719 122.667969 186.121094 119.742188 C 181.53125 115.625 179.234375 110.609375 179.234375 104.691406 C 179.234375 100.878906 180.3125 97.316406 182.472656 94 C 184.632812 90.683594 187.746094 88.160156 191.808594 86.425781 C 195.875 84.691406 200.78125 83.824219 206.53125 83.820312 C 215.917969 83.824219 222.984375 85.878906 227.730469 89.996094 C 232.472656 94.113281 234.964844 99.605469 235.203125 106.476562 L 220.101562 107.140625 C 219.453125 103.296875 218.070312 100.53125 215.941406 98.847656 C 213.816406 97.164062 210.628906 96.324219 206.375 96.324219 C 201.988281 96.324219 198.554688 97.226562 196.070312 99.027344 C 194.472656 100.183594 193.671875 101.730469 193.671875 103.667969 C 193.671875 105.4375 194.421875 106.953125 195.917969 108.210938 C 197.820312 109.808594 202.449219 111.476562 209.796875 113.210938 C 217.140625 114.945312 222.574219 116.738281 226.097656 118.59375 C 229.617188 120.445312 232.371094 122.980469 234.363281 126.195312 C 236.351562 129.410156 237.347656 133.382812 237.347656 138.109375 C 237.347656 142.394531 236.15625 146.410156 233.773438 150.148438 C 231.394531 153.890625 228.027344 156.671875 223.671875 158.492188 C 219.320312 160.3125 213.894531 161.222656 207.398438 161.222656 C 197.941406 161.222656 190.679688 159.035156 185.609375 154.664062 C 180.542969 150.292969 177.515625 143.925781 176.53125 135.558594 Z M 176.527344 135.558594 "/>
<path style=" stroke:none;fill-rule:nonzero;fill:rgb(0%,20%,40%);fill-opacity:1;" d="M 250.203125 159.894531 L 250.203125 85.097656 L 265.304688 85.097656 L 265.304688 114.535156 L 294.898438 114.535156 L 294.898438 85.097656 L 310 85.097656 L 310 159.894531 L 294.898438 159.894531 L 294.898438 127.191406 L 265.304688 127.191406 L 265.304688 159.894531 Z M 250.203125 159.894531 "/>
<path style=" stroke:none;fill-rule:nonzero;fill:rgb(0%,20%,40%);fill-opacity:1;" d="M 325.664062 159.894531 L 325.664062 85.097656 L 349.898438 85.097656 C 359.082031 85.097656 365.070312 85.472656 367.859375 86.21875 C 372.144531 87.34375 375.734375 89.785156 378.625 93.542969 C 381.515625 97.300781 382.960938 102.15625 382.960938 108.109375 C 382.960938 112.699219 382.128906 116.5625 380.460938 119.691406 C 378.792969 122.820312 376.675781 125.277344 374.109375 127.0625 C 371.539062 128.847656 368.929688 130.03125 366.277344 130.609375 C 362.671875 131.324219 357.449219 131.679688 350.613281 131.679688 L 340.765625 131.679688 L 340.765625 159.894531 Z M 340.765625 97.75 L 340.765625 118.976562 L 349.03125 118.976562 C 354.984375 118.976562 358.964844 118.585938 360.972656 117.800781 C 362.976562 117.019531 364.550781 115.796875 365.691406 114.128906 C 366.828125 112.460938 367.398438 110.523438 367.398438 108.3125 C 367.398438 105.589844 366.601562 103.347656 365 101.578125 C 363.402344 99.808594 361.378906 98.703125 358.929688 98.261719 C 357.128906 97.921875 353.503906 97.75 348.0625 97.75 Z M 340.765625 97.75 "/>
<path style=" stroke:none;fill-rule:nonzero;fill:rgb(0%,20%,40%);fill-opacity:1;" d="M 192.515625 44.265625 C 167.3125 44.265625 147.117188 64.460938 147.117188 89.664062 L 147.117188 153.699219 C 147.117188 178.902344 167.3125 199.101562 192.515625 199.101562 L 364.402344 199.101562 C 389.605469 199.101562 410 178.902344 410 153.699219 L 410 89.664062 C 410 64.460938 389.605469 44.265625 364.402344 44.265625 Z M 198.070312 52.394531 L 359.050781 52.394531 C 382.671875 52.394531 401.671875 70.503906 401.671875 93.035156 L 401.671875 150.328125 C 401.671875 172.859375 382.671875 190.972656 359.050781 190.972656 L 198.070312 190.972656 C 174.445312 190.972656 155.445312 172.859375 155.445312 150.328125 L 155.445312 93.035156 C 155.445312 70.503906 174.445312 52.394531 198.070312 52.394531 Z M 198.070312 52.394531 "/>
<path style=" stroke:none;fill-rule:nonzero;fill:rgb(0%,20%,40%);fill-opacity:1;" d="M 153.484375 61.761719 C 68.757812 61.761719 0 130.253906 0 214.980469 C 0 299.707031 68.757812 368.460938 153.484375 368.460938 C 238.207031 368.460938 306.964844 299.707031 306.964844 214.980469 C 306.964844 209.125 306.535156 203.3125 305.898438 197.628906 L 296.023438 197.628906 C 295.621094 201.433594 294.917969 205.386719 293.886719 209.375 C 285.28125 242.710938 243.632812 231.863281 237.832031 224.320312 C 233.320312 218.460938 233.9375 203.835938 229.023438 197.628906 L 217.8125 197.628906 C 212.398438 204.722656 213.171875 222.382812 207.136719 221.917969 C 199.59375 221.351562 183.839844 203.945312 178.039062 205.101562 C 172.238281 206.265625 168.410156 215.050781 175.371094 220.851562 C 182.332031 226.652344 184.332031 223.429688 192.453125 224.589844 C 200.574219 225.75 206.179688 243.53125 198.058594 247.011719 C 189.621094 261.820312 188.371094 281.089844 178.839844 293.988281 C 175.679688 299.925781 167.730469 311.738281 165.226562 313.742188 C 159.425781 318.382812 147.609375 323.886719 147.609375 323.886719 C 147.609375 323.886719 137.707031 328.722656 131.328125 318.28125 C 124.945312 307.839844 137.902344 270.3125 129.191406 259.289062 C 120.488281 248.269531 109.878906 237.796875 84.617188 233.664062 C 85.296875 225.273438 78.214844 220.558594 79.011719 213.109375 C 80.304688 207.304688 86.605469 191.839844 89.6875 191.222656 C 101.289062 188.902344 130.644531 177.402344 135.867188 186.683594 C 141.085938 195.964844 162.375 208.953125 164.695312 200.832031 C 165.75 197.128906 168.140625 191.34375 169.765625 185.882812 C 164.574219 181.078125 160.660156 175.105469 158.289062 168.265625 C 147.773438 163.269531 133.847656 155.875 129.992188 159.726562 C 124.769531 164.945312 122.003906 177.050781 106.238281 177.074219 C 93.78125 177.097656 89.769531 173.277344 92.089844 163.996094 C 94.410156 154.714844 88.179688 147.980469 100.363281 147.980469 C 112.546875 147.980469 121.71875 147.789062 121.71875 140.238281 L 129.460938 123.15625 C 136.03125 123.636719 135.648438 111.621094 154.816406 108.742188 C 154.40625 107.902344 154.765625 107.445312 155.886719 107.40625 L 155.886719 92.460938 C 155.886719 80.695312 160.394531 70.144531 167.898438 62.296875 C 163.164062 61.859375 158.332031 61.761719 153.484375 61.761719 Z M 121.183594 107.40625 C 123.796875 106.289062 124.082031 110.605469 122.785156 113.546875 L 122.785156 119.953125 C 123.3125 121.730469 121.667969 121.929688 117.714844 121.554688 C 113.398438 112.675781 117.316406 109.050781 121.183594 107.40625 Z M 66.199219 204.300781 C 68.832031 203.878906 72.023438 204.394531 73.671875 206.171875 C 73.125 209.101562 71.109375 207.585938 68.601562 209.90625 C 61.210938 205.742188 62.597656 207.132812 63.796875 205.101562 C 64.421875 204.800781 65.320312 204.441406 66.199219 204.300781 Z M 193.253906 286.78125 C 193.78125 286.492188 194.222656 286.53125 194.324219 286.78125 C 195.59375 286.992188 193.210938 294.460938 191.121094 293.1875 C 189.242188 290.574219 191.679688 287.65625 193.253906 286.78125 Z M 193.253906 286.78125 "/>
</g>
</svg>
