<?xml version="1.0" encoding="UTF-8"?>
<svg xmlns="http://www.w3.org/2000/svg" xmlns:xlink="http://www.w3.org/1999/xlink" width="410pt" height="410pt" viewBox="0 0 410 410" version="1.1">
<g id="surface1">
<path style=" stroke:none;fill-rule:nonzero;fill:rgb(0%,20%,40%);fill-opacity:1;" d="M 39.503906 0 C 17.679688 0 0 3.886719 0 8.878906 L 0 401.121094 C 0 406.113281 17.679688 410 39.503906 410 L 370.496094 410 C 392.320312 410 410 406.113281 410 401.121094 L 410 8.878906 C 410 3.886719 392.320312 0 370.496094 0 Z M 31.449219 103.464844 L 131.554688 103.464844 L 131.554688 169.097656 L 31.449219 169.097656 Z M 148.429688 103.464844 L 262.339844 103.464844 L 262.339844 169.097656 L 148.429688 169.097656 Z M 279.214844 103.464844 L 378.933594 103.464844 L 378.933594 169.097656 L 279.214844 169.097656 Z M 31.449219 186.082031 L 131.554688 186.082031 L 131.554688 235.5 L 31.449219 235.5 Z M 148.429688 186.082031 L 262.339844 186.082031 L 262.339844 235.5 L 148.429688 235.5 Z M 279.214844 186.082031 L 378.933594 186.082031 L 378.933594 235.5 L 279.214844 235.5 Z M 31.449219 252.484375 L 131.554688 252.484375 L 131.554688 301.902344 L 31.449219 301.902344 Z M 148.429688 252.484375 L 262.339844 252.484375 L 262.339844 301.902344 L 148.429688 301.902344 Z M 279.214844 252.484375 L 378.933594 252.484375 L 378.933594 301.902344 L 279.214844 301.902344 Z M 31.449219 318.890625 L 131.554688 318.890625 L 131.554688 377.183594 L 31.449219 377.183594 Z M 148.429688 318.890625 L 262.339844 318.890625 L 262.339844 377.183594 L 148.429688 377.183594 Z M 279.214844 318.890625 L 378.933594 318.890625 L 378.933594 377.183594 L 279.214844 377.183594 Z M 279.214844 318.890625 "/>
</g>
</svg>
