<?xml version="1.0" encoding="UTF-8"?>
<svg xmlns="http://www.w3.org/2000/svg" xmlns:xlink="http://www.w3.org/1999/xlink" width="410pt" height="410pt" viewBox="0 0 410 410" version="1.1">
<g id="surface1">
<path style=" stroke:none;fill-rule:nonzero;fill:rgb(0%,20%,40%);fill-opacity:1;" d="M 117.179688 0 C 83.246094 0 56.054688 27.191406 56.054688 61.125 L 56.054688 147.34375 C 56.054688 181.277344 83.246094 208.46875 117.179688 208.46875 L 348.605469 208.46875 C 382.542969 208.46875 410 181.277344 410 147.34375 L 410 61.125 C 410 27.191406 382.542969 0 348.605469 0 Z M 124.65625 10.945312 L 341.398438 10.945312 C 373.203125 10.945312 398.789062 35.328125 398.789062 65.664062 L 398.789062 142.804688 C 398.789062 173.144531 373.203125 197.527344 341.398438 197.527344 L 124.65625 197.527344 C 92.851562 197.527344 67.265625 173.144531 67.265625 142.804688 L 67.265625 65.664062 C 67.265625 35.328125 92.851562 10.945312 124.65625 10.945312 Z M 124.65625 10.945312 "/>
<path style=" stroke:none;fill-rule:nonzero;fill:rgb(0%,20%,40%);fill-opacity:1;" d="M 223.578125 219.125 L 307.03125 219.125 L 307.03125 302.578125 L 223.578125 302.578125 Z M 223.578125 219.125 "/>
<path style=" stroke:none;fill-rule:nonzero;fill:rgb(0%,20%,40%);fill-opacity:1;" d="M 111.789062 219.125 L 195.242188 219.125 L 195.242188 302.578125 L 111.789062 302.578125 Z M 111.789062 219.125 "/>
<path style=" stroke:none;fill-rule:nonzero;fill:rgb(0%,20%,40%);fill-opacity:1;" d="M 0 219.125 L 83.453125 219.125 L 83.453125 302.578125 L 0 302.578125 Z M 0 219.125 "/>
<path style=" stroke:none;fill-rule:nonzero;fill:rgb(0%,20%,40%);fill-opacity:1;" d="M 0 111.605469 L 0 195.152344 L 78.210938 195.152344 C 64.605469 183.9375 56.054688 166.726562 56.054688 147.640625 L 56.054688 111.605469 Z M 0 111.605469 "/>
<path style=" stroke:none;fill-rule:nonzero;fill:rgb(0%,20%,40%);fill-opacity:1;" d="M 0 4.300781 L 0 87.847656 L 56.054688 87.847656 L 56.054688 61.421875 C 56.054688 39.996094 66.980469 21.378906 83.546875 10.441406 L 83.546875 4.300781 Z M 0 4.300781 "/>
<path style=" stroke:none;fill-rule:nonzero;fill:rgb(0%,20%,40%);fill-opacity:1;" d="M 223.578125 326.546875 L 307.03125 326.546875 L 307.03125 410 L 223.578125 410 Z M 223.578125 326.546875 "/>
<path style=" stroke:none;fill-rule:nonzero;fill:rgb(0%,20%,40%);fill-opacity:1;" d="M 111.789062 326.546875 L 195.242188 326.546875 L 195.242188 410 L 111.789062 410 Z M 111.789062 326.546875 "/>
<path style=" stroke:none;fill-rule:nonzero;fill:rgb(0%,20%,40%);fill-opacity:1;" d="M 0 326.546875 L 83.453125 326.546875 L 83.453125 410 L 0 410 Z M 0 326.546875 "/>
<path style=" stroke:none;fill-rule:nonzero;fill:rgb(0%,20%,40%);fill-opacity:1;" d="M 123.972656 154.230469 L 123.972656 71.359375 L 94.375 71.359375 L 94.375 54.484375 L 173.640625 54.484375 L 173.640625 71.359375 L 144.109375 71.359375 L 144.109375 154.230469 Z M 123.972656 154.230469 "/>
<path style=" stroke:none;fill-rule:nonzero;fill:rgb(0%,20%,40%);fill-opacity:1;" d="M 276.652344 154.230469 L 254.742188 154.230469 L 246.035156 131.574219 L 206.164062 131.574219 L 197.929688 154.230469 L 176.566406 154.230469 L 215.417969 54.484375 L 236.710938 54.484375 Z M 239.570312 114.769531 L 225.828125 77.753906 L 212.355469 114.769531 Z M 239.570312 114.769531 "/>
<path style=" stroke:none;fill-rule:nonzero;fill:rgb(0%,20%,40%);fill-opacity:1;" d="M 287.46875 154.230469 L 287.46875 54.484375 L 329.859375 54.484375 C 340.519531 54.484375 348.261719 55.382812 353.09375 57.171875 C 357.925781 58.964844 361.792969 62.152344 364.695312 66.730469 C 367.597656 71.3125 369.050781 76.554688 369.050781 82.449219 C 369.050781 89.933594 366.847656 96.113281 362.449219 100.988281 C 358.050781 105.867188 351.472656 108.9375 342.71875 110.210938 C 347.074219 112.75 350.667969 115.539062 353.503906 118.578125 C 356.339844 121.617188 360.160156 127.015625 364.96875 134.773438 L 377.144531 154.230469 L 353.058594 154.230469 L 338.5 132.527344 C 333.328125 124.769531 329.789062 119.882812 327.886719 117.863281 C 325.980469 115.84375 323.960938 114.460938 321.832031 113.714844 C 319.699219 112.964844 316.320312 112.589844 311.691406 112.589844 L 307.609375 112.589844 L 307.609375 154.230469 Z M 307.609375 96.671875 L 322.511719 96.671875 C 332.171875 96.671875 338.203125 96.261719 340.609375 95.445312 C 343.011719 94.628906 344.894531 93.222656 346.257812 91.226562 C 347.617188 89.230469 348.296875 86.734375 348.296875 83.742188 C 348.296875 80.386719 347.402344 77.675781 345.609375 75.609375 C 343.820312 73.546875 341.289062 72.242188 338.023438 71.699219 C 336.390625 71.464844 331.492188 71.359375 323.328125 71.359375 L 307.609375 71.359375 Z M 307.609375 96.671875 "/>
</g>
</svg>
