<?xml version="1.0" encoding="UTF-8"?>
<svg xmlns="http://www.w3.org/2000/svg" xmlns:xlink="http://www.w3.org/1999/xlink" width="410pt" height="410pt" viewBox="0 0 410 410" version="1.1">
<g id="surface1">
<path style=" stroke:none;fill-rule:evenodd;fill:rgb(0%,20%,40%);fill-opacity:1;" d="M 205 409.734375 C 318.136719 409.734375 409.734375 318.136719 409.734375 205 C 409.734375 91.863281 318.136719 0 205 0 C 91.863281 0 0 91.863281 0 205 C 0 318.136719 91.863281 409.734375 205 409.734375 Z M 205.265625 361.152344 L 204.464844 361.152344 C 189.546875 361.152344 177.507812 345.808594 177.507812 326.71875 L 177.507812 150.546875 L 117.714844 221.550781 C 109.183594 231.71875 93.109375 232.207031 81.679688 222.617188 L 81.144531 222.082031 C 69.71875 212.496094 67.273438 196.75 75.808594 186.582031 L 184.714844 56.855469 C 189.484375 51.171875 196.578125 48.40625 203.933594 48.847656 C 204.113281 48.84375 204.285156 48.847656 204.464844 48.847656 L 205.265625 48.847656 C 205.527344 48.847656 205.808594 48.839844 206.066406 48.847656 C 213.328125 48.484375 220.304688 51.238281 225.019531 56.855469 L 333.925781 186.582031 C 342.457031 196.75 340.015625 212.496094 328.585938 222.082031 L 328.054688 222.617188 C 316.625 232.207031 300.550781 231.71875 292.019531 221.550781 L 232.226562 150.546875 L 232.226562 326.71875 C 232.226562 345.808594 220.183594 361.152344 205.265625 361.152344 Z M 205.265625 361.152344 "/>
</g>
</svg>
