<?xml version="1.0" encoding="UTF-8"?>
<svg xmlns="http://www.w3.org/2000/svg" xmlns:xlink="http://www.w3.org/1999/xlink" width="410pt" height="410pt" viewBox="0 0 410 410" version="1.1">
<g id="surface1">
<path style=" stroke:none;fill-rule:nonzero;fill:rgb(0%,20%,40%);fill-opacity:1;" d="M 205.335938 335.769531 C 217.828125 335.769531 227.910156 322.921875 227.910156 306.9375 L 227.910156 159.425781 L 277.976562 218.875 C 285.121094 227.390625 298.578125 227.800781 308.148438 219.769531 L 308.59375 219.324219 C 318.164062 211.292969 320.210938 198.113281 313.066406 189.597656 L 221.875 80.972656 C 217.925781 76.269531 212.085938 73.960938 206.003906 74.269531 C 205.789062 74.261719 205.554688 74.269531 205.335938 74.269531 L 204.664062 74.269531 C 204.511719 74.269531 204.367188 74.265625 204.21875 74.269531 C 198.058594 73.898438 192.121094 76.214844 188.125 80.972656 L 96.933594 189.597656 C 89.789062 198.113281 91.835938 211.292969 101.40625 219.324219 L 101.851562 219.769531 C 111.421875 227.800781 124.878906 227.390625 132.023438 218.875 L 182.089844 159.421875 L 182.089844 306.9375 C 182.089844 322.921875 192.171875 335.769531 204.664062 335.769531 Z M 205.335938 335.769531 "/>
<path style=" stroke:none;fill-rule:nonzero;fill:rgb(0%,20%,40%);fill-opacity:1;" d="M 205 408.933594 C 317.691406 408.933594 408.933594 317.691406 408.933594 205 C 408.933594 92.308594 317.691406 1.066406 205 1.066406 C 92.308594 1.066406 1.066406 92.308594 1.066406 205 C 1.066406 317.691406 92.308594 408.933594 205 408.933594 Z M 205 359.015625 C 119.894531 359.015625 50.984375 290.105469 50.984375 205 C 50.984375 119.894531 119.894531 50.984375 205 50.984375 C 290.105469 50.984375 359.015625 119.894531 359.015625 205 C 359.015625 290.105469 290.105469 359.015625 205 359.015625 Z M 205 359.015625 "/>
</g>
</svg>
