<?xml version="1.0" encoding="UTF-8"?>
<svg xmlns="http://www.w3.org/2000/svg" xmlns:xlink="http://www.w3.org/1999/xlink" width="410pt" height="410pt" viewBox="0 0 410 410" version="1.1">
<g id="surface1">
<path style=" stroke:none;fill-rule:nonzero;fill:rgb(0%,0%,0%);fill-opacity:1;" d="M 273.214844 85.621094 L 349.953125 85.621094 L 264.6875 0.359375 L 264.6875 77.097656 C 264.6875 81.785156 268.515625 85.621094 273.214844 85.621094 "/>
<path style=" stroke:none;fill-rule:nonzero;fill:rgb(0%,0%,0%);fill-opacity:1;" d="M 247.640625 94.15625 L 247.640625 0.359375 L 34.464844 0.359375 C 29.777344 0.359375 25.941406 4.195312 25.941406 8.882812 L 25.941406 401.117188 C 25.941406 405.816406 29.777344 409.640625 34.464844 409.640625 L 341.4375 409.640625 C 346.125 409.640625 349.960938 405.816406 349.960938 401.117188 L 349.960938 341.4375 L 111.203125 341.4375 C 101.824219 341.4375 94.15625 333.757812 94.15625 324.378906 L 94.15625 239.117188 C 94.15625 229.738281 101.824219 222.066406 111.203125 222.066406 L 349.960938 222.066406 L 349.960938 102.679688 L 256.164062 102.679688 C 251.457031 102.679688 247.640625 98.84375 247.640625 94.15625 M 128.261719 170.894531 L 77.097656 170.894531 L 77.097656 119.730469 L 128.253906 119.730469 L 128.253906 170.894531 Z M 128.261719 102.679688 L 77.097656 102.679688 L 77.097656 51.523438 L 128.253906 51.523438 L 128.253906 102.679688 Z M 196.476562 170.894531 L 145.3125 170.894531 L 145.3125 119.730469 L 196.476562 119.730469 Z M 196.476562 102.679688 L 145.3125 102.679688 L 145.3125 51.523438 L 196.476562 51.523438 Z M 196.476562 102.679688 "/>
<path style=" stroke:none;fill-rule:nonzero;fill:rgb(0%,0%,0%);fill-opacity:1;" d="M 162.367188 68.574219 L 179.425781 68.574219 L 179.425781 85.621094 L 162.367188 85.621094 Z M 162.367188 68.574219 "/>
<path style=" stroke:none;fill-rule:nonzero;fill:rgb(0%,0%,0%);fill-opacity:1;" d="M 94.15625 68.574219 L 111.203125 68.574219 L 111.203125 85.621094 L 94.15625 85.621094 Z M 94.15625 68.574219 "/>
<path style=" stroke:none;fill-rule:nonzero;fill:rgb(0%,0%,0%);fill-opacity:1;" d="M 213.523438 307.320312 L 213.523438 239.105469 L 196.476562 239.105469 L 196.476562 307.320312 L 213.523438 324.378906 L 247.640625 324.378906 L 247.640625 307.320312 Z M 213.523438 307.320312 "/>
<path style=" stroke:none;fill-rule:nonzero;fill:rgb(0%,0%,0%);fill-opacity:1;" d="M 128.261719 239.105469 L 145.320312 239.105469 L 145.320312 273.214844 L 128.261719 273.214844 Z M 128.261719 239.105469 "/>
<path style=" stroke:none;fill-rule:nonzero;fill:rgb(0%,0%,0%);fill-opacity:1;" d="M 128.261719 290.261719 L 145.320312 290.261719 L 145.320312 324.371094 L 128.261719 324.371094 Z M 128.261719 290.261719 "/>
<path style=" stroke:none;fill-rule:nonzero;fill:rgb(0%,0%,0%);fill-opacity:1;" d="M 162.367188 290.261719 L 179.425781 290.261719 L 179.425781 324.371094 L 162.367188 324.371094 Z M 162.367188 290.261719 "/>
<path style=" stroke:none;fill-rule:nonzero;fill:rgb(0%,0%,0%);fill-opacity:1;" d="M 162.367188 239.105469 L 179.425781 239.105469 L 179.425781 273.214844 L 162.367188 273.214844 Z M 162.367188 239.105469 "/>
<path style=" stroke:none;fill-rule:nonzero;fill:rgb(0%,0%,0%);fill-opacity:1;" d="M 145.3125 273.214844 L 162.367188 273.214844 L 162.367188 290.261719 L 145.3125 290.261719 Z M 145.3125 273.214844 "/>
<path style=" stroke:none;fill-rule:nonzero;fill:rgb(0%,0%,0%);fill-opacity:1;" d="M 332.910156 239.105469 L 349.960938 239.105469 L 349.960938 273.214844 L 332.910156 273.214844 Z M 332.910156 239.105469 "/>
<path style=" stroke:none;fill-rule:nonzero;fill:rgb(0%,0%,0%);fill-opacity:1;" d="M 332.910156 290.261719 L 349.960938 290.261719 L 349.960938 324.371094 L 332.910156 324.371094 Z M 332.910156 290.261719 "/>
<path style=" stroke:none;fill-rule:nonzero;fill:rgb(0%,0%,0%);fill-opacity:1;" d="M 367.011719 290.261719 L 384.058594 290.261719 L 384.058594 324.371094 L 367.011719 324.371094 Z M 367.011719 290.261719 "/>
<path style=" stroke:none;fill-rule:nonzero;fill:rgb(0%,0%,0%);fill-opacity:1;" d="M 367.011719 239.105469 L 384.058594 239.105469 L 384.058594 273.214844 L 367.011719 273.214844 Z M 367.011719 239.105469 "/>
<path style=" stroke:none;fill-rule:nonzero;fill:rgb(0%,0%,0%);fill-opacity:1;" d="M 349.960938 273.214844 L 367.011719 273.214844 L 367.011719 290.261719 L 349.960938 290.261719 Z M 349.960938 273.214844 "/>
<path style=" stroke:none;fill-rule:nonzero;fill:rgb(0%,0%,0%);fill-opacity:1;" d="M 264.6875 307.320312 L 264.6875 324.378906 L 298.789062 324.378906 L 315.84375 307.320312 L 315.84375 290.261719 L 298.789062 290.261719 L 298.789062 307.320312 Z M 264.6875 307.320312 "/>
<path style=" stroke:none;fill-rule:nonzero;fill:rgb(0%,0%,0%);fill-opacity:1;" d="M 281.738281 273.214844 L 298.789062 273.214844 L 298.789062 290.261719 L 281.738281 290.261719 Z M 281.738281 273.214844 "/>
<path style=" stroke:none;fill-rule:nonzero;fill:rgb(0%,0%,0%);fill-opacity:1;" d="M 264.6875 256.164062 L 264.6875 273.214844 L 281.738281 273.214844 L 281.738281 256.164062 L 315.84375 256.164062 L 315.84375 239.105469 L 281.738281 239.105469 Z M 264.6875 256.164062 "/>
<path style=" stroke:none;fill-rule:nonzero;fill:rgb(0%,0%,0%);fill-opacity:1;" d="M 94.15625 136.785156 L 111.203125 136.785156 L 111.203125 153.84375 L 94.15625 153.84375 Z M 94.15625 136.785156 "/>
<path style=" stroke:none;fill-rule:nonzero;fill:rgb(0%,0%,0%);fill-opacity:1;" d="M 162.367188 136.785156 L 179.441406 136.785156 L 179.441406 153.84375 L 162.367188 153.84375 Z M 162.367188 136.785156 "/>
</g>
</svg>
