<?xml version="1.0" encoding="UTF-8" standalone="no"?>
<svg
   xmlns:dc="http://purl.org/dc/elements/1.1/"
   xmlns:cc="http://creativecommons.org/ns#"
   xmlns:rdf="http://www.w3.org/1999/02/22-rdf-syntax-ns#"
   xmlns:svg="http://www.w3.org/2000/svg"
   xmlns="http://www.w3.org/2000/svg"
   xmlns:sodipodi="http://sodipodi.sourceforge.net/DTD/sodipodi-0.dtd"
   xmlns:inkscape="http://www.inkscape.org/namespaces/inkscape"
   width="410pt"
   height="410pt"
   viewBox="0 0 410 410"
   version="1.1"
   id="svg2"
   inkscape:version="0.48.2 r9819"
   sodipodi:docname="yahoo.svg">
  <metadata
     id="metadata37">
    <rdf:RDF>
      <cc:Work
         rdf:about="">
        <dc:format>image/svg+xml</dc:format>
        <dc:type
           rdf:resource="http://purl.org/dc/dcmitype/StillImage" />
      </cc:Work>
    </rdf:RDF>
  </metadata>
  <defs
     id="defs35" />
  <sodipodi:namedview
     pagecolor="#ffffff"
     bordercolor="#666666"
     borderopacity="1"
     objecttolerance="10"
     gridtolerance="10"
     guidetolerance="10"
     inkscape:pageopacity="0"
     inkscape:pageshadow="2"
     inkscape:window-width="1920"
     inkscape:window-height="1017"
     id="namedview33"
     showgrid="false"
     inkscape:zoom="0.4604878"
     inkscape:cx="256.25"
     inkscape:cy="256.25"
     inkscape:window-x="1912"
     inkscape:window-y="-8"
     inkscape:window-maximized="1"
     inkscape:current-layer="svg2" />
  <path
     style="fill:#000000;fill-opacity:1;fill-rule:nonzero;stroke:none"
     d="m 34.724999,1.1499979 c -18.53906,0 -33.5750007,15.0359401 -33.5750007,33.5750001 l 0,340.550002 c 0,18.54297 15.0359407,33.575 33.5750007,33.575 l 340.550001,0 c 18.54297,0 33.575,-15.03203 33.575,-33.575 l 0,-340.550002 c 0,-18.53906 -15.03203,-33.5750001 -33.575,-33.5750001 l -340.550001,0 z m -12.325,81.0250001 179.350001,0 0,32.425002 -49.7,0 68.075,86.8 54.4,-49.7 -40.35,-14.05 0,-23.05 154.875,0 0,22.325 -52.225,11.525 -88.25,88.975 0,62.65 50.425,0 0,27.75 -186.925,0 0,-34.575 54.75,0 0,-57.275 -101.925001,-120.3 -43.95,0 1.45,-33.500002 z"
     id="path29"
     inkscape:connector-curvature="0" />
</svg>
